<?xml version="1.0" encoding="UTF-8"?>
<svg id="a" data-name="Layer 1" xmlns="http://www.w3.org/2000/svg" viewBox="0 0 24 24">
  <defs>
    <style>
      .b {
        fill: current;
        fill-rule: evenodd;
      }
    </style>
  </defs>
  <path class="b" d="M22,12c0,5.52-4.48,10-10,10S2,17.52,2,12,6.48,2,12,2s10,4.48,10,10Zm2,0c0,6.63-5.37,12-12,12S0,18.63,0,12,5.37,0,12,0s12,5.37,12,12Zm-12.76-.75l2.48-.97-.97,2.48-2.48,.97,.97-2.48Zm5.22-2.4l-.67,1.64-1.33,3.41c-.1,.26-.31,.47-.57,.57l-3.41,1.33-1.64,.67c-.82,.34-1.64-.48-1.3-1.3l.67-1.64,1.33-3.41c.1-.26,.31-.47,.57-.57l3.41-1.33,1.64-.67c.82-.34,1.64,.48,1.3,1.3Z"/>
</svg>