<?xml version="1.0" encoding="UTF-8"?>
<svg id="a" data-name="Layer 1" xmlns="http://www.w3.org/2000/svg" xmlns:xlink="http://www.w3.org/1999/xlink" viewBox="0 0 28 28">
  <defs>
    <style>
      .d {
        mask: url(#b);
      }

      .e, .f {
        fill: current;
      }

      .f, .g {
        fill-rule: evenodd;
      }

      .g {
        fill: current;
      }
    </style>
    <mask id="b" data-name="mask" width="28" height="28" maskUnits="userSpaceOnUse">
      <g id="c" data-name="path-1-inside-1 272 3022">
        <path class="g" d="M14,2C7.37,2,2,7.37,2,14s5.37,12,12,12,12-5.37,12-12S20.63,2,14,2Zm-.58,11.42l1.9-.74-.74,1.9-1.9,.74,.74-1.9Zm4.63-2.17l-.55,1.35-1.22,3.11c-.1,.26-.31,.47-.57,.57l-3.11,1.22-1.35,.55c-.82,.33-1.64-.48-1.3-1.3l.55-1.35,1.22-3.11c.1-.26,.31-.46,.57-.57l3.11-1.22,1.35-.55c.82-.34,1.64,.48,1.3,1.3Z"/>
      </g>
    </mask>
  </defs>
  <path class="f" d="M14,2C7.37,2,2,7.37,2,14s5.37,12,12,12,12-5.37,12-12S20.63,2,14,2Zm-.58,11.42l1.9-.74-.74,1.9-1.9,.74,.74-1.9Zm4.63-2.17l-.55,1.35-1.22,3.11c-.1,.26-.31,.47-.57,.57l-3.11,1.22-1.35,.55c-.82,.33-1.64-.48-1.3-1.3l.55-1.35,1.22-3.11c.1-.26,.31-.46,.57-.57l3.11-1.22,1.35-.55c.82-.34,1.64,.48,1.3,1.3Z"/>
  <g class="d">
    <path class="e" d="M15.32,12.68l1.86,.73,1.67-4.26-4.26,1.67,.73,1.86Zm-1.9,.74l-.73-1.86-.81,.32-.32,.81,1.86,.73Zm1.16,1.16l.73,1.86,.81-.32,.32-.81-1.86-.73Zm-1.9,.74l-1.86-.73-1.67,4.26,4.26-1.67-.73-1.86Zm4.82-2.72l-1.85-.76h0v.03l1.86,.73Zm.55-1.35l1.85,.76h0l-1.85-.76Zm-1.77,4.46l1.86,.73h0l-1.86-.73Zm-.57,.57l.73,1.86h0l-.73-1.86Zm-3.11,1.22l-.73-1.86h-.03l.76,1.86Zm-1.35,.55l-.76-1.85h0l.76,1.85Zm-1.3-1.3l-1.85-.76,1.85,.76Zm.55-1.35l1.85,.76h0v-.03l-1.86-.73Zm1.22-3.11l-1.86-.73h0l1.86,.73Zm.57-.57l-.73-1.86h0l.73,1.86Zm3.11-1.22l.73,1.86h.03l-.76-1.86Zm1.35-.55l-.76-1.85,.76,1.85ZM4,14c0-5.52,4.48-10,10-10V0C6.27,0,0,6.27,0,14H4Zm10,10c-5.52,0-10-4.48-10-10H0c0,7.73,6.27,14,14,14v-4Zm10-10c0,5.52-4.48,10-10,10v4c7.73,0,14-6.27,14-14h-4ZM14,4c5.52,0,10,4.48,10,10h4C28,6.27,21.73,0,14,0V4Zm.59,6.82l-1.9,.74,1.46,3.72,1.9-.74-1.46-3.72Zm1.85,4.49l.74-1.9-3.72-1.46-.74,1.9,3.72,1.46Zm-3.03,1.88l1.9-.74-1.46-3.72-1.9,.74,1.46,3.72Zm-1.85-4.49l-.74,1.9,3.72,1.46,.74-1.9-3.72-1.46Zm7.79,.66l.55-1.35-3.7-1.51-.55,1.35,3.7,1.51Zm-1.21,3.09l1.22-3.11-3.72-1.46-1.22,3.11,3.72,1.46Zm-1.7,1.7c.78-.3,1.39-.92,1.7-1.7l-3.72-1.46c.1-.26,.31-.47,.57-.57l1.46,3.72Zm-3.11,1.22l3.11-1.22-1.46-3.72-3.11,1.22,1.46,3.72Zm-1.32,.54l1.35-.55-1.51-3.7-1.35,.55,1.51,3.7Zm-3.91-3.91c-1.01,2.46,1.45,4.92,3.91,3.91l-1.51-3.7c.82-.34,1.64,.48,1.3,1.3l-3.7-1.51Zm.55-1.35l-.55,1.35,3.7,1.51,.55-1.35-3.7-1.51Zm1.21-3.09l-1.22,3.11,3.72,1.46,1.22-3.11-3.72-1.46Zm1.7-1.7c-.78,.3-1.39,.92-1.7,1.7l3.72,1.46c-.1,.26-.31,.47-.57,.57l-1.46-3.72Zm3.11-1.22l-3.11,1.22,1.46,3.72,3.11-1.22-1.46-3.72Zm1.32-.54l-1.35,.55,1.51,3.7,1.35-.55-1.51-3.7Zm3.91,3.91c1.01-2.46-1.45-4.92-3.91-3.91l1.51,3.7c-.82,.34-1.64-.48-1.3-1.3l3.7,1.51Z"/>
  </g>
</svg>