<?xml version="1.0" encoding="utf-8"?>
<!-- Generator: Adobe Illustrator 26.3.1, SVG Export Plug-In . SVG Version: 6.00 Build 0)  -->
<svg version="1.1" id="Layer_1" xmlns="http://www.w3.org/2000/svg" xmlns:xlink="http://www.w3.org/1999/xlink" x="0px" y="0px"
	 viewBox="0 0 27 26" style="enable-background:new 0 0 27 26;" xml:space="preserve">
<style type="text/css">
	.progress_on-st0{fill-rule:evenodd;clip-rule:evenodd;fill:current;}
	.progress_on-st1{fill-rule:evenodd;clip-rule:evenodd;fill:#FFFFFF;filter:url(#Adobe_OpacityMaskFilter);}
	.progress_on-st2{mask:url(#path-1-inside-1_272_2992_00000171718195792503619700000014202146415073784735_);fill:current;}
</style>
<path class="progress_on-st0" d="M5.5,1c-2.2,0-4,1.8-4,4v16c0,2.2,1.8,4,4,4h16c2.2,0,4-1.8,4-4V5c0-2.2-1.8-4-4-4H5.5z M13.5,7
	c-0.6,0-1,0.4-1,1v12c0,0.6,0.4,1,1,1s1-0.4,1-1V8C14.5,7.4,14.1,7,13.5,7z M17.5,12c0-0.6,0.4-1,1-1s1,0.4,1,1v8c0,0.6-0.4,1-1,1
	s-1-0.4-1-1V12z M8.5,15c-0.6,0-1,0.4-1,1v4c0,0.6,0.4,1,1,1s1-0.4,1-1v-4C9.5,15.4,9.1,15,8.5,15z"/>
<defs>
	<filter id="Adobe_OpacityMaskFilter" filterUnits="userSpaceOnUse" x="-0.5" y="-1" width="28" height="28">
		<feColorMatrix  type="matrix" values="1 0 0 0 0  0 1 0 0 0  0 0 1 0 0  0 0 0 1 0"/>
	</filter>
</defs>
<mask maskUnits="userSpaceOnUse" x="-0.5" y="-1" width="28" height="28" id="path-1-inside-1_272_2992_00000171718195792503619700000014202146415073784735_">
	<path class="progress_on-st1" d="M5.5,1c-2.2,0-4,1.8-4,4v16c0,2.2,1.8,4,4,4h16c2.2,0,4-1.8,4-4V5c0-2.2-1.8-4-4-4H5.5z M13.5,7
		c-0.6,0-1,0.4-1,1v12c0,0.6,0.4,1,1,1s1-0.4,1-1V8C14.5,7.4,14.1,7,13.5,7z M17.5,12c0-0.6,0.4-1,1-1s1,0.4,1,1v8c0,0.6-0.4,1-1,1
		s-1-0.4-1-1V12z M8.5,15c-0.6,0-1,0.4-1,1v4c0,0.6,0.4,1,1,1s1-0.4,1-1v-4C9.5,15.4,9.1,15,8.5,15z"/>
</mask>
<path class="progress_on-st2" d="M3.5,5c0-1.1,0.9-2,2-2v-4c-3.3,0-6,2.7-6,6H3.5z M3.5,21V5h-4v16H3.5z M5.5,23c-1.1,0-2-0.9-2-2h-4
	c0,3.3,2.7,6,6,6V23z M21.5,23h-16v4h16V23z M23.5,21c0,1.1-0.9,2-2,2v4c3.3,0,6-2.7,6-6H23.5z M23.5,5v16h4V5H23.5z M21.5,3
	c1.1,0,2,0.9,2,2h4c0-3.3-2.7-6-6-6V3z M5.5,3h16v-4h-16V3z M14.5,8c0,0.6-0.4,1-1,1V5c-1.7,0-3,1.3-3,3H14.5z M14.5,20V8h-4v12
	H14.5z M13.5,19c0.6,0,1,0.4,1,1h-4c0,1.7,1.3,3,3,3V19z M12.5,20c0-0.6,0.4-1,1-1v4c1.7,0,3-1.3,3-3H12.5z M12.5,8v12h4V8H12.5z
	 M13.5,9c-0.6,0-1-0.4-1-1h4c0-1.7-1.3-3-3-3V9z M18.5,9c-1.7,0-3,1.3-3,3h4c0,0.6-0.4,1-1,1V9z M21.5,12c0-1.7-1.3-3-3-3v4
	c-0.6,0-1-0.4-1-1H21.5z M21.5,20v-8h-4v8H21.5z M18.5,23c1.7,0,3-1.3,3-3h-4c0-0.6,0.4-1,1-1V23z M15.5,20c0,1.7,1.3,3,3,3v-4
	c0.6,0,1,0.4,1,1H15.5z M15.5,12v8h4v-8H15.5z M9.5,16c0,0.6-0.4,1-1,1v-4c-1.7,0-3,1.3-3,3H9.5z M9.5,20v-4h-4v4H9.5z M8.5,19
	c0.6,0,1,0.4,1,1h-4c0,1.7,1.3,3,3,3V19z M7.5,20c0-0.6,0.4-1,1-1v4c1.7,0,3-1.3,3-3H7.5z M7.5,16v4h4v-4H7.5z M8.5,17
	c-0.6,0-1-0.4-1-1h4c0-1.7-1.3-3-3-3V17z"/>
</svg>
