<?xml version="1.0" encoding="utf-8"?>
<!-- Generator: Adobe Illustrator 26.3.1, SVG Export Plug-In . SVG Version: 6.00 Build 0)  -->
<svg version="1.1" id="Layer_1" xmlns="http://www.w3.org/2000/svg" xmlns:xlink="http://www.w3.org/1999/xlink" x="0px" y="0px"
	 viewBox="0 0 27 26" style="enable-background:new 0 0 27 26;" xml:space="preserve">
<style type="text/css">
	.progress_off-st0{fill:current;}
</style>
<path class="progress_off-st0" d="M21.5,25h-16c-2.2,0-4-1.8-4-4V5c0-2.2,1.8-4,4-4h16c2.2,0,4,1.8,4,4v16C25.5,23.2,23.7,25,21.5,25z M5.5,3
	c-1.1,0-2,0.9-2,2v16c0,1.1,0.9,2,2,2h16c1.1,0,2-0.9,2-2V5c0-1.1-0.9-2-2-2H5.5z"/>
<g>
	<path d="M13.5,7.5L13.5,7.5C13.8,7.5,14,7.7,14,8v12c0,0.3-0.2,0.5-0.5,0.5l0,0c-0.3,0-0.5-0.2-0.5-0.5V8C13,7.7,13.2,7.5,13.5,7.5
		z"/>
	<path class="progress_off-st0" d="M13.5,21c-0.6,0-1-0.4-1-1V8c0-0.6,0.4-1,1-1c0.6,0,1,0.4,1,1v12C14.5,20.6,14.1,21,13.5,21z M13.5,7.5l0,0.5
		c0,0,0,0,0,0V7.5z"/>
</g>
<g>
	<path d="M18.5,11.5L18.5,11.5c0.3,0,0.5,0.2,0.5,0.5v8c0,0.3-0.2,0.5-0.5,0.5l0,0c-0.3,0-0.5-0.2-0.5-0.5v-8
		C18,11.7,18.2,11.5,18.5,11.5z"/>
	<path class="progress_off-st0" d="M18.5,21c-0.6,0-1-0.4-1-1v-8c0-0.6,0.4-1,1-1s1,0.4,1,1v8C19.5,20.6,19.1,21,18.5,21z M18.5,11.5l0,0.5h0
		V11.5z"/>
</g>
<g>
	<path d="M8.5,15.5L8.5,15.5C8.8,15.5,9,15.7,9,16v4c0,0.3-0.2,0.5-0.5,0.5l0,0C8.2,20.5,8,20.3,8,20v-4C8,15.7,8.2,15.5,8.5,15.5z"
		/>
	<path class="progress_off-st0" d="M8.5,21c-0.6,0-1-0.4-1-1v-4c0-0.6,0.4-1,1-1s1,0.4,1,1v4C9.5,20.6,9.1,21,8.5,21z M8.5,15.5l0,0.5
		c0,0,0,0,0,0V15.5z"/>
</g>
</svg>
