<?xml version="1.0" encoding="UTF-8"?>
<svg id="a" data-name="Layer 1" xmlns="http://www.w3.org/2000/svg" viewBox="0 0 24 24">
  <defs>
    <style>
      .b {
        fill: current;
        fill-rule: evenodd;
      }
    </style>
  </defs>
  <path class="b" d="M10.46,21.74l-.26-.79c-.22-.65-.7-1.18-1.34-1.44-.63-.26-1.35-.23-1.96,.08l-.74,.38-2.15-2.15,.38-.74c.31-.61,.34-1.33,.08-1.96-.26-.63-.79-1.12-1.44-1.34l-.79-.26v-3.03l.79-.26c.65-.22,1.18-.7,1.44-1.34,.26-.63,.23-1.35-.08-1.96l-.38-.74,2.15-2.15,.74,.38c.61,.31,1.33,.34,1.96,.08,.63-.26,1.12-.79,1.34-1.44l.26-.79h3.03l.26,.79c.22,.65,.7,1.18,1.34,1.44,.63,.26,1.35,.23,1.96-.08l.74-.38,2.15,2.15-.38,.74c-.31,.61-.34,1.33-.08,1.96,.26,.63,.79,1.12,1.44,1.34l.79,.26v3.03l-.79,.26c-.65,.22-1.18,.7-1.44,1.34-.26,.63-.23,1.35,.08,1.96l.38,.74-2.15,2.15-.74-.38c-.61-.31-1.33-.34-1.96-.08s-1.12,.79-1.34,1.44l-.26,.79h-3.03ZM22.46,6.16c.06-.36-.06-.72-.32-.99l-3.32-3.32c-.28-.28-.67-.39-1.05-.31-.1,.02-.19,.06-.28,.1l-1.56,.72-.51-1.58c-.04-.11-.09-.22-.16-.31-.21-.29-.56-.48-.93-.48h-4.69c-.39,0-.76,.2-.96,.52-.05,.08-.09,.17-.12,.27l-.59,1.61-1.48-.76c-.11-.06-.22-.09-.34-.11-.36-.06-.72,.06-.99,.32L1.85,5.17c-.28,.28-.39,.67-.31,1.05,.02,.1,.06,.19,.1,.28l.72,1.56-1.58,.51c-.11,.04-.22,.09-.31,.16-.29,.21-.48,.56-.48,.93v4.69c0,.39,.2,.76,.52,.96,.08,.05,.17,.09,.27,.12l1.61,.59-.76,1.48c-.06,.11-.09,.22-.11,.34-.06,.36,.06,.72,.32,.99l3.32,3.32c.28,.28,.67,.39,1.05,.31,.1-.02,.19-.06,.28-.1l1.56-.72,.51,1.58c.04,.11,.09,.22,.16,.31,.21,.29,.56,.48,.93,.48h4.69c.39,0,.76-.2,.96-.52,.05-.08,.09-.17,.12-.27l.59-1.61,1.48,.75c.11,.06,.22,.09,.34,.11,.36,.06,.73-.06,.99-.32l3.32-3.32c.28-.28,.39-.67,.31-1.05-.02-.1-.06-.19-.1-.28l-.72-1.56,1.58-.51c.11-.04,.22-.09,.31-.16,.29-.21,.48-.56,.48-.93v-4.69c0-.39-.2-.76-.52-.96-.08-.05-.17-.09-.27-.12l-1.61-.59,.75-1.48c.06-.11,.09-.22,.11-.34Zm-8.46,5.84c0,1.1-.9,2-2,2s-2-.9-2-2,.9-2,2-2,2,.9,2,2Zm2,0c0,2.21-1.79,4-4,4s-4-1.79-4-4,1.79-4,4-4,4,1.79,4,4Z"/>
</svg>