<?xml version="1.0" encoding="UTF-8"?>
<svg id="a" data-name="Layer 1" xmlns="http://www.w3.org/2000/svg" viewBox="0 0 24 24">
  <defs>
    <style>
      .b {
        fill: current;
        fill-rule: evenodd;
      }
    </style>
  </defs>
  <path class="b" d="M22.15,5.17c.26,.27,.38,.63,.32,.99-.02,.11-.06,.23-.11,.34l-.75,1.48,1.61,.59c.09,.03,.18,.07,.27,.12,.32,.21,.52,.57,.52,.96v4.69c0,.37-.18,.72-.48,.93-.09,.07-.2,.12-.31,.16l-1.58,.51,.72,1.56c.05,.09,.08,.18,.1,.28,.08,.37-.02,.76-.31,1.05l-3.32,3.32c-.26,.26-.63,.38-.99,.32-.11-.02-.23-.06-.34-.11l-1.48-.75-.59,1.61c-.03,.09-.07,.18-.12,.27-.21,.32-.57,.52-.96,.52h-4.69c-.37,0-.72-.18-.93-.48-.07-.09-.12-.2-.16-.31l-.51-1.58-1.56,.72c-.09,.05-.18,.08-.28,.1-.37,.08-.76-.02-1.05-.31l-3.32-3.32c-.26-.27-.38-.63-.32-.99,.02-.11,.06-.23,.11-.34l.76-1.48-1.61-.59c-.09-.03-.18-.07-.27-.12-.32-.21-.52-.57-.52-.96v-4.69c0-.37,.18-.72,.48-.93,.09-.07,.2-.12,.31-.16l1.58-.51-.72-1.56c-.05-.09-.08-.18-.1-.28-.08-.37,.02-.76,.31-1.05L5.17,1.85c.27-.26,.63-.38,.99-.32,.11,.02,.23,.06,.34,.11l1.48,.76,.59-1.61c.03-.09,.07-.18,.12-.27,.21-.32,.57-.52,.96-.52h4.69c.37,0,.72,.18,.93,.48,.07,.09,.12,.2,.16,.31l.51,1.58,1.56-.72c.09-.05,.18-.08,.28-.1,.37-.08,.76,.02,1.05,.31l3.32,3.32Zm-8.15,6.83c0,1.1-.9,2-2,2s-2-.9-2-2,.9-2,2-2,2,.9,2,2Zm2,0c0,2.21-1.79,4-4,4s-4-1.79-4-4,1.79-4,4-4,4,1.79,4,4Z"/>
</svg>