<?xml version="1.0" encoding="utf-8"?>
<!-- Generator: Adobe Illustrator 26.3.1, SVG Export Plug-In . SVG Version: 6.00 Build 0)  -->
<svg version="1.1" id="Layer_1" xmlns="http://www.w3.org/2000/svg" xmlns:xlink="http://www.w3.org/1999/xlink" x="0px" y="0px"
	 viewBox="0 0 27 26" style="enable-background:new 0 0 27 26;" xml:space="preserve">
<style type="text/css">
	.today_off-st0{fill:current;}
</style>
<path class="today_off-st0" d="M16.8,24.7C16.8,24.7,16.7,24.7,16.8,24.7c0,0-0.3,0-0.8-0.1c-0.4,0-0.7-0.2-1-0.4c-0.3-0.2-0.5-0.5-0.6-0.9
	c-0.4-1-1.3-3.2-2.1-4c-0.1-0.1-0.2-0.2-0.4-0.2C10.1,19,6.1,18.6,5,16c-0.6-0.1-1.6-0.3-2.6-0.9c-2-1.2-1.9-6.1-1.9-6.2
	C0.6,7.7,1.3,6.1,2.4,5c0.3-0.3,0.7-0.6,1.1-0.9c0.3-0.2,0.8-0.4,1.3-0.7C5,3.2,5.2,3,5.4,2.8C5.7,2.5,6.3,2,7.3,1.7
	c1.5-0.4,5.8-1.4,8.6-0.1c0.1,0.1,0.3,0.1,0.4,0.2c0.4,0.1,1.2,0.3,2,0.4c1.5,0.2,3.6,1.7,4.4,3.3c0.1,0.1,0.1,0.3,0.2,0.4
	c0.2,0.2,0.4,0.4,0.6,0.6C23.7,6.6,23.8,6.8,24,7l1.2,1.9c0.3,0.3,0.5,0.7,0.6,1.1c1.2,4.4,0.2,7.8-2.6,9.1c0,0,0,0-0.1,0
	c0,0.6-0.2,1.7-1.2,2.4c-1,0.7-2.5,0.8-4.6,0.2c-0.5-0.1-0.8-0.7-0.7-1.2s0.7-0.8,1.2-0.7c2,0.5,2.7,0.2,2.9,0.1
	c0.3-0.2,0.3-0.6,0.4-1.1l0-0.2c0-0.3,0.1-0.6,0.3-0.8c0.2-0.2,0.4-0.4,0.7-0.5l0.2-0.1c2.7-1.2,2-5.1,1.5-6.7
	c0-0.1-0.1-0.2-0.2-0.3c-0.1-0.1-0.1-0.2-0.2-0.3l-1.2-1.9c0,0-0.1-0.1-0.1-0.1c-0.3-0.3-0.6-0.6-0.9-0.9c-0.2-0.2-0.3-0.4-0.4-0.7
	c-0.5-1-2-2.1-2.8-2.2c-0.9-0.1-1.9-0.3-2.3-0.5c-0.2-0.1-0.5-0.2-0.7-0.3c-2.3-1-6-0.1-7.3,0.2C7.2,3.8,7,4,6.9,4.1
	C6.6,4.5,6.3,4.8,5.8,5.1c-0.5,0.3-1,0.6-1.4,0.8C4.3,6,4,6.1,3.9,6.3C3,7.2,2.6,8.4,2.5,9c-0.1,1.2,0.4,4,1,4.3
	C4.2,13.8,5,14,5.4,14c0.3,0,0.6,0.2,0.9,0.3c0.2,0.2,0.4,0.5,0.5,0.8c0.4,1.3,3,1.9,5.1,2c0.6,0,1.3,0.3,1.7,0.8
	c1.4,1.4,2.5,4.4,2.6,4.8c0.3,0,0.6,0,0.6,0c0.6,0,1,0.5,1,1C17.7,24.2,17.3,24.7,16.8,24.7z M4.9,15.7C4.9,15.7,4.9,15.7,4.9,15.7
	C4.9,15.7,4.9,15.7,4.9,15.7z"/>
</svg>
