<?xml version="1.0" encoding="utf-8"?>
<!-- Generator: Adobe Illustrator 26.3.1, SVG Export Plug-In . SVG Version: 6.00 Build 0)  -->
<svg version="1.1" id="Layer_1" xmlns="http://www.w3.org/2000/svg" xmlns:xlink="http://www.w3.org/1999/xlink" x="0px" y="0px"
	 viewBox="0 0 27 26" style="enable-background:new 0 0 27 26;" xml:space="preserve">
<style type="text/css">
	.today_on-st0{fill:current;}
</style>
<path class="today_on-st0" d="M25.8,10c-0.1-0.4-0.3-0.8-0.6-1.1L24,7c-0.1-0.2-0.3-0.4-0.5-0.5c-0.2-0.2-0.4-0.4-0.6-0.6
	c-0.1-0.1-0.2-0.2-0.2-0.4c-0.8-1.6-2.8-3.1-4.4-3.3c-0.8-0.1-1.6-0.3-2-0.4c-0.1,0-0.3-0.1-0.4-0.2C13,0.4,8.8,1.4,7.3,1.7
	C6.3,2,5.7,2.5,5.4,2.8C5.2,3,5,3.2,4.8,3.4C4.3,3.7,3.8,3.9,3.5,4.1C3.1,4.3,2.7,4.6,2.4,5C1.3,6.1,0.6,7.7,0.5,8.9
	c0,0-0.1,5,1.9,6.2c1,0.6,2,0.8,2.6,0.9c1.1,2.6,5.1,3.1,6.8,3.1c0.1,0,0.3,0.1,0.4,0.2c0.9,0.9,1.8,3,2.1,4
	c0.1,0.3,0.3,0.7,0.6,0.9c0.3,0.2,0.6,0.4,1,0.4c0.5,0.1,0.6,0.1,0.8,0.1c0.6,0,1-0.4,1-1c0-0.5-0.3-0.8-0.7-0.9l0.3-1c0,0,0,0,0,0
	c2.1,0.6,3.6,0.5,4.6-0.2c1-0.7,1.1-1.8,1.2-2.4c0,0,0,0,0.1,0C26.1,17.8,27,14.4,25.8,10z"/>
</svg>
