<?xml version="1.0" encoding="UTF-8"?>
<svg id="uuid-ff89b069-cff2-4a19-b5fc-4b141f3c9199" data-name="Layer 1" xmlns="http://www.w3.org/2000/svg" viewBox="0 0 24 21.33">
  <defs>
    <style>
      .uuid-19cf1106-6d5d-4327-870f-e1118fa8dca8 {
        fill: #4e7fad;
      }
    </style>
  </defs>
  <path class="uuid-19cf1106-6d5d-4327-870f-e1118fa8dca8" d="M12,0c1.48,0,2.67,1.19,2.67,2.67s-1.19,2.67-2.67,2.67-2.67-1.19-2.67-2.67,1.2-2.67,2.67-2.67Zm12,16v-2.67c-2.99,0-5.55-1.28-7.47-3.57l-1.79-2.13c-.25-.3-.56-.54-.91-.71-.35-.17-.74-.25-1.13-.25h-1.37c-.81,0-1.56,.35-2.07,.96l-1.79,2.13c-1.93,2.29-4.49,3.57-7.48,3.57v2.67c3.69,0,6.92-1.56,9.33-4.33v3l-5.17,2.07c-.89,.36-1.49,1.27-1.49,2.21,0,1.32,1.07,2.39,2.39,2.39h2.95v-.67c0-.88,.35-1.73,.98-2.36,.63-.63,1.47-.98,2.36-.98h4c.37,0,.67,.29,.67,.67s-.29,.67-.67,.67h-4c-1.11,0-2,.89-2,2v.67h9.61c1.32,0,2.39-1.07,2.39-2.39,0-.95-.6-1.85-1.49-2.21l-5.17-2.07v-3c2.41,2.77,5.64,4.33,9.33,4.33Z"/>
</svg>