<?xml version="1.0" encoding="UTF-8"?>
<svg id="uuid-5deef43f-981d-45ff-ae9b-9e71ce5fde5d" data-name="Layer 1" xmlns="http://www.w3.org/2000/svg" viewBox="0 0 24.24 22.62">
  <defs>
    <style>
      .uuid-28241eeb-82c7-49ed-9f0b-a29bf5023dc5 {
        fill: #edbb32;
      }
    </style>
  </defs>
  <path class="uuid-28241eeb-82c7-49ed-9f0b-a29bf5023dc5" d="M5.29,.36c.71-.49,1.56,.23,1.45,1.08-.07,.52-.1,1.05-.1,1.58,0,6.72,5.35,12.16,11.95,12.16,.91,0,1.79-.1,2.64-.3,.84-.19,1.64,.58,1.24,1.34-2.02,3.81-5.98,6.39-10.52,6.39C5.35,22.62,0,17.18,0,10.46,0,6.25,2.1,2.55,5.29,.36Z"/>
  <path class="uuid-28241eeb-82c7-49ed-9f0b-a29bf5023dc5" d="M23.24,7.41h-6.64c-.42,0-.8-.27-.94-.67-.14-.4-.02-.84,.31-1.11l4.46-3.63h-3.39c-.55,0-1-.45-1-1s.45-1,1-1h6.2c.42,0,.8,.27,.94,.67,.14,.4,.02,.84-.31,1.11l-4.46,3.63h3.83c.55,0,1,.45,1,1s-.45,1-1,1Z"/>
</svg>