<?xml version="1.0" encoding="UTF-8"?>
<svg id="uuid-81bd53b6-b1fd-4528-9a04-cf42445bc4b1" data-name="Layer 1" xmlns="http://www.w3.org/2000/svg" viewBox="0 0 22 23.33">
  <defs>
    <style>
      .uuid-b59c2b71-b94f-4de9-9b31-cdbc35b02968 {
        fill: #7b8a58;
      }
    </style>
  </defs>
  <path class="uuid-b59c2b71-b94f-4de9-9b31-cdbc35b02968" d="M.38,23.08c1.95,1.77,15.06-6.09,17-9.4,.93-1.59-.17-3.93-1.97-5.79,2.04-1.37,3.84,2.9,5.55,2,.78-.42,1.28-1.71,.91-2.5-.67-1.41-2.91-1.41-4.43-1.58,1.07-.26,3.65-1.37,3.7-2.93,.05-1.2-1.46-2.57-2.65-2.43-1.57,.18-2.14,2.45-2.67,3.91-.06-.93-.26-2.96-1.27-3.85-1.35-1.19-2.96-.07-3,1.37-.05,1.73,3.65,2.7,2.48,4.79-1.97-1.53-4.28-2.36-5.77-1.49-.63,.4-1.36,1.19-2.11,2.2,1.15,1.23,2.74,2.7,4,3.55,.26,.18,.34,.55,.14,.81-.18,.27-.54,.34-.8,.16-1.28-.87-2.85-2.32-4.01-3.53-.58,.87-1.18,1.87-1.73,2.91,1.1,1.12,2.5,2.39,3.61,3.14,.26,.18,.32,.55,.14,.81-.18,.27-.54,.34-.82,.16-1.1-.76-2.41-1.93-3.51-3.03C.9,16.89-.79,22.03,.38,23.08Z"/>
</svg>