<?xml version="1.0" encoding="UTF-8"?>
<svg id="uuid-85b43828-9d79-4b1c-bf20-5741fa9c8780" data-name="Layer 1" xmlns="http://www.w3.org/2000/svg" viewBox="0 0 28 20.93">
  <defs>
    <style>
      .uuid-5ff6a40f-7b5a-47ce-929f-115bfc38ef8f {
        fill: #d98355;
      }
    </style>
  </defs>
  <path class="uuid-5ff6a40f-7b5a-47ce-929f-115bfc38ef8f" d="M8.4,9.8c2.71,0,4.9-2.19,4.9-4.9S11.11,0,8.4,0,3.5,2.19,3.5,4.9s2.19,4.9,4.9,4.9Zm3.36,1.4h-.36c-.91,.44-1.92,.7-3,.7s-2.08-.26-3-.7h-.36c-2.78,0-5.04,3.59-5.04,6.37v1.26c0,1.16,.94,2.1,2.1,2.1H14.7c1.16,0,2.1-.94,2.1-2.1v-1.26c0-2.78-2.26-6.37-5.04-6.37Zm9.24-1.4c2.32,0,4.2-1.88,4.2-4.2s-1.88-4.2-4.2-4.2-4.2,1.88-4.2,4.2,1.88,4.2,4.2,4.2Zm2.1,1.4h-.17c-.61,.21-1.25,.35-1.93,.35s-1.33-.14-1.93-.35h-.17c-.89,0-1.84,.38-2.57,.8,1.07,1.15,1.87,3.88,1.87,5.57v1.68c0,.1-.02,.19-.03,.28h7.73c1.16,0,2.1-.94,2.1-2.1,0-2.71-2.19-6.23-4.9-6.23Z"/>
</svg>