<?xml version="1.0" encoding="utf-8"?>
<!-- Generator: Adobe Illustrator 26.4.1, SVG Export Plug-In . SVG Version: 6.00 Build 0)  -->
<svg version="1.1" id="Layer_1" xmlns="http://www.w3.org/2000/svg" xmlns:xlink="http://www.w3.org/1999/xlink" x="0px" y="0px"
	 viewBox="0 0 24 24" style="enable-background:new 0 0 24 24;" xml:space="preserve">
<style type="text/css">
	.st0{fill:#AA6CBC;}
</style>
<path class="st0" d="M24,13.5c0,1.7-1,3-2.2,3c-1.5,0-1.5-1.5-2.6-1.5c-0.6,0-1.1,0.5-1.1,1.1v6.4c0,0.8-0.7,1.5-1.5,1.5h-3.4
	c-0.6,0-1.1-0.5-1.1-1.1c0-1.2,1.5-1.1,1.5-2.6c0-1.2-1.3-2.3-3-2.3s-3,1-3,2.3c0,1.5,1.5,1.5,1.5,2.6C9,23.5,8.5,24,7.9,24H1.5
	C0.7,24,0,23.3,0,22.5v-6.4C0,15.5,0.5,15,1.1,15c1.1,0,1.1,1.5,2.6,1.5c1.2,0,2.2-1.3,2.2-3c0-1.7-1-3-2.2-3
	c-1.5,0-1.5,1.5-2.6,1.5c-0.6,0-1.1-0.5-1.1-1.1V7.5C0,6.6,0.7,6,1.5,6h6.4C8.5,5.9,9,5.5,9,4.8c0-1.1-1.5-1.1-1.5-2.6
	C7.5,1,8.8,0,10.5,0s3,1,3,2.2c0,1.5-1.5,1.5-1.5,2.6C12,5.5,12.5,6,13.1,6h3.4C17.3,6,18,6.6,18,7.4v3.4c0,0.6,0.5,1.1,1.1,1.1
	c1.1,0,1.1-1.5,2.6-1.5C23,10.4,24,11.8,24,13.5z"/>
</svg>
