<svg width="64" height="43" viewBox="0 0 64 43" fill="none" xmlns="http://www.w3.org/2000/svg">
<ellipse cx="34.2969" cy="40.8725" rx="29.421" ry="2.11408" fill="url(#paint0_radial_842_15084)"/>
<path d="M60.9844 35.5903L61.6984 34.6384C61.7522 34.5667 61.8177 34.5047 61.8922 34.455C61.9309 34.4292 61.9714 34.4072 62.0131 34.3889C62.2449 34.2872 62.5149 34.3018 62.7368 34.4349L63.0456 34.6202C63.1408 34.6774 63.2294 34.7466 63.3079 34.8252C63.5688 35.0861 63.7175 35.4421 63.7175 35.811V36.1588C63.7175 36.2472 63.7067 36.3352 63.6853 36.4209C63.5956 36.7794 63.3291 37.0673 62.9785 37.1842L62.6771 37.2846C62.552 37.3263 62.4167 37.3263 62.2915 37.2846L62.2445 37.2689C62.066 37.2094 61.933 37.0588 61.8961 36.8743L61.8503 36.6453C61.8128 36.4576 61.6192 36.3453 61.4377 36.4058C61.3233 36.4439 61.1973 36.4142 61.112 36.329L61.0312 36.2481C60.8541 36.071 60.8342 35.7907 60.9844 35.5903Z" fill="#212121"/>
<path d="M57.9038 29.0687C59.2545 29.9496 61.991 32.416 62.132 35.2348M62.7368 34.4349L63.0456 34.6202C63.1408 34.6774 63.2294 34.7466 63.3079 34.8252V34.8252C63.5688 35.0861 63.7175 35.4421 63.7175 35.811V36.1588C63.7175 36.2472 63.7067 36.3352 63.6853 36.4209V36.4209C63.5956 36.7794 63.3291 37.0673 62.9785 37.1842L62.6771 37.2846C62.552 37.3263 62.4167 37.3263 62.2915 37.2846L62.2445 37.2689C62.066 37.2094 61.933 37.0588 61.8961 36.8743L61.8503 36.6453C61.8128 36.4576 61.6192 36.3453 61.4377 36.4058V36.4058C61.3233 36.4439 61.1973 36.4142 61.112 36.329L61.0312 36.2481C60.8541 36.071 60.8342 35.7907 60.9844 35.5903L61.6984 34.6384C61.7522 34.5667 61.8177 34.5047 61.8922 34.455V34.455C62.1462 34.2857 62.475 34.2779 62.7368 34.4349Z" stroke="#212121" stroke-width="0.447774" stroke-linecap="round"/>
<path d="M4.02815 17.8398L3.51766 18.9148C3.47924 18.9957 3.42735 19.0694 3.36419 19.1329C3.33139 19.1659 3.29613 19.1956 3.25892 19.2218C3.05194 19.3676 2.78436 19.4069 2.54046 19.3205L2.20103 19.2004C2.09629 19.1633 1.99576 19.113 1.90314 19.0516C1.59562 18.8478 1.37909 18.5285 1.30575 18.1669L1.23661 17.8261C1.21905 17.7395 1.21217 17.651 1.21613 17.5627C1.2327 17.1936 1.43673 16.8585 1.75708 16.6742L2.03244 16.5159C2.14681 16.4501 2.27943 16.4232 2.41038 16.4392L2.45957 16.4452C2.64635 16.4681 2.80659 16.5892 2.87943 16.7627L2.96985 16.9781C3.04395 17.1546 3.25594 17.2261 3.42186 17.1307C3.52634 17.0707 3.65581 17.0748 3.75627 17.1413L3.85158 17.2045C4.06033 17.3429 4.13558 17.6136 4.02815 17.8398Z" fill="#212121"/>
<path d="M8.34375 23.6189C6.84493 23.0241 3.67268 21.1509 2.97421 18.4164M2.54046 19.3205L2.20103 19.2004C2.09629 19.1633 1.99576 19.113 1.90314 19.0516V19.0516C1.59562 18.8478 1.37909 18.5285 1.30575 18.1669L1.23661 17.8261C1.21905 17.7395 1.21217 17.651 1.21613 17.5627V17.5627C1.2327 17.1936 1.43673 16.8585 1.75708 16.6742L2.03244 16.5159C2.14681 16.4501 2.27943 16.4232 2.41038 16.4392L2.45957 16.4452C2.64635 16.4681 2.80659 16.5892 2.87943 16.7627L2.96985 16.9781C3.04395 17.1546 3.25594 17.2261 3.42186 17.1307V17.1307C3.52634 17.0707 3.65581 17.0748 3.75627 17.1413L3.85158 17.2045C4.06033 17.3429 4.13558 17.6136 4.02815 17.8398L3.51766 18.9148C3.47924 18.9957 3.42735 19.0694 3.36419 19.1329V19.1329C3.14893 19.3494 2.82822 19.4224 2.54046 19.3205Z" stroke="#212121" stroke-width="0.447774" stroke-linecap="round"/>
<path fill-rule="evenodd" clip-rule="evenodd" d="M29.4978 35.9349L28.7932 35.947L28.8615 39.923C28.4993 39.6523 28.0112 39.4643 27.4261 39.4643C26.2585 39.4643 25.312 40.0164 25.312 40.6975C25.312 41.3786 26.2585 41.9307 27.4261 41.9307C29.5402 41.9307 29.7163 41.5784 29.5402 40.8737C29.5392 40.8699 29.5383 40.8661 29.5373 40.8623L29.4978 35.9349Z" fill="#212121"/>
<path fill-rule="evenodd" clip-rule="evenodd" d="M37.1214 35.7373L37.8216 35.8164L37.3754 39.7673C37.7616 39.5323 38.2654 39.3916 38.8478 39.4473C40.0101 39.5584 40.8998 40.198 40.835 40.876C40.7702 41.554 39.7755 42.0136 38.6132 41.9025C36.5087 41.7014 36.3668 41.3339 36.6093 40.6491C36.6106 40.6454 36.6119 40.6416 36.6133 40.6379L37.1214 35.7373Z" fill="#212121"/>
<path fill-rule="evenodd" clip-rule="evenodd" d="M44.539 35.2345C46.8105 35.2345 48.7485 33.6701 49.5048 31.4708C50.3528 31.8531 51.2816 32.0639 52.2554 32.0639C56.2507 32.0639 59.4895 28.5145 59.4895 24.1361C59.4895 19.7615 56.2563 16.2145 52.2658 16.2083C52.7712 15.2177 53.0592 14.0758 53.0592 12.8602C53.0592 9.06563 50.2522 5.98948 46.7896 5.98948C45.9351 5.98948 45.1206 6.17682 44.3783 6.51606C44.3771 2.91712 41.7145 0 38.4302 0C36.2499 0 34.3435 1.28562 33.308 3.20286C32.2829 1.68712 30.6385 0.704645 28.7847 0.704645C25.8604 0.704645 23.4572 3.14944 23.184 6.27569C22.5613 6.0891 21.9058 5.98948 21.2291 5.98948C17.145 5.98948 13.8342 9.61776 13.8342 14.0935C13.8342 15.2233 14.0452 16.2992 14.4263 17.2764C10.8706 17.4882 8.04685 20.715 8.04685 24.6646C8.04685 28.7511 11.0698 32.0639 14.7987 32.0639C15.2211 32.0639 15.6344 32.0214 16.0353 31.94C17.1365 33.9159 19.1226 35.2347 21.3898 35.2347C22.4438 35.2347 23.4371 34.9497 24.3089 34.4461C25.4446 36.2024 27.314 37.3486 29.4277 37.3486C30.8828 37.3486 32.2221 36.8054 33.2859 35.894C34.3498 36.8054 35.6891 37.3486 37.1441 37.3486C39.1898 37.3486 41.0067 36.2749 42.1511 34.6137C42.8688 35.0108 43.6801 35.2345 44.539 35.2345Z" fill="#EA6699"/>
<path fill-rule="evenodd" clip-rule="evenodd" d="M44.2287 31.2451C46.2135 31.2451 47.9321 30.0866 48.7655 28.3987C49.3202 28.4915 49.8962 28.5405 50.4872 28.5405C54.9264 28.5405 58.5251 25.7798 58.5251 22.3744C58.5251 18.969 54.9264 16.2083 50.4872 16.2083L50.4552 16.2084C51.6596 15.209 52.4163 13.7634 52.4163 12.1555C52.4163 9.13927 49.7533 6.69413 46.4682 6.69413C45.5463 6.69413 44.6734 6.88671 43.8945 7.23046C44.0123 6.76711 44.0749 6.28123 44.0749 5.78048C44.0749 2.58801 41.5284 0 38.3871 0C36.3021 0 34.4791 1.14016 33.4889 2.84047C32.5086 1.49639 30.9362 0.625185 29.1636 0.625185C26.1921 0.625185 23.7832 3.0733 23.7832 6.09321C23.7832 6.38544 23.8057 6.67232 23.8492 6.95215C23.2218 6.78417 22.5584 6.69413 21.8722 6.69413C17.9657 6.69413 14.7988 9.61252 14.7988 13.2125C14.7988 14.9135 15.5058 16.4622 16.6637 17.6229C16.5784 17.6194 16.4926 17.6176 16.4064 17.6176C13.2102 17.6176 10.6191 20.0628 10.6191 23.079C10.6191 26.0952 13.2102 28.5404 16.4064 28.5404C16.6356 28.5404 16.8618 28.5278 17.084 28.5033C18.1564 30.1555 19.999 31.2458 22.0923 31.2458C23.1003 31.2458 24.0502 30.993 24.8839 30.5463C25.97 32.1035 27.7574 33.1198 29.7785 33.1198C31.1699 33.1198 32.4506 32.6381 33.4679 31.8298C34.4852 32.6381 35.7659 33.1198 37.1573 33.1198C39.1135 33.1198 40.8509 32.1677 41.9452 30.6945C42.6315 31.0467 43.4073 31.2451 44.2287 31.2451Z" fill="#FB85B2"/>
<path fill-rule="evenodd" clip-rule="evenodd" d="M24.4203 14.0443C24.5825 13.825 24.2788 13.6874 24.0833 13.8719C24.0243 13.9276 23.963 13.9816 23.8996 14.0337C22.5925 15.1082 20.8516 14.9838 20.0112 13.7559C19.8886 13.5767 19.5643 13.631 19.6393 13.8398C19.7105 14.0381 19.806 14.2274 19.9266 14.4036C20.767 15.6315 22.5079 15.7558 23.815 14.6814C24.0464 14.4912 24.2487 14.2762 24.4203 14.0443Z" fill="#EA6699"/>
<path fill-rule="evenodd" clip-rule="evenodd" d="M22.1031 23.6098C22.2073 23.3551 21.8838 23.276 21.7393 23.5057C21.5962 23.7332 21.4312 23.9512 21.2447 24.1558C19.817 25.7215 17.6668 25.9035 16.4422 24.5624C16.2625 24.3656 15.8705 24.4857 15.9953 24.7283C16.1151 24.9612 16.2641 25.1781 16.4425 25.3735C17.6671 26.7146 19.8172 26.5326 21.2449 24.9669C21.618 24.5577 21.9048 24.0946 22.1031 23.6098Z" fill="#EA6699"/>
<path fill-rule="evenodd" clip-rule="evenodd" d="M49.3215 21.9074C49.4365 21.7278 49.196 21.646 49.0545 21.8012C48.254 22.6791 47.0485 22.7811 46.362 22.0292C46.2613 21.9189 46.0416 21.9863 46.1116 22.1222C46.1787 22.2526 46.2622 22.3741 46.3621 22.4835C47.0487 23.2354 48.2542 23.1333 49.0546 22.2555C49.1547 22.1457 49.2437 22.0291 49.3215 21.9074Z" fill="#EA6699"/>
<path fill-rule="evenodd" clip-rule="evenodd" d="M47.0826 14.3392C47.3491 14.3069 47.2704 14.0602 47.0046 14.0629C45.3879 14.0794 44.1442 13.27 44.2269 12.2551C44.2392 12.1038 44.0089 11.9235 43.9353 12.0621C43.8502 12.2225 43.7979 12.3914 43.7837 12.5655C43.7011 13.5803 44.9447 14.3897 46.5615 14.3733C46.7385 14.3715 46.9127 14.3598 47.0826 14.3392Z" fill="#EA6699"/>
<path fill-rule="evenodd" clip-rule="evenodd" d="M30.6385 9.13923C30.4377 9.32302 30.6599 9.49702 30.8796 9.34065C30.9987 9.25592 31.1228 9.17503 31.2514 9.09859C32.922 8.10589 34.7401 8.23844 35.3121 9.39464C35.3975 9.56717 35.7544 9.60598 35.7388 9.40897C35.7215 9.19016 35.6668 8.98144 35.5716 8.78895C34.9995 7.63275 33.1815 7.5002 31.5109 8.49289C31.1896 8.68379 30.8972 8.90241 30.6385 9.13923Z" fill="#EA6699"/>
<path fill-rule="evenodd" clip-rule="evenodd" d="M38.2993 6.00317C38.5575 6.03643 38.4087 6.34401 38.1483 6.35912C36.6846 6.44407 35.5494 7.57764 35.6129 8.89103C35.6221 9.08208 35.3681 9.23799 35.311 9.05592C35.2571 8.88393 35.2242 8.7033 35.2151 8.51622C35.1517 7.20283 36.2868 6.06925 37.7506 5.9843C37.9378 5.97344 38.1214 5.98026 38.2993 6.00317Z" fill="#EA6699"/>
<circle cx="39.4058" cy="18.3218" r="1.76173" fill="url(#paint1_linear_842_15084)"/>
<circle cx="27.7783" cy="18.3218" r="1.76173" fill="url(#paint2_linear_842_15084)"/>
<circle cx="38.7013" cy="17.9693" r="0.704694" fill="white"/>
<circle cx="27.0738" cy="17.9693" r="0.704694" fill="white"/>
<circle cx="40.4629" cy="18.3233" r="4.94937" stroke="white" stroke-width="0.671661"/>
<circle cx="27.0738" cy="18.3233" r="4.94937" stroke="white" stroke-width="0.671661"/>
<rect x="31.6543" y="17.9706" width="4.22816" height="1.05704" fill="white"/>
<path d="M27.6025 25.0179C27.7774 25.0395 34.8256 29.4222 43.6099 23.5838C44.3199 23.1119 44.6914 23.7847 44.6914 24.3132" stroke="black" stroke-width="0.447774" stroke-linecap="round"/>
<defs>
<radialGradient id="paint0_radial_842_15084" cx="0" cy="0" r="1" gradientUnits="userSpaceOnUse" gradientTransform="translate(34.2969 40.8725) rotate(90) scale(2.11408 29.421)">
<stop stop-color="#D9D9D9"/>
<stop offset="1" stop-color="#D9D9D9" stop-opacity="0"/>
</radialGradient>
<linearGradient id="paint1_linear_842_15084" x1="39.4058" y1="16.5601" x2="39.4058" y2="20.2597" gradientUnits="userSpaceOnUse">
<stop stop-color="#212121"/>
<stop offset="1" stop-color="#575757"/>
</linearGradient>
<linearGradient id="paint2_linear_842_15084" x1="27.7783" y1="16.5601" x2="27.7783" y2="20.2597" gradientUnits="userSpaceOnUse">
<stop stop-color="#212121"/>
<stop offset="1" stop-color="#575757"/>
</linearGradient>
</defs>
</svg>
