<svg width="40" height="40" viewBox="0 0 40 40" fill="current" xmlns="http://www.w3.org/2000/svg">
<path d="M23.9139 38.1815C24.7364 38.2807 25.4835 37.6943 25.5827 36.8718C25.6818 36.0494 25.0955 35.3022 24.273 35.2031L23.9139 38.1815ZM23.3326 36.3692L22.3877 37.5341L22.47 37.6009L22.5608 37.6554L23.3326 36.3692ZM22.8543 35.6871L24.2704 35.1924L24.2683 35.1865L22.8543 35.6871ZM19.2335 28.8739L20.3097 27.829L20.3079 27.8271L19.2335 28.8739ZM17.6242 28.1531L17.5597 29.6517L17.5632 29.6519L17.6242 28.1531ZM8.46243 23.9832L7.03455 24.4429L7.03858 24.455L8.46243 23.9832ZM7.65575 23.3307L7.79332 21.837L7.78222 21.836L7.65575 23.3307ZM3.98691 22.1736L4.7675 20.8927L4.76731 20.8926L3.98691 22.1736ZM1.79 14.0177L0.294188 13.9057L0.29408 13.9071L1.79 14.0177ZM4.29104 8.8747L3.18748 7.85874L3.18323 7.8634L4.29104 8.8747ZM5.60645 7.83466L6.33951 9.14333L6.34097 9.14251L5.60645 7.83466ZM7.61456 6.64057L8.4209 7.90541L8.42285 7.90416L7.61456 6.64057ZM8.89907 5.50363L7.75139 4.53772L7.74367 4.54704L8.89907 5.50363ZM10.9889 4.32836L11.3456 5.78532L11.3461 5.7852L10.9889 4.32836ZM23.2154 4.02862L23.8325 2.6614L23.8212 2.6564L23.2154 4.02862ZM24.0742 4.34579L23.6548 5.78597L23.6629 5.78829L24.0742 4.34579ZM27.3971 5.02544L27.2345 6.5166L27.2352 6.51667L27.3971 5.02544ZM32.8454 9.233L31.4952 9.88648L31.498 9.89223L32.8454 9.233ZM33.3576 10.0695L34.5738 9.19149L34.5655 9.18012L34.5571 9.1689L33.3576 10.0695ZM34.4196 11.2476L33.4211 12.3669L33.4351 12.3794L33.4494 12.3915L34.4196 11.2476ZM34.8686 11.7599L36.13 10.9481L36.1295 10.9474L34.8686 11.7599ZM36.747 14.6786L38.0175 13.8811L38.013 13.874L38.0084 13.8668L36.747 14.6786ZM36.92 14.9142L35.7789 15.8878L35.7849 15.8948L35.7909 15.9017L36.92 14.9142ZM37.4912 15.9793L38.9384 15.5849L38.938 15.5834L37.4912 15.9793ZM34.3228 28.2653L33.7031 26.8993L33.6935 26.9037L34.3228 28.2653ZM33.9487 28.4006V29.9006H34.1452L34.3351 29.8499L33.9487 28.4006ZM33.9143 28.4103L34.3602 29.8425L34.3905 29.8331L34.4204 29.8224L33.9143 28.4103ZM33.3562 29.1074L34.8489 29.256L34.8501 29.243L33.3562 29.1074ZM26.8288 30.8053C26.0313 30.5807 25.2029 31.0451 24.9783 31.8426C24.7538 32.64 25.2182 33.4684 26.0156 33.693L26.8288 30.8053ZM24.273 35.2031C24.3787 35.2158 24.4266 35.2393 24.3871 35.2244C24.3629 35.2152 24.3231 35.198 24.2717 35.1726C24.2227 35.1485 24.1769 35.1239 24.1433 35.1051C24.1269 35.096 24.1146 35.0889 24.1075 35.0848C24.104 35.0827 24.1019 35.0815 24.1013 35.0811C24.101 35.081 24.1011 35.081 24.1016 35.0813C24.1019 35.0815 24.1022 35.0817 24.1027 35.082C24.1029 35.0821 24.1032 35.0823 24.1035 35.0824C24.1036 35.0825 24.1038 35.0826 24.1039 35.0827C24.104 35.0828 24.1041 35.0828 24.1042 35.0829C24.1043 35.0829 24.1044 35.083 23.3326 36.3692C22.5608 37.6554 22.561 37.6555 22.5611 37.6556C22.5611 37.6556 22.5613 37.6557 22.5614 37.6557C22.5615 37.6558 22.5617 37.656 22.5619 37.6561C22.5623 37.6563 22.5628 37.6566 22.5632 37.6569C22.5642 37.6574 22.5652 37.6581 22.5664 37.6588C22.5688 37.6602 22.5716 37.6618 22.5749 37.6638C22.5815 37.6677 22.59 37.6727 22.6003 37.6787C22.6207 37.6905 22.6482 37.7063 22.6815 37.7248C22.747 37.7614 22.8393 37.8113 22.9457 37.8637C23.094 37.9368 23.4922 38.1307 23.9139 38.1815L24.273 35.2031ZM24.2776 35.2043C24.2765 35.2034 24.273 35.2 24.2704 35.1925L21.4382 36.1818C21.6229 36.7107 21.9508 37.1797 22.3877 37.5341L24.2776 35.2043ZM24.2683 35.1865C23.9741 34.3556 23.4392 33.0016 22.77 31.6362C22.1184 30.3069 21.2677 28.8157 20.3097 27.829L18.1572 29.9187C18.7673 30.5471 19.4486 31.6763 20.0762 32.9566C20.6861 34.201 21.1777 35.446 21.4403 36.1877L24.2683 35.1865ZM20.3079 27.8271C19.6154 27.1164 18.6787 26.6948 17.6853 26.6543L17.5632 29.6519C17.7837 29.6608 17.9972 29.7544 18.1591 29.9206L20.3079 27.8271ZM17.6888 26.6545C16.7426 26.6137 14.8948 26.4619 13.1817 25.9284C11.3832 25.3682 10.2297 24.5476 9.88628 23.5113L7.03858 24.455C7.86569 26.9508 10.2977 28.1723 12.2897 28.7927C14.3671 29.4397 16.515 29.6067 17.5597 29.6517L17.6888 26.6545ZM9.89026 23.5235C9.74468 23.0713 9.47068 22.6689 9.09867 22.368L7.21205 24.7005C7.12676 24.6315 7.06628 24.5413 7.0346 24.4428L9.89026 23.5235ZM9.09867 22.368C8.72639 22.0669 8.27273 21.8812 7.79332 21.837L7.51819 24.8244C7.40387 24.8139 7.29759 24.7697 7.21205 24.7005L9.09867 22.368ZM7.78222 21.836C7.07979 21.7766 5.86941 21.5642 4.7675 20.8927L3.20632 23.4544C4.85878 24.4615 6.58404 24.7454 7.52929 24.8254L7.78222 21.836ZM4.76731 20.8926C4.68482 20.8423 4.43942 20.5964 4.16669 19.8976C3.91491 19.2525 3.72203 18.4358 3.58209 17.5785C3.4438 16.7312 3.36552 15.8969 3.32448 15.2413C3.30404 14.9147 3.29317 14.6378 3.28849 14.432C3.28326 14.2015 3.28712 14.1121 3.28591 14.1283L0.29408 13.9071C0.263627 14.3191 0.312171 16.1679 0.621273 18.0618C0.777924 19.0215 1.01275 20.0679 1.37199 20.9884C1.71028 21.8551 2.2592 22.8774 3.2065 23.4546L4.76731 20.8926ZM3.2858 14.1298C3.36396 13.0867 4.10154 11.3071 5.39886 9.88601L3.18323 7.8634C1.53806 9.66556 0.432984 12.0531 0.294189 13.9057L3.2858 14.1298ZM5.3946 9.89066C5.66969 9.59185 5.98871 9.33984 6.33951 9.14333L4.87338 6.52599C4.24494 6.87802 3.67611 7.32799 3.18749 7.85874L5.3946 9.89066ZM6.34097 9.14251C6.85478 8.85394 7.63763 8.40474 8.4209 7.9054L6.80822 5.37573C6.09347 5.83139 5.36594 6.24936 4.87192 6.52681L6.34097 9.14251ZM8.42285 7.90416C9.03785 7.51076 9.58812 7.02348 10.0545 6.46022L7.74367 4.54704C7.4746 4.87204 7.15823 5.15183 6.80627 5.37697L8.42285 7.90416ZM10.0467 6.46951C10.1655 6.3284 10.5117 5.98952 11.3456 5.78532L10.6321 2.8714C9.17718 3.22765 8.27801 3.91208 7.75143 4.53775L10.0467 6.46951ZM11.3461 5.7852C12.3182 5.54684 14.2803 5.05412 16.4781 4.82924C18.7204 4.5998 20.9716 4.67768 22.6096 5.40083L23.8212 2.6564C21.4519 1.61037 18.5578 1.60077 16.1727 1.84482C13.7431 2.09343 11.5956 2.63517 10.6317 2.87151L11.3461 5.7852ZM22.5983 5.39579C22.941 5.55048 23.294 5.68086 23.6548 5.78594L24.4937 2.90563C24.2681 2.83993 24.0472 2.75835 23.8325 2.66144L22.5983 5.39579ZM23.6629 5.78829C24.3962 5.99736 25.8005 6.36024 27.2345 6.5166L27.5597 3.53428C26.3725 3.40483 25.1556 3.09433 24.4855 2.90328L23.6629 5.78829ZM27.2352 6.51667C27.763 6.57398 28.6274 6.95396 29.5413 7.65992C30.4351 8.35034 31.1545 9.18241 31.4952 9.88647L34.1956 8.57953C33.5924 7.33317 32.5089 6.16148 31.3752 5.28575C30.2616 4.42555 28.8738 3.67696 27.559 3.5342L27.2352 6.51667ZM31.498 9.89223C31.6837 10.2716 31.9046 10.6326 32.158 10.9701L34.5571 9.1689C34.4176 8.98302 34.2955 8.78376 34.1928 8.57377L31.498 9.89223ZM32.1414 10.9475C32.5157 11.4659 32.9447 11.9419 33.4211 12.3669L35.4182 10.1282C35.1045 9.84836 34.8213 9.53433 34.5738 9.19149L32.1414 10.9475ZM33.4494 12.3915C33.51 12.4429 33.5635 12.5037 33.6078 12.5725L36.1295 10.9474C35.9259 10.6314 35.6768 10.3469 35.3899 10.1036L33.4494 12.3915ZM33.6073 12.5717L35.4856 15.4903L38.0084 13.8668L36.13 10.9481L33.6073 12.5717ZM35.4765 15.476C35.5672 15.6204 35.6682 15.7581 35.7789 15.8878L38.0611 13.9406C38.0453 13.922 38.0307 13.9022 38.0175 13.8811L35.4765 15.476ZM35.7909 15.9017C35.9086 16.0363 35.9959 16.1981 36.0444 16.3753L38.938 15.5834C38.7705 14.9714 38.467 14.4045 38.0491 13.9267L35.7909 15.9017ZM36.044 16.3738C36.379 17.6027 36.8627 19.8689 36.6706 22.0534C36.4804 24.2165 35.6737 26.0053 33.7031 26.8993L34.9426 29.6313C38.2899 28.1127 39.4188 25.0482 39.6591 22.3162C39.8974 19.6057 39.3064 16.9351 38.9384 15.5849L36.044 16.3738ZM33.6935 26.9037C33.651 26.9234 33.607 26.9392 33.5622 26.9512L34.3351 29.8499C34.5469 29.7935 34.7533 29.7188 34.9521 29.6269L33.6935 26.9037ZM33.9487 26.9006C33.7039 26.9006 33.5185 26.9605 33.4573 26.9809C33.4212 26.9929 33.3922 27.0041 33.3876 27.0059C33.3741 27.011 33.3921 27.0041 33.4083 26.9982L34.4204 29.8224C34.4424 29.8145 34.4663 29.8053 34.4586 29.8082C34.4581 29.8084 34.4522 29.8106 34.4442 29.8136C34.436 29.8166 34.4228 29.8213 34.4062 29.8269C34.3565 29.8434 34.1824 29.9006 33.9487 29.9006V26.9006ZM33.4685 26.9781C33.0299 27.1146 32.6447 27.3794 32.3599 27.7351L34.7017 29.6102C34.6157 29.7176 34.4975 29.7998 34.3602 29.8425L33.4685 26.9781ZM32.3599 27.7351C32.0754 28.0905 31.9032 28.5211 31.8623 28.9718L34.8501 29.243C34.8381 29.3751 34.7875 29.503 34.7017 29.6102L32.3599 27.7351ZM31.8636 28.9588C31.782 29.7783 31.8192 30.3618 31.4169 30.8025C31.1837 31.0579 30.2414 31.7662 26.8288 30.8053L26.0156 33.693C29.7327 34.7396 32.2065 34.3873 33.6326 32.8251C34.8894 31.4482 34.8288 29.457 34.8488 29.256L31.8636 28.9588Z" fill="url(#paint0_angular_752_5169)"/>
<defs>
<radialGradient id="paint0_angular_752_5169" cx="0" cy="0" r="1" gradientUnits="userSpaceOnUse" gradientTransform="translate(19.9999 20) rotate(155.493) scale(13.3452 14.0447)">
<stop offset="0.762431" stop-color="#46304B"/>
<stop offset="0.763374" stop-color="#AB85B0"/>
</radialGradient>
</defs>
</svg>
