<?xml version="1.0" encoding="utf-8"?>
<!-- Generator: Adobe Illustrator 26.3.1, SVG Export Plug-In . SVG Version: 6.00 Build 0)  -->
<svg version="1.1" id="Layer_1" xmlns="http://www.w3.org/2000/svg" xmlns:xlink="http://www.w3.org/1999/xlink" x="0px" y="0px"
	 viewBox="0 0 80 80" style="enable-background:new 0 0 80 80;" xml:space="preserve">
<style type="text/css">
	.clipart_better-sleep-st0{fill-rule:evenodd;clip-rule:evenodd;fill:#868686;}
	.clipart_better-sleep-st1{fill:#C8C5C8;}
	.clipart_better-sleep-st2{fill:#C96A57;}
	.clipart_better-sleep-st3{fill:#896A58;}
	.clipart_better-sleep-st4{fill:#231825;}
	.clipart_better-sleep-st5{fill:#BA5050;}
	.clipart_better-sleep-st6{fill:#EDBB32;}
	.clipart_better-sleep-st7{fill:#160B07;}
	.clipart_better-sleep-st8{fill:#4E7FAD;}
	.clipart_better-sleep-st9{fill:#5EB2BF;}
</style>
<path class="clipart_better-sleep-st0" d="M5.4,39c-0.9,0-1.7-0.3-2.3-1c-0.6-0.6-1-1.5-1-2.3s0.3-1.7,1-2.3c0.6-0.6,1.5-1,2.3-1c0.6,0,1.1,0.2,1.6,0.5
	v-0.1c0-0.5,0.2-1.1,0.4-1.5c0.3-0.5,0.7-0.8,1.2-1.1c0.5-0.3,1-0.4,1.6-0.3c0.5,0,1.1,0.2,1.5,0.5c0.5-0.7,1.2-1.3,2-1.5
	c0.8-0.3,1.7-0.3,2.5-0.1c0.8,0.2,1.5,0.7,2,1.4c0.5,0.7,0.8,1.5,0.8,2.4v0.1c1.6,0.2,2.8,1.6,2.8,3.2c0,0.9-0.4,1.7-1,2.3
	s-1.4,1-2.3,1L5.4,39L5.4,39z M73.5,52H60c-0.9,0-1.7-0.4-2.3-1c-0.6-0.6-1-1.5-1-2.3c0-1.7,1.2-3.1,2.8-3.3v-0.1
	c0-0.9,0.3-1.7,0.8-2.4c0.5-0.7,1.2-1.2,2.1-1.5c0.8-0.2,1.7-0.2,2.5,0.1c0.8,0.3,1.5,0.8,2,1.6c0.5-0.3,1-0.5,1.5-0.5
	c0.6,0,1.1,0.1,1.6,0.3c0.5,0.3,0.9,0.6,1.2,1.1c0.3,0.5,0.4,1,0.4,1.6v0.1c0.5-0.3,1.1-0.5,1.7-0.5c0.9,0,1.7,0.4,2.4,1
	c0.6,0.6,1,1.5,1,2.4c0,0.9-0.4,1.7-1,2.4C75.1,51.6,74.3,51.9,73.5,52L73.5,52z M39.4,25.2c-0.5,0-1-0.2-1.4-0.6
	c-0.4-0.4-0.6-0.9-0.6-1.4c0-0.5,0.2-1,0.6-1.4c0.4-0.4,0.9-0.6,1.4-0.6c0.3,0,0.7,0.1,1,0.3v-0.1c0-0.3,0.1-0.6,0.3-0.9
	c0.2-0.3,0.4-0.5,0.7-0.7c0.3-0.2,0.6-0.2,0.9-0.2c0.3,0,0.6,0.1,0.9,0.3c0.3-0.4,0.7-0.8,1.2-0.9c0.5-0.2,1-0.2,1.5,0
	c0.5,0.1,0.9,0.4,1.2,0.9c0.3,0.4,0.5,0.9,0.5,1.4v0c0.5,0.1,0.9,0.3,1.2,0.7c0.3,0.4,0.5,0.8,0.5,1.3c0,0.5-0.2,1-0.6,1.4
	c-0.4,0.4-0.9,0.6-1.4,0.6L39.4,25.2L39.4,25.2z"/>
<path class="clipart_better-sleep-st1" d="M55.8,27.4c0-0.4,0.2-0.8,0.4-1c0.3-0.3,0.6-0.4,1-0.4c-0.2,0-0.4,0-0.6-0.1c-0.2-0.1-0.3-0.2-0.5-0.3
	c-0.1-0.1-0.2-0.3-0.3-0.5c-0.1-0.2-0.1-0.4-0.1-0.6c0,0.4-0.2,0.8-0.4,1c-0.3,0.3-0.6,0.4-1,0.4c0.4,0,0.8,0.2,1,0.4
	C55.7,26.7,55.8,27.1,55.8,27.4z M12.9,45.2c0-0.4,0.2-0.8,0.4-1c0.3-0.3,0.6-0.4,1-0.4c-0.2,0-0.4,0-0.6-0.1
	c-0.2-0.1-0.3-0.2-0.5-0.3c-0.1-0.1-0.2-0.3-0.3-0.5c-0.1-0.2-0.1-0.4-0.1-0.6c0,0.4-0.2,0.8-0.4,1c-0.3,0.3-0.6,0.4-1,0.4
	c0.4,0,0.8,0.2,1,0.4C12.8,44.4,12.9,44.8,12.9,45.2z M20.7,57.5c0-0.4,0.2-0.8,0.4-1c0.3-0.3,0.6-0.4,1-0.4c-0.2,0-0.4,0-0.6-0.1
	c-0.2-0.1-0.3-0.2-0.5-0.3c-0.1-0.1-0.2-0.3-0.3-0.5c-0.1-0.2-0.1-0.4-0.1-0.6c0,0.4-0.2,0.8-0.4,1c-0.3,0.3-0.6,0.4-1,0.4
	c0.4,0,0.8,0.2,1,0.4C20.5,56.7,20.7,57.1,20.7,57.5z M28.6,37.4c0-0.4,0.2-0.8,0.4-1c0.3-0.3,0.6-0.4,1-0.4c-0.2,0-0.4,0-0.6-0.1
	c-0.2-0.1-0.3-0.2-0.5-0.3c-0.1-0.1-0.2-0.3-0.3-0.5c-0.1-0.2-0.1-0.4-0.1-0.6c0,0.4-0.2,0.8-0.4,1c-0.3,0.3-0.6,0.4-1,0.4
	c0.4,0,0.8,0.2,1,0.4C28.4,36.6,28.6,37,28.6,37.4z M65.3,39.8c0-0.4,0.2-0.8,0.4-1c0.3-0.3,0.6-0.4,1-0.4c-0.2,0-0.4,0-0.6-0.1
	c-0.2-0.1-0.3-0.2-0.5-0.3c-0.1-0.1-0.2-0.3-0.3-0.5c-0.1-0.2-0.1-0.4-0.1-0.6c0,0.4-0.2,0.8-0.4,1c-0.3,0.3-0.6,0.4-1,0.4
	c0.4,0,0.8,0.2,1,0.4C65.1,39.1,65.3,39.5,65.3,39.8z M52.8,50.5c0-0.4,0.2-0.8,0.4-1c0.3-0.3,0.6-0.4,1-0.4c-0.2,0-0.4,0-0.6-0.1
	c-0.2-0.1-0.3-0.2-0.5-0.3c-0.1-0.1-0.2-0.3-0.3-0.5c-0.1-0.2-0.1-0.4-0.1-0.6c0,0.4-0.2,0.8-0.4,1c-0.3,0.3-0.6,0.4-1,0.4
	c0.4,0,0.8,0.2,1,0.4C52.7,49.8,52.8,50.1,52.8,50.5z M32.4,21.6c0-0.4,0.2-0.8,0.4-1c0.3-0.3,0.6-0.4,1-0.4c-0.2,0-0.4,0-0.6-0.1
	c-0.2-0.1-0.3-0.2-0.5-0.3c-0.1-0.1-0.2-0.3-0.3-0.5c-0.1-0.2-0.1-0.4-0.1-0.6c0,0.4-0.2,0.8-0.4,1c-0.3,0.3-0.6,0.4-1,0.4
	c0.4,0,0.8,0.2,1,0.4C32.2,20.9,32.4,21.3,32.4,21.6z M14.5,36.7c0.6,0,0.6-0.9,0-0.9C14,35.8,14,36.7,14.5,36.7z M28.1,26.9
	c0.6,0,0.6-0.9,0-0.9C27.6,26,27.6,26.9,28.1,26.9z M17.3,26.2c0.6,0,0.6-0.9,0-0.9C16.7,25.4,16.7,26.2,17.3,26.2z M44.7,16.2
	c0.6,0,0.6-0.9,0-0.9C44.1,15.3,44.1,16.2,44.7,16.2z M10,54.8c0.6,0,0.6-0.9,0-0.9C9.5,54,9.5,54.8,10,54.8z M65,21.2
	c0.6,0,0.6-0.9,0-0.9C64.5,20.3,64.5,21.2,65,21.2z M47.9,34.3c0.6,0,0.6-0.9,0-0.9C47.3,33.4,47.3,34.3,47.9,34.3z M55.6,19.3
	c0.6,0,0.6-0.9,0-0.9C55,18.5,55,19.3,55.6,19.3z M55,41c0.6,0,0.6-0.9,0-0.9C54.5,40.2,54.5,41,55,41z M21,41c0.6,0,0.6-0.9,0-0.9
	C20.5,40.2,20.5,41,21,41z M33.5,55.8c0.6,0,0.6-0.9,0-0.9C32.9,55,32.9,55.8,33.5,55.8z M60.4,31.4c0.6,0,0.6-0.9,0-0.9
	C59.8,30.5,59.8,31.4,60.4,31.4z M39.1,48.1c0.6,0,0.6-0.9,0-0.9C38.6,47.2,38.6,48.1,39.1,48.1z"/>
<path class="clipart_better-sleep-st2" d="M30.5,40.9c-0.4-0.4-0.7-0.8-1-1.2c-0.1-0.1-0.2-0.1-0.2,0.1c0,0.2,0.1,0.4,0.2,0.5c0.1,0.2,0.3,0.6-0.2,0.4
	c-0.4-0.2-1.1-0.4-1.6-0.6c0,0-0.1,0-0.1,0c0,0-0.1,0-0.1,0.1c0,0,0,0.1,0,0.1c0,0,0,0.1,0,0.1c0.4,0.3,0.7,0.5,1.1,0.7
	c-1.1-0.2-1.5-0.5-1.6-0.2c0,0.1,1.1,0.6,1.1,0.6s-0.9-0.2-1,0c-0.1,0.3,1.6,0.6,1.6,0.6c-0.8,0.2-1.1,0.3-1,0.4
	c0.2,0.1,1.9-0.2,2.9,0.1l6.7,1.4c0.2,0,0.4,0,0.6,0c0.2,0,0.4-0.1,0.5-0.2l3.4-2.5l-1.3-1.8l-2.9,2.1c-0.3,0.2-0.6,0.3-0.9,0.3
	l-5.3-0.5C31.1,41.3,30.8,41.2,30.5,40.9z"/>
<path class="clipart_better-sleep-st2" d="M28.9,41.7c-0.1,0-0.3,0-0.4,0c-0.1,0-0.2-0.1-0.4-0.1c0.1,0,0.3,0,0.4,0C28.7,41.5,28.8,41.6,28.9,41.7z
	 M29.7,41.3c0,0.1,0,0.2,0,0.3c0,0.1,0,0.2-0.1,0.2c0,0.1-0.1,0.2-0.1,0.2c-0.1,0.1-0.1,0.1-0.2,0.1c0.1-0.1,0.2-0.3,0.2-0.4
	C29.6,41.6,29.6,41.4,29.7,41.3z"/>
<path class="clipart_better-sleep-st2" d="M19.4,58.3l-1.1,0.4c0,0-2-1-3.3-2.9c0,0-0.6-0.5-1-0.3l2.9,6.1l2.3-1.1l1.4-0.6L19.4,58.3z"/>
<path class="clipart_better-sleep-st3" d="M14.4,55.5l2.8,6c0,0,0,0,0,0.1c0,0,0,0,0,0.1c0,0,0,0,0,0.1c0,0,0,0-0.1,0l0,0c0,0,0,0-0.1,0c0,0,0,0-0.1,0
	c0,0,0,0-0.1,0c0,0,0,0,0-0.1L14,55.5C14,55.5,14.1,55.2,14.4,55.5z"/>
<path class="clipart_better-sleep-st3" d="M16.1,57c0.1,0.1,0.1,0.2,0.2,0.3c0,0.1,0,0.3-0.1,0.4c0,0.1-0.1,0.1-0.2,0.1c-0.1,0-0.1,0.1-0.2,0.1
	c-0.1,0-0.1,0-0.2,0c-0.1,0-0.1-0.1-0.2-0.1c0.1-0.1,0.2-0.1,0.2-0.2c0,0,0.1-0.1,0.1-0.1c0,0,0.1-0.1,0.1-0.2
	C15.9,57.2,16,57.1,16.1,57z M18.4,58.7c0,0.2,0,0.4,0,0.6c0,0.2,0.1,0.3,0.1,0.5c0.1,0.2,0.2,0.3,0.3,0.4c0.1,0.1,0.1,0.1,0.2,0.2
	c0.1,0.1,0.2,0.1,0.2,0.2c-0.1,0-0.2,0-0.3,0c-0.1,0-0.2-0.1-0.3-0.1c-0.2-0.1-0.4-0.3-0.5-0.5c-0.1-0.2-0.1-0.5-0.1-0.7
	C18.1,59.1,18.2,58.9,18.4,58.7z"/>
<path class="clipart_better-sleep-st2" d="M26.4,60.6l-0.2,0.1c0,0-2,1.1-3.2,3c0,0-0.6,0.5-1,0.3l2.6-6.2l2.3,1.1l0.5,0.2L26.4,60.6z"/>
<path class="clipart_better-sleep-st3" d="M22.3,64l2.6-6.1c0,0,0,0,0-0.1c0,0,0,0,0-0.1c0,0,0,0,0-0.1s0,0-0.1,0l0,0c0,0,0,0-0.1,0c0,0,0,0-0.1,0
	c0,0,0,0-0.1,0c0,0,0,0,0,0.1l-2.7,6.2C21.9,64.1,22.1,64.4,22.3,64z"/>
<path class="clipart_better-sleep-st3" d="M23.9,62.5c0.1-0.1,0.1-0.2,0.1-0.3c0-0.1,0-0.3-0.1-0.4c0-0.1-0.1-0.1-0.2-0.1c-0.1,0-0.1,0-0.2-0.1
	c-0.1,0-0.1,0-0.2,0c-0.1,0-0.1,0.1-0.1,0.1c0.1,0.1,0.2,0.1,0.2,0.2c0,0,0.1,0.1,0.1,0.1c0,0,0.1,0.1,0.1,0.2
	C23.8,62.3,23.9,62.4,23.9,62.5z M26.2,60.7c0-0.2,0-0.4,0-0.6c0-0.2,0-0.3,0.1-0.5c0.1-0.2,0.1-0.3,0.3-0.4
	c0.1-0.1,0.3-0.2,0.4-0.3c-0.1,0-0.5,0-0.6,0.1c-0.2,0.1-0.4,0.3-0.5,0.5c-0.1,0.2-0.1,0.5,0,0.7C25.9,60.4,26,60.6,26.2,60.7z"/>
<path class="clipart_better-sleep-st4" d="M56.5,34.8c0.3-0.9-0.1-2.8-1.8-2.6c-0.7,0.1-0.5,0.6-1.6,0.8c0,0,0,0,0,0c-0.6,0.1-1.2,0-1.7-0.4
	c-0.1-0.1-0.2-0.1-0.3-0.2c-0.4-0.2-0.9-0.4-1.4-0.4c-0.4,0-2.1-0.1-2.8,1c-0.9,1.2-0.2,3.4,0.9,4.2c0.2,0.1,0.4,0.2,0.6,0.3
	c-0.7,0.1-1.4,0.4-2.1,0.8c0.2,4.8,7.3,0.8,8.1,0C55.3,37.2,56.2,35.6,56.5,34.8z"/>
<path class="clipart_better-sleep-st5" d="M42.9,41.1L42.9,41.1l0.2-1.3l0.1,0L42.9,41.1z"/>
<path class="clipart_better-sleep-st5" d="M49.5,42.4L49,43.8l0.1,0L49.5,42.4L49.5,42.4z"/>
<path class="clipart_better-sleep-st6" d="M18.5,58.7l7-3.1c0,0,3.4,0.5,3.1,2l-8.5,2.7C19.4,59.9,18.9,59.4,18.5,58.7z M29.9,59.9l4.6,1.1
	c0.1-0.4,0.2-0.7,0.5-1c0.3-0.4,2.4,0.2,2.6,2.5c0,0-1.3,2-2.7,1.7c-1.4-0.4-8.4-3.6-8.4-3.6s0-1.4,1-1.6L29.9,59.9z"/>
<path class="clipart_better-sleep-st2" d="M49.1,37l-0.4,1.2c-0.1,0.2-0.1,0.3,0,0.5c0.1,0.2,0.2,0.3,0.3,0.4l1.4,1c0,0,0,0,0,0c0,0,0,0,0,0
	c0,0.2-2.1,1.1-3.9,0.6c-1.9-0.5-3.3-2.5-3.3-2.5s3.1,0.2,3.2-1.4L49.1,37z"/>
<path class="clipart_better-sleep-st2" d="M46.5,37c0,0,0.6,0.9,1.8,0.5c0,0-0.8,1.2-2.2,0.3c0.1-0.1,0.2-0.2,0.3-0.3C46.4,37.3,46.5,37.2,46.5,37z"/>
<path class="clipart_better-sleep-st2" d="M46.7,33.8c0.8-1.4,2.3-2,3.2-1.5c0.7,0.4,0.9,1.5,0.6,2.6c0,0,0.1,0,0.1,0c0,0,0.1,0,0.1,0.1
	c0.2,0.2,0.1,0.6-0.2,1c-0.3,0.3-0.6,0.5-0.8,0.4c-0.8,1-2,1.4-2.8,0.9C45.9,36.8,45.8,35.2,46.7,33.8z"/>
<path class="clipart_better-sleep-st7" d="M49.4,35.1C49.4,35.1,49.4,35.1,49.4,35.1C49.5,35.1,49.5,35.1,49.4,35.1C49.5,35.1,49.5,35,49.4,35.1
	c0.1-0.1,0.1-0.1,0.1-0.1c0,0-0.3-0.7-0.9-0.8c0,0,0,0,0,0c0,0,0,0,0,0c0,0,0,0,0,0c0,0,0,0,0,0c0,0,0,0,0,0c0,0,0,0,0,0
	c0,0,0,0,0,0c0,0,0,0,0,0C49.1,34.5,49.3,35,49.4,35.1C49.3,35.1,49.4,35.1,49.4,35.1C49.4,35.1,49.4,35.1,49.4,35.1z M47.7,33.9
	C47.7,33.9,47.7,33.9,47.7,33.9C47.8,33.9,47.8,33.9,47.7,33.9C47.8,33.8,47.8,33.8,47.7,33.9c0.1-0.1,0.1-0.1,0.1-0.1
	c-0.2-0.2-0.5-0.3-0.9-0.3c0,0,0,0-0.1,0c0,0,0,0,0,0.1c0,0,0,0,0,0.1c0,0,0,0,0.1,0C47.2,33.6,47.4,33.7,47.7,33.9
	C47.7,33.9,47.7,33.9,47.7,33.9z M46.7,33.9c0,0.1,0.1,0.2,0.1,0.3c0.1,0.1,0.1,0.2,0.2,0.2c0.1,0.1,0.2,0.1,0.3,0.1
	c0.1,0,0.2,0,0.3-0.1c-0.1,0-0.2,0-0.3,0c-0.1,0-0.2-0.1-0.3-0.1c-0.1-0.1-0.1-0.1-0.2-0.2C46.8,34.1,46.7,34,46.7,33.9z M48.2,34.7
	c0,0.1,0.1,0.2,0.1,0.3c0.1,0.1,0.1,0.2,0.2,0.2c0.1,0.1,0.2,0.1,0.3,0.1c0.1,0,0.2,0,0.3-0.1c-0.1,0-0.2,0-0.3,0
	c-0.1,0-0.2-0.1-0.3-0.1c-0.1-0.1-0.1-0.1-0.2-0.2C48.3,34.9,48.3,34.8,48.2,34.7z"/>
<path class="clipart_better-sleep-st5" d="M48,36.5c0,0-1.1,0.2-1.4-0.6L48,36.5z"/>
<path class="clipart_better-sleep-st4" d="M49,32.3c0.2,0.1,0.3,0.3,0.4,0.8c0.2,0.8,0.2,1.8,0.5,2.1c0,0,0.1,0.1,0.1,0.1c0.1,0,0.2-0.1,0.5-0.3
	c0.2-0.1,0.2-0.2,0.3-0.2c0.2-0.2,0.3-0.4,0.4-0.6c0.1-0.2,0.1-0.5,0.1-0.7c-0.1-0.4-0.3-0.8-0.6-1c-0.6-0.6-1.5-0.6-1.7-0.6
	c-1.3,0-2.1,1-2.1,1C47,33,48.3,31.9,49,32.3z"/>
<path class="clipart_better-sleep-st2" d="M47.9,34.2c0,0.2-0.1,0.4-0.2,0.5c-0.1,0.2-0.2,0.3-0.4,0.4c-0.1,0.1-0.2,0.1-0.2,0.2c0,0.1,0,0.2,0.1,0.2
	c0.1,0.1,0.1,0.1,0.2,0.2c0.1,0,0.2,0.1,0.3,0.1c-0.1,0-0.2,0-0.3,0c-0.1,0-0.2-0.1-0.2-0.2c0,0-0.1-0.1-0.1-0.1c0-0.1,0-0.1,0-0.2
	c0-0.1,0-0.1,0.1-0.1l0.1-0.1c0.1-0.1,0.3-0.2,0.4-0.4C47.8,34.5,47.9,34.3,47.9,34.2z M50.6,35.5c0-0.1,0-0.1-0.1-0.2
	c0,0,0,0-0.1-0.1c0,0,0,0-0.1,0c-0.1,0-0.1,0-0.2,0.1c-0.1,0-0.1,0.1-0.2,0.1c0-0.1,0.1-0.1,0.1-0.2c0.1-0.1,0.1-0.1,0.2-0.1
	c0,0,0,0,0.1,0c0,0,0,0,0.1,0c0,0,0.1,0.1,0.1,0.1C50.6,35.4,50.6,35.4,50.6,35.5z"/>
<path class="clipart_better-sleep-st2" d="M50.2,35.9c0-0.1,0-0.1,0-0.2c0-0.1,0-0.1,0.1-0.2c0-0.1,0.1-0.1,0.1-0.2l0.1-0.1c0,0,0,0,0.1-0.1
	c-0.1,0.1-0.1,0.2-0.2,0.3c0,0.1-0.1,0.1-0.1,0.2C50.2,35.8,50.2,35.8,50.2,35.9z"/>
<path class="clipart_better-sleep-st8" d="M45.8,37.9c0,0-2.6-1.3-5.5,1.6l1.5,2.1l-0.4,1.6c-0.1,0.6-0.4,1.3-0.8,1.8s-0.9,1-1.5,1.3
	c-1.8,1-4.8,2.8-7.3,4.8c-4.1,3.3-8,3.1-8,3.1s4.3,4,10.4,5.5c0,0,1.9,0,3.8,3.5c0,0,5.9-4.2,8.5-14.6c0.1-0.5,0.3-0.9,0.6-1.3
	l2-2.7l2.4,0.5c0.1-1,0.1-2,0.1-2.9c0-0.4-0.1-0.8-0.3-1.2c-0.2-0.4-0.5-0.7-0.8-1l-1.8-1.4c-0.3,0.9-1.3,1.3-2,1
	C45.9,39.5,45.6,38.7,45.8,37.9z"/>
<path class="clipart_better-sleep-st2" d="M53.1,55.3c0.5,0.2,0.9,0.4,1.4,0.6c0.2,0.1,0.2,0.2,0,0.3c-0.2,0-0.4,0.1-0.6,0c-0.2,0-0.7-0.1-0.3,0.3
	c0.3,0.4,0.8,0.9,1.1,1.3c0,0,0,0.1,0,0.1c0,0,0,0.1,0,0.1c0,0,0,0-0.1,0c0,0-0.1,0-0.1,0c-0.4-0.2-0.7-0.5-1-0.8
	c0.6,0.9,0.9,1.3,0.7,1.5c-0.1,0.1-0.9-0.9-0.9-0.9s0.5,0.8,0.4,1c-0.2,0.2-1.1-1.3-1.1-1.3c0.1,0.8,0.1,1.1-0.1,1
	c-0.2-0.1-0.4-1.9-1-2.8L48,49.7c-0.1-0.2-0.2-0.3-0.2-0.5c0-0.2,0-0.4,0.1-0.6l1.3-4l2.1,0.6l-1,3.4c-0.1,0.3-0.1,0.6,0,0.9
	l2.1,4.9C52.6,54.8,52.8,55.1,53.1,55.3z"/>
<path class="clipart_better-sleep-st2" d="M52.9,57c0.1,0.1,0.2,0.2,0.3,0.3c0.1,0.1,0.1,0.2,0.1,0.4c-0.1-0.1-0.2-0.2-0.3-0.3C53,57.3,53,57.2,52.9,57z
	 M53.1,56.1c-0.1,0.1-0.3,0.2-0.4,0.3c-0.1,0.1-0.2,0.2-0.3,0.4c0-0.1,0-0.2,0.1-0.3c0-0.1,0.1-0.1,0.2-0.2c0.1-0.1,0.1-0.1,0.2-0.1
	C52.9,56.2,53,56.2,53.1,56.1z"/>
<path class="clipart_better-sleep-st9" d="M41.9,40.5l-0.2,1l0.1,0l0.2-1L41.9,40.5z"/>
<path class="clipart_better-sleep-st9" d="M43.7,43.8c-0.1,0-0.2,0-0.3-0.1c-0.6-0.2-0.9-1.2-1-1.3l0.1,0c0,0,0.3,1,0.9,1.2c0.1,0,0.2,0.1,0.3,0
	c0.1,0,0.2,0,0.3-0.1l0.1,0.1C44,43.8,43.9,43.8,43.7,43.8z M46.9,45.2C46.9,45.2,46.9,45.2,46.9,45.2c-0.8-0.1-1.3-1-1.3-1l0.1-0.1
	c0,0,0.5,0.9,1.1,0.9c0.1,0,0.2,0,0.3,0c0.1,0,0.2-0.1,0.3-0.2l0.1,0.1c-0.1,0.1-0.2,0.1-0.3,0.2C47.1,45.2,47,45.2,46.9,45.2z"/>
<path class="clipart_better-sleep-st5" d="M48.3,34c0.1,0,0.1,0,0.1-0.1c0,0,0.1-0.1,0.1-0.2c0-0.1,0-0.1-0.1-0.2c0,0-0.1-0.1-0.1-0.1
	c-0.1,0-0.1,0-0.1,0.1c0,0-0.1,0.1-0.1,0.2c0,0.1,0,0.1,0.1,0.2C48.1,34,48.2,34,48.3,34z M49.9,36.9c0.6,0,0.6-0.9,0-0.9
	C49.3,36,49.3,36.9,49.9,36.9z"/>
</svg>
