<svg width="263" height="286" viewBox="0 0 263 286" fill="none" xmlns="http://www.w3.org/2000/svg">
<path d="M226.221 161.819C227.515 165.754 232.401 171.88 241.593 164.901C250.786 157.922 253.513 144.868 253.728 139.214" stroke="black" stroke-width="2.4323" stroke-linecap="round"/>
<path d="M251.526 148.763C252.817 148.746 255.898 146.778 257.898 139.04" stroke="black" stroke-width="2.4323" stroke-linecap="round"/>
<path d="M252.701 144.339C252.324 142.549 250.611 139.73 246.764 142.781" stroke="black" stroke-width="2.4323" stroke-linecap="round"/>
<path d="M252.827 145.84C252.317 147.597 250.396 150.279 246.79 146.946" stroke="black" stroke-width="2.4323" stroke-linecap="round"/>
<path d="M37.1658 157.212C35.8719 161.147 30.9861 167.273 21.7938 160.294C12.6016 153.316 9.87385 140.262 9.65899 134.607" stroke="black" stroke-width="2.4323" stroke-linecap="round"/>
<path d="M11.8602 144.158C10.5693 144.141 7.48762 142.173 5.48813 134.435" stroke="black" stroke-width="2.4323" stroke-linecap="round"/>
<path d="M10.6867 139.733C11.0628 137.942 12.7766 135.123 16.6232 138.175" stroke="black" stroke-width="2.4323" stroke-linecap="round"/>
<path d="M10.5606 141.233C11.0705 142.991 12.9917 145.672 16.5976 142.34" stroke="black" stroke-width="2.4323" stroke-linecap="round"/>
<ellipse cx="134.319" cy="246.764" rx="81.6585" ry="8.23447" fill="url(#paint0_radial_1078_53814)"/>
<path d="M109.616 194.612C109.243 200.678 110.062 218.706 123.7 212.033" stroke="black" stroke-width="2.4323" stroke-linecap="round"/>
<path d="M123.096 209.947C125.783 209.061 127.202 209.644 127.809 217.856C128.144 222.391 126.271 226.226 123.625 226.422C120.979 226.617 118.563 223.099 118.228 218.564C117.893 214.028 120.577 210.778 123.096 209.947Z" fill="#212121"/>
<path d="M109.616 194.612C109.243 200.678 110.062 218.706 123.7 212.033" stroke="black" stroke-width="2.4323" stroke-linecap="round"/>
<path d="M123.096 209.947C125.783 209.061 127.202 209.644 127.809 217.856C128.144 222.391 126.271 226.226 123.625 226.422C120.979 226.617 118.563 223.099 118.228 218.564C117.893 214.028 120.577 210.778 123.096 209.947Z" fill="#212121"/>
<path d="M153.616 194.611C153.99 200.678 153.17 218.706 139.532 212.032" stroke="black" stroke-width="2.4323" stroke-linecap="round"/>
<path d="M140.137 209.946C137.45 209.059 136.031 209.642 135.424 217.854C135.089 222.39 136.962 226.225 139.608 226.42C142.254 226.616 144.67 223.097 145.005 218.562C145.34 214.027 142.656 210.777 140.137 209.946Z" fill="#212121"/>
<path fill-rule="evenodd" clip-rule="evenodd" d="M174.213 193.24C183.061 193.24 190.609 187.147 193.555 178.58C196.858 180.069 200.475 180.89 204.267 180.89C219.829 180.89 232.445 167.064 232.445 150.01C232.445 132.972 219.853 119.157 204.311 119.131C206.278 115.273 207.399 110.827 207.399 106.094C207.399 91.3137 196.466 79.332 182.979 79.332C179.651 79.332 176.478 80.0615 173.587 81.3827C173.584 67.3636 163.212 56 150.419 56C141.926 56 134.501 61.0078 130.467 68.4758C126.475 62.572 120.07 58.7452 112.849 58.7452C101.458 58.7452 92.0969 68.2689 91.0339 80.4468C88.6083 79.72 86.055 79.332 83.419 79.332C67.5113 79.332 54.6155 93.4643 54.6155 110.897C54.6155 115.297 55.4369 119.486 56.9207 123.291C43.0715 124.117 32.0738 136.686 32.0738 152.069C32.0738 167.986 43.8482 180.889 58.3726 180.889C60.0176 180.889 61.6273 180.724 63.1886 180.407C67.4775 188.103 75.2138 193.241 84.0449 193.241C88.1504 193.241 92.0194 192.13 95.4153 190.169C99.8389 197.01 107.12 201.475 115.354 201.475C121.021 201.475 126.238 199.359 130.381 195.809C134.525 199.359 139.742 201.475 145.409 201.475C153.377 201.475 160.454 197.293 164.911 190.822C167.707 192.369 170.867 193.24 174.213 193.24Z" fill="#EA6699"/>
<path fill-rule="evenodd" clip-rule="evenodd" d="M173.003 177.705C180.736 177.705 187.431 173.191 190.677 166.614C192.837 166.975 195.08 167.165 197.381 167.165C214.672 167.165 228.689 156.413 228.689 143.148C228.689 129.884 214.672 119.131 197.381 119.131L197.26 119.131C201.949 115.239 204.895 109.609 204.895 103.348C204.895 91.5998 194.522 82.0758 181.727 82.0758C178.136 82.0758 174.735 82.8261 171.701 84.1653C172.16 82.3599 172.405 80.4666 172.405 78.5153C172.405 66.0805 162.486 56 150.25 56C142.129 56 135.029 60.4405 131.172 67.0627C127.354 61.8272 121.229 58.4337 114.324 58.4337C102.75 58.4337 93.3674 67.9693 93.3674 79.732C93.3674 80.8714 93.4555 81.99 93.625 83.081C91.181 82.4267 88.5969 82.0758 85.9238 82.0758C70.7078 82.0758 58.3727 93.4432 58.3727 107.465C58.3727 114.089 61.1249 120.12 65.6329 124.641C65.3017 124.627 64.9687 124.62 64.634 124.62C52.1845 124.62 42.0922 134.144 42.0922 145.892C42.0922 157.641 52.1845 167.165 64.634 167.165C65.5268 167.165 66.4074 167.116 67.273 167.021C71.4497 173.457 78.6275 177.704 86.7812 177.704C90.7066 177.704 94.4057 176.72 97.6527 174.981C101.883 181.048 108.846 185.008 116.719 185.008C122.139 185.008 127.127 183.131 131.09 179.983C135.053 183.131 140.041 185.008 145.461 185.008C153.08 185.008 159.847 181.299 164.109 175.561C166.783 176.933 169.804 177.705 173.003 177.705Z" fill="#FB85B2"/>
<path d="M99.3224 125.993L102.024 129.965C103.902 132.726 107.94 132.817 109.941 130.143L113.046 125.993" stroke="#212121" stroke-width="2.4323" stroke-linecap="round"/>
<path d="M151.474 125.993L154.176 129.965C156.054 132.726 160.092 132.817 162.093 130.143L165.198 125.993" stroke="#212121" stroke-width="2.4323" stroke-linecap="round"/>
<path fill-rule="evenodd" clip-rule="evenodd" d="M95.251 111.458C96.0206 110.555 94.7254 109.916 93.8228 110.658C88.7314 114.843 81.9505 114.358 78.6773 109.576C78.1992 108.877 76.9352 109.089 77.2274 109.903C77.5051 110.676 77.8774 111.415 78.3478 112.102C81.6211 116.885 88.402 117.369 93.4934 113.184C94.138 112.654 94.7246 112.075 95.251 111.458Z" fill="#EA6699"/>
<path fill-rule="evenodd" clip-rule="evenodd" d="M85.3636 150.773C86.1542 149.528 84.4574 149.01 83.4796 150.082C77.9185 156.181 69.5437 156.89 64.7738 151.666C64.0747 150.901 62.5503 151.368 63.0361 152.311C63.5023 153.217 64.0815 154.06 64.7751 154.819C69.5449 160.043 77.9198 159.334 83.4809 153.235C84.1884 152.459 84.8164 151.634 85.3636 150.773Z" fill="#EA6699"/>
<path fill-rule="evenodd" clip-rule="evenodd" d="M192.844 141.332C193.291 140.634 192.356 140.315 191.806 140.919C188.688 144.338 183.992 144.736 181.318 141.807C180.926 141.378 180.071 141.64 180.343 142.169C180.605 142.676 180.929 143.148 181.318 143.574C183.992 146.503 188.688 146.105 191.806 142.686C192.195 142.259 192.541 141.805 192.844 141.332Z" fill="#EA6699"/>
<path fill-rule="evenodd" clip-rule="evenodd" d="M184.118 111.856C185.156 111.73 184.85 110.77 183.815 110.78C177.517 110.844 172.673 107.692 172.995 103.739C173.043 103.149 172.146 102.447 171.86 102.987C171.528 103.612 171.325 104.269 171.269 104.947C170.948 108.9 175.792 112.053 182.089 111.989C182.778 111.982 183.457 111.936 184.118 111.856Z" fill="#EA6699"/>
<path fill-rule="evenodd" clip-rule="evenodd" d="M121.405 90.4711C120.39 91.2507 121.367 92.0814 122.457 91.4338C128.964 87.5672 136.046 88.0834 138.274 92.5869C138.607 93.2589 139.996 93.4098 139.936 92.6425C139.869 91.7899 139.655 90.9766 139.284 90.2266C137.056 85.7231 129.975 85.2068 123.468 89.0734C122.741 89.5053 122.052 89.9736 121.405 90.4711Z" fill="#EA6699"/>
<path fill-rule="evenodd" clip-rule="evenodd" d="M149.907 79.3727C150.91 79.5018 150.332 80.6978 149.32 80.7565C143.619 81.0874 139.198 85.5027 139.445 90.6184C139.481 91.3626 138.491 91.9702 138.269 91.261C138.059 90.5919 137.932 89.8892 137.896 89.1615C137.649 84.0458 142.071 79.6305 147.772 79.2996C148.501 79.2573 149.215 79.2838 149.907 79.3727Z" fill="#EA6699"/>
<circle cx="158.336" cy="127.367" r="18.7619" stroke="white" stroke-width="3.64845"/>
<circle cx="106.184" cy="127.367" r="18.7619" stroke="white" stroke-width="3.64845"/>
<rect x="124.025" y="125.995" width="16.4689" height="4.11724" fill="white"/>
<path d="M108.244 153.441C108.925 153.526 136.378 170.597 170.594 147.856C173.359 146.018 174.806 148.638 174.806 150.697" stroke="black" stroke-width="2.4323" stroke-linecap="round"/>
<path d="M127.288 259.739C127.998 259.253 128.851 259.968 128.741 260.821C128.674 261.345 128.641 261.874 128.641 262.403C128.641 269.121 133.993 274.567 140.595 274.567C141.503 274.567 142.388 274.464 143.238 274.269C144.076 274.076 144.882 274.85 144.479 275.61C142.458 279.416 138.503 282 133.954 282C127.352 282 122 276.554 122 269.837C122 265.63 124.098 261.923 127.288 259.739Z" fill="#EDBB32"/>
<path d="M139.041 260.376H145.244L138.603 265.782H145.244" stroke="#EDBB32" stroke-width="2" stroke-linecap="round" stroke-linejoin="round"/>
<path d="M232.379 84.4095C234.333 86.1833 247.442 78.3185 249.383 75.0056C250.315 73.4144 249.215 71.0797 247.416 69.2146C249.461 67.8451 251.259 72.1101 252.967 71.2101C253.744 70.7928 254.249 69.5015 253.873 68.7059C253.2 67.2973 250.962 67.2973 249.448 67.1277C250.522 66.8668 253.097 65.7582 253.149 64.1931C253.2 62.9931 251.686 61.6236 250.496 61.7671C248.93 61.9497 248.361 64.2191 247.83 65.6799C247.765 64.7539 247.571 62.7192 246.562 61.8323C245.216 60.6454 243.599 61.7671 243.56 63.2018C243.508 64.9365 247.209 65.9017 246.044 67.9885C244.077 66.4625 241.761 65.6278 240.273 66.5016C239.639 66.906 238.914 67.6885 238.164 68.7059C239.315 69.9319 240.907 71.4058 242.162 72.2536C242.421 72.4362 242.499 72.8014 242.305 73.0622C242.123 73.3361 241.761 73.4013 241.502 73.2187C240.221 72.3449 238.655 70.8971 237.491 69.6841C236.908 70.558 236.313 71.5492 235.757 72.5927C236.857 73.7144 238.254 74.9795 239.367 75.736C239.626 75.9186 239.691 76.2838 239.509 76.5447C239.328 76.8186 238.966 76.8838 238.694 76.7012C237.594 75.9447 236.287 74.7708 235.187 73.6752C232.897 78.2272 231.215 83.3661 232.379 84.4095Z" fill="#7B8A58"/>
<path d="M239.4 215.8C242.108 215.8 244.3 213.608 244.3 210.9C244.3 208.192 242.108 206 239.4 206C236.692 206 234.5 208.192 234.5 210.9C234.5 213.608 236.692 215.8 239.4 215.8ZM242.76 217.2H242.397C241.487 217.638 240.476 217.9 239.4 217.9C238.324 217.9 237.317 217.638 236.403 217.2H236.04C233.257 217.2 231 220.791 231 223.573V224.833C231 225.993 231.941 226.933 233.1 226.933H245.7C246.859 226.933 247.8 225.993 247.8 224.833V223.573C247.8 220.791 245.542 217.2 242.76 217.2ZM252 215.8C254.319 215.8 256.2 213.919 256.2 211.6C256.2 209.281 254.319 207.4 252 207.4C249.681 207.4 247.8 209.281 247.8 211.6C247.8 213.919 249.681 215.8 252 215.8ZM254.1 217.2H253.934C253.326 217.41 252.682 217.55 252 217.55C251.317 217.55 250.674 217.41 250.066 217.2H249.9C249.007 217.2 248.055 217.584 247.333 218C248.401 219.151 249.2 221.885 249.2 223.573V225.253C249.2 225.35 249.178 225.441 249.174 225.533H256.9C258.059 225.533 259 224.593 259 223.433C259 220.725 256.808 217.2 254.1 217.2Z" fill="#D98355"/>
<path d="M36 217.482C36 219.142 34.9927 220.487 33.75 220.487C32.2298 220.487 32.2631 218.985 31.1419 218.985C30.5109 218.985 30 219.497 30 220.131V226.497C30 227.327 29.3283 228 28.5 228H25.1419C24.5109 228 24 227.488 24 226.854C24 225.704 25.5 225.765 25.5 224.244C25.5 222.999 24.157 221.99 22.5 221.99C20.843 221.99 19.5 222.999 19.5 224.244C19.5 225.766 21 225.733 21 226.856C21 227.488 20.4891 228 19.8563 228H13.5C12.6717 228 12 227.327 12 226.497V220.131C12 219.497 12.5114 218.985 13.1419 218.985C14.2523 218.985 14.2312 220.487 15.75 220.487C16.9922 220.487 18 219.14 18 217.482C18 215.825 16.9922 214.435 15.75 214.435C14.2298 214.435 14.2631 215.938 13.1419 215.938C12.5114 215.938 12 215.468 12 214.834V211.47C12 210.641 12.6717 210.01 13.5 210.01H19.8563C20.4891 209.927 21 209.458 21 208.824C21 207.712 19.5 207.733 19.5 206.212C19.5 204.967 20.843 204 22.5 204C24.157 204 25.5 205.009 25.5 206.212C25.5 207.734 24 207.701 24 208.824C24 209.456 24.5114 209.968 25.1419 209.968H28.5C29.3283 209.968 30 210.641 30 211.428V214.792C30 215.423 30.5114 215.936 31.1419 215.936C32.2523 215.936 32.2313 214.433 33.75 214.433C34.9922 214.435 36 215.825 36 217.482Z" fill="#AA6CBC"/>
<path d="M122.927 14.9798L126.5 18.5533L135.22 9.83337L131.646 6.25993C131.451 6.06467 131.451 5.74808 131.646 5.55282L133.219 3.97982C133.313 3.88605 133.44 3.83337 133.573 3.83337C133.706 3.83337 133.833 3.88605 133.927 3.97982L135.146 5.19927L136.365 3.97982C136.561 3.78456 136.877 3.78456 137.073 3.97982L139.073 5.98027L140.292 4.76082C140.488 4.56556 140.804 4.56556 141 4.76082L142.573 6.33382C142.768 6.52908 142.768 6.84566 142.573 7.04093L141.353 8.26037L143.354 10.2608C143.549 10.4561 143.549 10.7727 143.354 10.9679L142.134 12.1874L143.354 13.4068C143.447 13.5006 143.5 13.6278 143.5 13.7604C143.5 13.893 143.447 14.0202 143.354 14.1139L141.781 15.6869C141.585 15.8822 141.269 15.8822 141.073 15.6869L137.5 12.1135L128.78 20.8334L132.354 24.4068C132.447 24.5006 132.5 24.6278 132.5 24.7604C132.5 24.893 132.447 25.0202 132.354 25.1139L130.781 26.6869C130.687 26.7807 130.56 26.8334 130.427 26.8334C130.294 26.8334 130.167 26.7807 130.073 26.6869L128.854 25.4675L127.635 26.6869C127.439 26.8822 127.123 26.8822 126.927 26.6869L124.927 24.6865L123.708 25.9059C123.512 26.1012 123.196 26.1012 123 25.9059L121.427 24.3329C121.232 24.1377 121.232 23.8211 121.427 23.6258L122.647 22.4064L120.646 20.4059C120.451 20.2107 120.451 19.8941 120.646 19.6988L121.866 18.4794L120.646 17.2599C120.553 17.1662 120.5 17.039 120.5 16.9064C120.5 16.7738 120.553 16.6466 120.646 16.5528L122.219 14.9798C122.313 14.8861 122.44 14.8334 122.573 14.8334C122.706 14.8334 122.833 14.8861 122.927 14.9798Z" fill="#BA5050" stroke="#BA5050" stroke-linejoin="round"/>
<path d="M21 60.3334C22.48 60.3334 23.6667 61.52 23.6667 63C23.6667 64.48 22.48 65.6667 21 65.6667C19.52 65.6667 18.3333 64.48 18.3333 63C18.3333 61.52 19.5333 60.3334 21 60.3334ZM33 76.3334V73.6667C30.0133 73.6667 27.4533 72.3867 25.5333 70.0934L23.7467 67.96C23.4986 67.6593 23.187 67.4173 22.8343 67.2513C22.4816 67.0853 22.0965 66.9995 21.7067 67H20.3333C19.52 67 18.7733 67.3467 18.2667 67.96L16.48 70.0934C14.5467 72.3867 11.9867 73.6667 9 73.6667V76.3334C12.6933 76.3334 15.92 74.7734 18.3333 72V75L13.16 77.0667C12.2667 77.4267 11.6667 78.3334 11.6667 79.28C11.6667 80.6 12.7333 81.6667 14.0533 81.6667H17V81C17 80.116 17.3512 79.2681 17.9763 78.643C18.6014 78.0179 19.4493 77.6667 20.3333 77.6667H24.3333C24.7067 77.6667 25 77.96 25 78.3334C25 78.7067 24.7067 79 24.3333 79H20.3333C19.2267 79 18.3333 79.8934 18.3333 81V81.6667H27.9467C29.2667 81.6667 30.3333 80.6 30.3333 79.28C30.3333 78.3334 29.7333 77.4267 28.84 77.0667L23.6667 75V72C26.08 74.7734 29.3067 76.3334 33 76.3334Z" fill="#4E7FAD"/>
<defs>
<radialGradient id="paint0_radial_1078_53814" cx="0" cy="0" r="1" gradientUnits="userSpaceOnUse" gradientTransform="translate(134.319 246.764) rotate(90) scale(8.23447 81.6585)">
<stop stop-color="#D9D9D9"/>
<stop offset="1" stop-color="#D9D9D9" stop-opacity="0"/>
</radialGradient>
</defs>
</svg>
