<svg width="283" height="192" viewBox="0 0 283 192" fill="none" xmlns="http://www.w3.org/2000/svg">
<ellipse cx="149.721" cy="182.557" rx="131.41" ry="9.44262" fill="url(#paint0_radial_1078_54158)"/>
<path d="M268.924 158.965L272.113 154.713C272.353 154.393 272.646 154.116 272.978 153.894C273.151 153.779 273.332 153.68 273.518 153.599C274.554 153.144 275.76 153.21 276.751 153.804L278.13 154.632C278.555 154.887 278.951 155.196 279.302 155.547C280.467 156.713 281.131 158.303 281.131 159.95V161.504C281.131 161.899 281.083 162.292 280.987 162.675C280.587 164.276 279.396 165.562 277.83 166.084L276.484 166.532C275.925 166.719 275.321 166.719 274.762 166.532L274.552 166.462C273.755 166.197 273.161 165.524 272.996 164.7L272.791 163.677C272.624 162.839 271.759 162.337 270.948 162.607C270.437 162.777 269.874 162.645 269.494 162.264L269.133 161.903C268.342 161.112 268.253 159.86 268.924 158.965Z" fill="#212121"/>
<path d="M255.164 129.836C261.197 133.77 273.42 144.787 274.049 157.377M276.751 153.804L278.13 154.632C278.555 154.887 278.951 155.196 279.302 155.547V155.547C280.467 156.713 281.131 158.303 281.131 159.95V161.504C281.131 161.899 281.083 162.292 280.987 162.675V162.675C280.587 164.276 279.396 165.562 277.83 166.084L276.484 166.532C275.925 166.719 275.321 166.719 274.762 166.532L274.552 166.462C273.755 166.197 273.161 165.524 272.996 164.7L272.791 163.677C272.624 162.839 271.759 162.337 270.948 162.607V162.607C270.437 162.777 269.874 162.645 269.494 162.264L269.133 161.903C268.342 161.112 268.253 159.86 268.924 158.965L272.113 154.713C272.353 154.393 272.646 154.116 272.978 153.894V153.894C274.113 153.138 275.582 153.103 276.751 153.804Z" stroke="#212121" stroke-width="2" stroke-linecap="round"/>
<path d="M14.525 79.6792L12.2449 84.4804C12.0733 84.8418 11.8415 85.1713 11.5594 85.4549C11.4129 85.6022 11.2554 85.7347 11.0892 85.8518C10.1647 86.5029 8.96957 86.6785 7.88015 86.2928L6.36409 85.756C5.89628 85.5903 5.44724 85.3658 5.03357 85.0916C3.65999 84.1813 2.69288 82.7551 2.3653 81.1401L2.0565 79.6177C1.97803 79.2309 1.9473 78.8359 1.965 78.4415C2.03901 76.7926 2.95031 75.2958 4.38116 74.473L5.61106 73.7657C6.12191 73.472 6.71425 73.3518 7.29919 73.4233L7.51886 73.4502C8.35315 73.5521 9.06883 74.0933 9.39422 74.8683L9.79806 75.8301C10.129 76.6183 11.0759 76.9381 11.817 76.512C12.2837 76.2436 12.8619 76.262 13.3106 76.5593L13.7364 76.8415C14.6687 77.4594 15.0049 78.6689 14.525 79.6792Z" fill="#212121"/>
<path d="M33.8008 105.492C27.1063 102.835 12.9373 94.4682 9.81753 82.2545M7.88015 86.2928L6.36409 85.756C5.89628 85.5903 5.44724 85.3658 5.03357 85.0916V85.0916C3.65999 84.1813 2.69288 82.7551 2.3653 81.1401L2.05649 79.6177C1.97803 79.2309 1.9473 78.8359 1.965 78.4415V78.4415C2.03901 76.7926 2.95031 75.2958 4.38116 74.473L5.61107 73.7657C6.12191 73.472 6.71425 73.3518 7.29919 73.4233L7.51886 73.4502C8.35315 73.5522 9.06883 74.0933 9.39422 74.8683L9.79806 75.8301C10.129 76.6183 11.0759 76.9381 11.817 76.512V76.512C12.2837 76.2436 12.8619 76.262 13.3106 76.5593L13.7364 76.8415C14.6687 77.4594 15.0049 78.6689 14.525 79.6792L12.2449 84.4804C12.0733 84.8418 11.8415 85.1713 11.5594 85.4549V85.4549C10.5979 86.4216 9.16545 86.7479 7.88015 86.2928Z" stroke="#212121" stroke-width="2" stroke-linecap="round"/>
<path fill-rule="evenodd" clip-rule="evenodd" d="M128.285 160.501L125.138 160.555L125.444 178.311C123.826 177.102 121.646 176.262 119.032 176.262C113.817 176.262 109.59 178.728 109.59 181.77C109.59 184.812 113.817 187.278 119.032 187.278C128.475 187.278 129.262 185.705 128.475 182.557C128.471 182.54 128.466 182.523 128.462 182.506L128.285 160.501Z" fill="#212121"/>
<path fill-rule="evenodd" clip-rule="evenodd" d="M162.338 159.623L165.465 159.977L163.472 177.626C165.197 176.576 167.448 175.947 170.049 176.196C175.24 176.692 179.214 179.549 178.925 182.578C178.635 185.606 174.192 187.659 169.001 187.162C159.601 186.264 158.968 184.623 160.05 181.564C160.056 181.548 160.062 181.531 160.068 181.515L162.338 159.623Z" fill="#212121"/>
<path fill-rule="evenodd" clip-rule="evenodd" d="M195.469 157.377C205.615 157.377 214.272 150.388 217.65 140.564C221.437 142.271 225.585 143.213 229.935 143.213C247.78 143.213 262.246 127.36 262.246 107.803C262.246 88.2645 247.806 72.4218 229.983 72.3935C232.239 67.9696 233.525 62.8707 233.525 57.4426C233.525 40.4938 220.987 26.7541 205.521 26.7541C201.705 26.7541 198.067 27.5908 194.751 29.1061C194.747 13.0304 182.854 0 168.184 0C158.445 0 149.931 5.74227 145.305 14.3057C140.726 7.53573 133.382 3.14754 125.102 3.14754C112.04 3.14754 101.305 14.0681 100.086 28.0324C97.3047 27.199 94.3769 26.7541 91.3543 26.7541C73.1126 26.7541 58.3247 42.9599 58.3247 62.9508C58.3247 67.9963 59.2667 72.8007 60.9685 77.1642C45.0872 78.111 32.4756 92.5234 32.4756 110.164C32.4756 128.416 45.9775 143.213 62.633 143.213C64.5193 143.213 66.3653 143.023 68.1557 142.66C73.0738 151.486 81.9453 157.377 92.0723 157.377C96.78 157.377 101.216 156.104 105.11 153.855C110.183 161.7 118.533 166.82 127.974 166.82C134.473 166.82 140.455 164.393 145.207 160.322C149.959 164.393 155.94 166.82 162.439 166.82C171.577 166.82 179.692 162.024 184.803 154.604C188.009 156.378 191.633 157.377 195.469 157.377Z" fill="#EA6699"/>
<path fill-rule="evenodd" clip-rule="evenodd" d="M194.082 139.559C202.949 139.559 210.626 134.383 214.348 126.842C216.825 127.257 219.397 127.475 222.036 127.475C241.864 127.475 257.938 115.145 257.938 99.9344C257.938 84.724 241.864 72.3934 222.036 72.3934L221.898 72.3936C227.274 67.9298 230.652 61.4747 230.652 54.2951C230.652 40.823 218.758 29.9016 204.085 29.9016C199.967 29.9016 196.068 30.7619 192.589 32.2974C193.115 30.2272 193.395 28.0562 193.395 25.8187C193.395 11.5594 182.021 0 167.991 0C158.678 0 150.536 5.09219 146.113 12.6862C141.735 6.68248 134.711 2.79098 126.793 2.79098C113.521 2.79098 102.762 13.7256 102.762 27.2141C102.762 28.5207 102.863 29.8033 103.057 31.0543C100.255 30.3039 97.2913 29.9016 94.2261 29.9016C76.7776 29.9016 62.6327 42.9368 62.6327 59.0164C62.6327 66.612 65.7889 73.5282 70.9587 78.7121C70.5789 78.6964 70.1969 78.6885 69.813 78.6885C55.5369 78.6885 43.9639 89.6098 43.9639 103.082C43.9639 116.554 55.5369 127.475 69.813 127.475C70.8367 127.475 71.8464 127.419 72.839 127.31C77.6286 134.69 85.8592 139.56 95.2089 139.56C99.7108 139.56 103.953 138.431 107.677 136.436C112.528 143.393 120.512 147.933 129.54 147.933C135.755 147.933 141.475 145.781 146.019 142.171C150.563 145.781 156.283 147.933 162.498 147.933C171.235 147.933 178.995 143.68 183.883 137.1C186.948 138.673 190.413 139.559 194.082 139.559Z" fill="#FB85B2"/>
<path fill-rule="evenodd" clip-rule="evenodd" d="M105.616 62.7176C106.34 61.7375 104.983 61.1234 104.11 61.9481C103.844 62.1994 103.568 62.443 103.282 62.6781C97.4439 67.477 89.6681 66.9215 85.9146 61.4373C85.3666 60.6366 83.9178 60.8791 84.2528 61.812C84.5712 62.6985 84.998 63.5451 85.5371 64.3328C89.2906 69.817 97.0664 70.3725 102.905 65.5736C103.942 64.7212 104.848 63.7573 105.616 62.7176Z" fill="#EA6699"/>
<path fill-rule="evenodd" clip-rule="evenodd" d="M95.2525 105.461C95.7186 104.324 94.2737 103.97 93.6276 104.996C92.9896 106.009 92.2546 106.98 91.4239 107.891C85.0469 114.884 75.4433 115.698 69.9736 109.707C69.1715 108.829 67.4223 109.365 67.9796 110.448C68.5144 111.486 69.1789 112.454 69.9747 113.325C75.4444 119.315 85.048 118.502 91.425 111.509C93.0877 109.685 94.3669 107.622 95.2525 105.461Z" fill="#EA6699"/>
<path fill-rule="evenodd" clip-rule="evenodd" d="M216.829 97.8563C217.342 97.055 216.269 96.6902 215.638 97.3825C212.063 101.303 206.678 101.759 203.612 98.4009C203.162 97.9089 202.183 98.2094 202.495 98.8155C202.795 99.3969 203.167 99.9385 203.612 100.426C206.679 103.785 212.063 103.329 215.639 99.4081C216.085 98.9188 216.482 98.3985 216.829 97.8563Z" fill="#EA6699"/>
<path fill-rule="evenodd" clip-rule="evenodd" d="M206.831 64.0552C208.026 63.9102 207.672 62.806 206.481 62.8182C199.26 62.8917 193.705 59.2766 194.074 54.7437C194.129 54.068 193.101 53.2644 192.773 53.8833C192.392 54.6 192.158 55.3547 192.095 56.133C191.726 60.6659 197.28 64.281 204.502 64.2075C205.293 64.1995 206.072 64.1474 206.831 64.0552Z" fill="#EA6699"/>
<path fill-rule="evenodd" clip-rule="evenodd" d="M133.385 40.8139C132.488 41.6346 133.48 42.4119 134.462 41.7136C134.993 41.3359 135.546 40.9753 136.12 40.6345C143.581 36.2005 151.702 36.7926 154.257 41.9568C154.638 42.7274 156.233 42.9008 156.163 42.0209C156.086 41.0437 155.841 40.1115 155.416 39.2519C152.861 34.0877 144.74 33.4956 137.279 37.9295C135.845 38.7815 134.54 39.7571 133.385 40.8139Z" fill="#EA6699"/>
<path fill-rule="evenodd" clip-rule="evenodd" d="M167.598 26.8056C168.749 26.9538 168.086 28.3262 166.925 28.3936C160.387 28.773 155.317 33.8362 155.6 39.7025C155.641 40.5562 154.506 41.2533 154.251 40.4397C154.011 39.6719 153.864 38.8655 153.823 38.0304C153.54 32.1641 158.61 27.1009 165.148 26.7215C165.984 26.673 166.804 26.7034 167.598 26.8056Z" fill="#EA6699"/>
<circle cx="172.541" cy="81.8355" r="7.86885" fill="url(#paint1_linear_1078_54158)"/>
<circle cx="120.607" cy="81.8355" r="7.86885" fill="url(#paint2_linear_1078_54158)"/>
<circle cx="169.394" cy="80.2618" r="3.14754" fill="white"/>
<circle cx="117.459" cy="80.2618" r="3.14754" fill="white"/>
<circle cx="177.262" cy="81.8341" r="22.1066" stroke="white" stroke-width="3"/>
<circle cx="117.459" cy="81.8341" r="22.1066" stroke="white" stroke-width="3"/>
<rect x="137.918" y="80.2604" width="18.8852" height="4.72131" fill="white"/>
<path d="M119.82 111.737C120.601 111.833 152.082 131.409 191.317 105.332C194.489 103.224 196.148 106.229 196.148 108.59" stroke="black" stroke-width="2" stroke-linecap="round"/>
<defs>
<radialGradient id="paint0_radial_1078_54158" cx="0" cy="0" r="1" gradientUnits="userSpaceOnUse" gradientTransform="translate(149.721 182.557) rotate(90) scale(9.44262 131.41)">
<stop stop-color="#D9D9D9"/>
<stop offset="1" stop-color="#D9D9D9" stop-opacity="0"/>
</radialGradient>
<linearGradient id="paint1_linear_1078_54158" x1="172.541" y1="73.9667" x2="172.541" y2="90.4913" gradientUnits="userSpaceOnUse">
<stop stop-color="#212121"/>
<stop offset="1" stop-color="#575757"/>
</linearGradient>
<linearGradient id="paint2_linear_1078_54158" x1="120.607" y1="73.9667" x2="120.607" y2="90.4913" gradientUnits="userSpaceOnUse">
<stop stop-color="#212121"/>
<stop offset="1" stop-color="#575757"/>
</linearGradient>
</defs>
</svg>
