<?xml version="1.0" encoding="utf-8"?>
<!-- Generator: Adobe Illustrator 26.3.1, SVG Export Plug-In . SVG Version: 6.00 Build 0)  -->
<svg version="1.1" id="Layer_1" xmlns="http://www.w3.org/2000/svg" xmlns:xlink="http://www.w3.org/1999/xlink" x="0px" y="0px"
	 viewBox="0 0 36.5 46.9" style="enable-background:new 0 0 36.5 46.9;" xml:space="preserve">
<style type="text/css">
	.icon_awardRibbon-st0{fill:none;stroke:#46304B;stroke-width:2;stroke-linecap:round;}
	.icon_awardRibbon-st1{fill:none;stroke:#46304B;stroke-width:2;}
</style>
<path class="icon_awardRibbon-st0" d="M18.3,30.8v8.5l6.3,5.9c0.6,0.6,1.7,0.1,1.7-0.7V28.3"/>
<path class="icon_awardRibbon-st0" d="M18.3,30.8v8.5L12,45.2c-0.6,0.6-1.7,0.1-1.7-0.7V28.3"/>
<path class="icon_awardRibbon-st1" d="M12.2,2.4c0.3-0.9,1.4-1.2,2.1-0.7L17.5,4c0.5,0.3,1.1,0.3,1.6,0l3.1-2.2c0.8-0.5,1.8-0.2,2.1,0.7l1.2,3.6
	c0.2,0.6,0.7,1,1.3,1l3.8,0c0.9,0,1.6,0.9,1.3,1.8l-1.2,3.7c-0.2,0.6,0,1.2,0.5,1.5l3.1,2.3c0.8,0.6,0.8,1.7,0,2.3l-3.1,2.3
	c-0.5,0.4-0.7,1-0.5,1.5l1.2,3.7c0.3,0.9-0.4,1.8-1.3,1.8l-3.8,0c-0.6,0-1.1,0.4-1.3,1l-1.2,3.6c-0.3,0.9-1.4,1.2-2.1,0.7L19.1,31
	c-0.5-0.3-1.1-0.3-1.6,0l-3.1,2.2c-0.8,0.5-1.8,0.2-2.1-0.7L11,28.9c-0.2-0.6-0.7-1-1.3-1l-3.8,0c-0.9,0-1.6-0.9-1.3-1.8l1.2-3.7
	c0.2-0.6,0-1.2-0.5-1.5l-3.1-2.3c-0.8-0.6-0.8-1.7,0-2.3l3.1-2.3c0.5-0.4,0.7-1,0.5-1.5L4.5,8.9C4.2,8,4.9,7.1,5.8,7.1l3.8,0
	c0.6,0,1.1-0.4,1.3-1L12.2,2.4z"/>
<circle class="icon_awardRibbon-st1" cx="18.3" cy="17.5" r="5.7"/>
</svg>
