<svg width="16" height="16" viewBox="0 0 16 16" fill="current" xmlns="http://www.w3.org/2000/svg">
<path d="M4 5C4 2.79086 5.79086 1 8 1C10.2091 1 12 2.79086 12 5H10C10 3.89543 9.10457 3 8 3C6.89543 3 6 3.89543 6 5H4ZM11 6H5H11ZM4 6V5C4 2.79086 5.79086 1 8 1V3C6.89543 3 6 3.89543 6 5V6H4ZM8 1C10.2091 1 12 2.79086 12 5V6H10V5C10 3.89543 9.10457 3 8 3V1Z" fill="current"/>
<path fill-rule="evenodd" clip-rule="evenodd" d="M4 6C2.89543 6 2 6.89543 2 8V13C2 14.1046 2.89543 15 4 15H12C13.1046 15 14 14.1046 14 13V8C14 6.89543 13.1046 6 12 6H4ZM9.5 9.5C9.5 10.0552 9.19835 10.54 8.75 10.7993V12.25C8.75 12.6642 8.41421 13 8 13C7.58579 13 7.25 12.6642 7.25 12.25V10.7993C6.80165 10.54 6.5 10.0552 6.5 9.5C6.5 8.67157 7.17157 8 8 8C8.82843 8 9.5 8.67157 9.5 9.5Z" fill="current"/>
</svg>
