<svg width="16" height="16" viewBox="0 0 16 16" fill="current" xmlns="http://www.w3.org/2000/svg">
<path d="M10.7687 3.34694C11.4056 4.87619 10.6822 6.63215 9.15305 7.26878C7.62391 7.90541 5.86789 7.1823 5.23127 5.65314C4.59447 4.12388 5.31786 2.36792 6.847 1.73129C8.37612 1.09448 10.1319 1.81778 10.7688 3.34694" fill="current"/>
<path d="M8.00002 8.5C7.12194 8.5 6.25933 8.7197 5.49883 9.13694C4.73852 9.55426 4.10718 10.1543 3.66851 10.877C3.22993 11.5996 2.99928 12.4192 3 13.2534C3 13.584 3.13821 13.9011 3.38433 14.1348C3.63044 14.3686 3.96419 14.5 4.31224 14.5H11.6878C12.0358 14.5 12.3696 14.3686 12.6157 14.1348C12.8617 13.9011 13 13.584 13 13.2534C13.0007 12.4192 12.7701 11.5996 12.3314 10.877C11.8927 10.1543 11.2615 9.55424 10.5012 9.13694C9.74076 8.7197 8.87815 8.5 7.99998 8.5H8.00002Z" fill="current"/>
</svg>
