<svg width="32" height="32" viewBox="0 0 32 32" fill="current" xmlns="http://www.w3.org/2000/svg">
<path d="M6 7.40845C6 7.03491 6.14839 6.67666 6.41253 6.41253C6.67666 6.14839 7.03491 6 7.40845 6H24.5916C24.9651 6 25.3233 6.14839 25.5875 6.41253C25.8516 6.67666 26 7.03491 26 7.40845V9.66197C26 10.0355 25.8516 10.3938 25.5875 10.6579C25.3233 10.922 24.9651 11.0704 24.5916 11.0704H7.40845C7.03491 11.0704 6.67666 10.922 6.41253 10.6579C6.14839 10.3938 6 10.0355 6 9.66197V7.40845ZM7.12676 12.4789H24.8732V21.9155C24.8732 22.9988 24.4429 24.0377 23.6769 24.8037C22.9109 25.5697 21.872 26 20.7887 26H11.2113C10.128 26 9.08908 25.5697 8.32309 24.8037C7.55709 24.0377 7.12676 22.9988 7.12676 21.9155V12.4789ZM14.0282 15.0141C13.8414 15.0141 13.6623 15.0883 13.5302 15.2203C13.3981 15.3524 13.3239 15.5315 13.3239 15.7183C13.3239 15.9051 13.3981 16.0842 13.5302 16.2163C13.6623 16.3483 13.8414 16.4225 14.0282 16.4225H17.9718C18.1586 16.4225 18.3377 16.3483 18.4698 16.2163C18.6019 16.0842 18.6761 15.9051 18.6761 15.7183C18.6761 15.5315 18.6019 15.3524 18.4698 15.2203C18.3377 15.0883 18.1586 15.0141 17.9718 15.0141H14.0282Z" fill="current"/>
</svg>
