<?xml version="1.0" encoding="utf-8"?>
<!-- Generator: Adobe Illustrator 26.3.1, SVG Export Plug-In . SVG Version: 6.00 Build 0)  -->
<svg version="1.1" id="Layer_1" xmlns="http://www.w3.org/2000/svg" xmlns:xlink="http://www.w3.org/1999/xlink" x="0px" y="0px"
	 viewBox="0 0 24 25" style="enable-background:new 0 0 24 25;" xml:space="preserve">
<style type="text/css">
	.icon_stats_longest-st0{fill-rule:evenodd;clip-rule:evenodd;fill:current;}
</style>
<path class="icon_stats_longest-st0" d="M12,24c6.6,0,12-5.4,12-12c0-6.6-5.4-12-12-12C5.4,0,0,5.4,0,12C0,18.6,5.4,24,12,24z M12.9,6.8
	c0.2-0.5-0.1-1.1-0.6-1.3c-0.5-0.2-1.1,0.1-1.3,0.6l-2,5.5c-0.1,0.3-0.1,0.7,0.2,1c0.2,0.3,0.6,0.4,0.9,0.4l2.2-0.3l-1.9,4.5
	c-0.2,0.5,0,1.1,0.5,1.3c0.5,0.2,1.1,0,1.3-0.5l2.6-6.1c0.1-0.3,0.1-0.7-0.1-1c-0.2-0.3-0.6-0.4-0.9-0.4l-2.3,0.4L12.9,6.8z"/>
</svg>
