<svg width="24" height="24" viewBox="0 0 24 24" fill="none" xmlns="http://www.w3.org/2000/svg">
<path fill-rule="evenodd" clip-rule="evenodd" d="M12 24C18.6274 24 24 18.6274 24 12C24 5.37258 18.6274 0 12 0C5.37258 0 0 5.37258 0 12C0 18.6274 5.37258 24 12 24ZM7.05025 11.7071C7.44077 11.3166 8.07394 11.3166 8.46446 11.7071L10.5858 13.8284L15.5355 8.87865C15.9261 8.48813 16.5592 8.48813 16.9497 8.87865C17.3403 9.26917 17.3403 9.90234 16.9497 10.2929L11.2929 15.9497C10.9024 16.3402 10.2692 16.3402 9.87867 15.9497L7.05025 13.1213C6.65972 12.7308 6.65972 12.0976 7.05025 11.7071Z" fill="current"/>
</svg>
