<svg width="16" height="16" viewBox="0 0 16 16" fill="none" xmlns="http://www.w3.org/2000/svg">
<g opacity="0.5">
<path fill-rule="evenodd" clip-rule="evenodd" d="M3.33953 5.71495C5.92192 3.43356 10.0859 3.43356 12.6685 5.71495L14.8351 7.62925C14.9426 7.72411 15.0041 7.86061 15.0041 8.00391C15.0041 8.1472 14.9426 8.28371 14.8351 8.37857L12.6685 10.2929C10.0861 12.5743 5.92212 12.5743 3.33953 10.2929L1.17288 8.37857C1.0654 8.2837 1.00391 8.1472 1.00391 8.00391C1.00391 7.86061 1.0654 7.7241 1.17288 7.62925L3.33953 5.71495ZM5.50394 8.00391C5.50394 6.62321 6.62326 5.50389 8.00396 5.50389C9.38465 5.50389 10.504 6.62321 10.504 8.00391C10.504 9.3846 9.38465 10.5039 8.00396 10.5039C6.62326 10.5039 5.50394 9.3846 5.50394 8.00391Z" fill="#46304B"/>
</g>
</svg>
