<svg width="18" height="18" viewBox="0 0 18 18" fill="none" xmlns="http://www.w3.org/2000/svg">
<path d="M18 10.1118C18 11.3566 17.2445 12.3655 16.3125 12.3655C15.1724 12.3655 15.1973 11.2386 14.3564 11.2386C13.8832 11.2386 13.5 11.6225 13.5 12.0979V16.8731C13.5 17.4954 12.9962 18 12.375 18H9.85641C9.3832 18 9 17.6162 9 17.1407C9 16.278 10.125 16.3237 10.125 15.1828C10.125 14.2492 9.11777 13.4924 7.875 13.4924C6.63223 13.4924 5.625 14.2492 5.625 15.1828C5.625 16.3248 6.75 16.2998 6.75 17.1422C6.75 17.6162 6.3668 18 5.89219 18H1.125C0.503789 18 0 17.4954 0 16.8731V12.0979C0 11.6225 0.383555 11.2386 0.856406 11.2386C1.68926 11.2386 1.67344 12.3655 2.8125 12.3655C3.74414 12.3655 4.5 11.3549 4.5 10.1118C4.5 8.86865 3.74414 7.82627 2.8125 7.82627C1.67238 7.82627 1.69734 8.95316 0.856406 8.95316C0.383555 8.95316 0 8.60101 0 8.1256V5.60277C0 4.98051 0.503789 4.50757 1.125 4.50757H5.89219C6.3668 4.44559 6.75 4.09344 6.75 3.61803C6.75 2.78378 5.625 2.79962 5.625 1.65865C5.625 0.725085 6.63223 0 7.875 0C9.11777 0 10.125 0.756779 10.125 1.65865C10.125 2.80068 9 2.77568 9 3.61803C9 4.09168 9.38355 4.47588 9.85641 4.47588H12.375C12.9962 4.47588 13.5 4.98051 13.5 5.57108V8.09391C13.5 8.56755 13.8836 8.95175 14.3564 8.95175C15.1893 8.95175 15.1734 7.82486 16.3125 7.82486C17.2441 7.82627 18 8.86865 18 10.1118Z" fill="#AA6CBC"/>
</svg>
