<svg width="24" height="25" viewBox="0 0 24 25" fill="current" xmlns="http://www.w3.org/2000/svg">
<path d="M6.16667 9.25789C6.16667 8.83932 5.82735 8.5 5.40877 8.5H5.33333C3.49238 8.5 2 10.0081 2 11.8684V21.1316C2 22.9919 3.49238 24.5 5.33333 24.5H18.6667C20.5076 24.5 22 22.9919 22 21.1316V11.8684C22 10.0081 20.5076 8.5 18.6667 8.5C18.2064 8.5 17.8333 8.8731 17.8333 9.33333V9.35088C17.8333 9.81111 18.2064 10.1842 18.6667 10.1842C19.5871 10.1842 20.3333 10.9383 20.3333 11.8684V21.1316C20.3333 22.0617 19.5871 22.8158 18.6667 22.8158H5.33333C4.41286 22.8158 3.66667 22.0617 3.66667 21.1316V11.8684C3.66667 10.9383 4.41286 10.1842 5.33333 10.1842C5.79357 10.1842 6.16667 9.81111 6.16667 9.35088V9.25789Z" fill="current"/>
<rect x="11" y="1.5" width="2" height="14" rx="1" fill="current"/>
<rect x="11.9497" y="0.5" width="2" height="7" rx="1" transform="rotate(45 11.9497 0.5)" fill="current"/>
<rect x="10.5355" y="1.91406" width="2" height="7" rx="1" transform="rotate(-45 10.5355 1.91406)" fill="current"/>
</svg>
