<svg width="18" height="16" viewBox="0 0 18 16" fill="none" xmlns="http://www.w3.org/2000/svg">
<path d="M9 0C10.11 0 11 0.89 11 2C11 3.11 10.11 4 9 4C7.89 4 7 3.11 7 2C7 0.89 7.9 0 9 0ZM18 12V10C15.76 10 13.84 9.04 12.4 7.32L11.06 5.72C10.874 5.49447 10.6403 5.31295 10.3757 5.18846C10.1112 5.06397 9.82236 4.99961 9.53 5H8.5C7.89 5 7.33 5.26 6.95 5.72L5.61 7.32C4.16 9.04 2.24 10 0 10V12C2.77 12 5.19 10.83 7 8.75V11L3.12 12.55C2.45 12.82 2 13.5 2 14.21C2 15.2 2.8 16 3.79 16H6V15.5C6 14.837 6.26339 14.2011 6.73223 13.7322C7.20107 13.2634 7.83696 13 8.5 13H11.5C11.78 13 12 13.22 12 13.5C12 13.78 11.78 14 11.5 14H8.5C7.67 14 7 14.67 7 15.5V16H14.21C15.2 16 16 15.2 16 14.21C16 13.5 15.55 12.82 14.88 12.55L11 11V8.75C12.81 10.83 15.23 12 18 12Z" fill="#4E7FAD"/>
</svg>
