<svg width="140" height="140" viewBox="0 0 140 140" fill="none" xmlns="http://www.w3.org/2000/svg">
<path d="M113.802 37.3438L71.5032 23.2441C70.5284 22.9152 69.4708 22.9152 68.496 23.2441L26.197 37.3438C25.2631 37.6593 24.4527 38.2604 23.879 39.0614C23.3054 39.8623 22.9978 40.8238 23.001 41.809V59.5743C22.9152 72.9809 27.4464 86.0092 35.8347 96.4671C44.2221 106.926 55.9542 114.179 69.0595 117.006H71.0336C84.1215 114.16 95.8328 106.899 104.202 96.4409C112.571 85.9842 117.089 72.967 116.999 59.5723V41.807C117.002 40.8219 116.694 39.8604 116.121 39.0594C115.547 38.2583 114.737 37.6573 113.803 37.3418L113.802 37.3438ZM82.7366 76.0715L82.7374 76.0723C83.6273 76.9543 84.1277 78.1558 84.1277 79.409C84.1277 80.6616 83.6273 81.8632 82.7374 82.7458C81.8546 83.6357 80.6531 84.1361 79.4006 84.1361C78.1472 84.1361 76.9457 83.6357 76.0638 82.7458L70.0006 76.6354L63.9373 82.745V82.7458C63.0553 83.6357 61.8538 84.1361 60.6005 84.1361C59.3479 84.1361 58.1464 83.6357 57.2638 82.7458C56.3739 81.863 55.8735 80.6615 55.8735 79.409C55.8735 78.1556 56.3739 76.9541 57.2638 76.0722L63.3741 70.009L57.2646 63.9457H57.2638C56.0718 62.7537 55.606 61.0164 56.0426 59.3877C56.4793 57.759 57.7508 56.4876 59.3794 56.0509C61.0081 55.6143 62.7454 56.0801 63.9374 57.2721L70.0007 63.3825L76.0639 57.2729V57.2721C77.256 56.0801 78.9932 55.6143 80.622 56.051C82.2506 56.4876 83.522 57.7591 83.9587 59.3877C84.3954 61.0164 83.9296 62.7537 82.7376 63.9458L76.6272 70.009L82.7366 76.0715Z" fill="url(#paint0_linear_1605_45597)"/>
<defs>
<linearGradient id="paint0_linear_1605_45597" x1="70" y1="22.9927" x2="70" y2="117.006" gradientUnits="userSpaceOnUse">
<stop stop-color="#D98355"/>
<stop offset="1" stop-color="#ECA37C"/>
</linearGradient>
</defs>
</svg>
