<svg width="18" height="18" viewBox="0 0 18 18" fill="none" xmlns="http://www.w3.org/2000/svg">
<path d="M1.03445 17.5571C2.49995 18.8875 12.3314 12.9888 13.7872 10.5042C14.486 9.31075 13.6611 7.55974 12.312 6.16089C13.8455 5.13377 15.1945 8.33253 16.4756 7.65756C17.0579 7.34453 17.4364 6.3761 17.155 5.77939C16.6503 4.72292 14.9713 4.72292 13.8358 4.59575C14.6413 4.40011 16.5727 3.56862 16.6115 2.39476C16.6503 1.49481 15.5148 0.467679 14.6219 0.575283C13.4475 0.712233 13.0205 2.41433 12.6226 3.50993C12.5741 2.8154 12.4285 1.28938 11.6715 0.624194C10.6621 -0.265983 9.44896 0.575283 9.41984 1.65132C9.38102 2.95235 12.1567 3.67623 11.2833 5.24137C9.80805 4.09686 8.0708 3.4708 6.95469 4.12621C6.47913 4.42945 5.93563 5.01638 5.37272 5.77939C6.2365 6.69891 7.43025 7.8043 8.37167 8.44014C8.56577 8.57709 8.624 8.85099 8.47842 9.04663C8.34255 9.25205 8.0708 9.30097 7.87669 9.16402C6.91587 8.50861 5.74152 7.42279 4.86805 6.51305C4.43131 7.16846 3.98486 7.9119 3.56753 8.69447C4.39249 9.53574 5.44066 10.4846 6.27532 11.052C6.46942 11.1889 6.51795 11.4628 6.38208 11.6585C6.2462 11.8639 5.97445 11.9128 5.77064 11.7759C4.94569 11.2085 3.96545 10.3281 3.1405 9.50639C1.42266 12.9204 0.160968 16.7745 1.03445 17.5571Z" fill="#7B8A58"/>
</svg>
