<?xml version="1.0" encoding="utf-8"?>
<!-- Generator: Adobe Illustrator 26.3.1, SVG Export Plug-In . SVG Version: 6.00 Build 0)  -->
<svg version="1.1" id="Layer_1" xmlns="http://www.w3.org/2000/svg" xmlns:xlink="http://www.w3.org/1999/xlink" x="0px" y="0px"
	 viewBox="0 0 16 16" style="enable-background:new 0 0 16 16;" xml:space="preserve">
<style type="text/css">
	.iconInfoCircle-st0{fill:current;}
</style>
<path class="iconInfoCircle-st0" d="M8,16c-4.4,0-8-3.6-8-8s3.6-8,8-8s8,3.6,8,8S12.4,16,8,16z M8,2C4.7,2,2,4.7,2,8s2.7,6,6,6s6-2.7,6-6
	S11.3,2,8,2z"/>
<path class="iconInfoCircle-st0" d="M8,12L8,12c-0.6,0-1-0.4-1-1V8c0-0.6,0.4-1,1-1l0,0c0.6,0,1,0.4,1,1v3C9,11.6,8.6,12,8,12z"/>
<circle class="iconInfoCircle-st0" cx="8" cy="5" r="1"/>
</svg>
