<?xml version="1.0" encoding="utf-8"?>
<!-- Generator: Adobe Illustrator 26.3.1, SVG Export Plug-In . SVG Version: 6.00 Build 0)  -->
<svg version="1.1" id="Layer_1" xmlns="http://www.w3.org/2000/svg" xmlns:xlink="http://www.w3.org/1999/xlink" x="0px" y="0px"
	 viewBox="0 0 24 25" style="enable-background:new 0 0 24 25;" xml:space="preserve">
<style type="text/css">
	.icon_stats_total-st0{fill-rule:evenodd;clip-rule:evenodd;}
</style>
<path class="icon_stats_total-st0" d="M24,12c0,6.6-5.4,12-12,12C5.4,24,0,18.6,0,12C0,5.4,5.4,0,12,0C18.6,0,24,5.4,24,12z M6.5,9.5c0-0.6,0.4-1,1-1
	h9c0.6,0,1,0.4,1,1c0,0.6-0.4,1-1,1h-9C6.9,10.5,6.5,10.1,6.5,9.5z M7.5,13.5c-0.6,0-1,0.4-1,1c0,0.6,0.4,1,1,1h9c0.6,0,1-0.4,1-1
	c0-0.6-0.4-1-1-1H7.5z"/>
</svg>
