<svg width="20" height="19" viewBox="0 0 20 19" fill="none" xmlns="http://www.w3.org/2000/svg">
<path d="M3.2833 9.14645L5.875 11.7381L12.2381 5.375L9.64645 2.7833C9.55268 2.68954 9.5 2.56236 9.5 2.42975C9.5 2.29714 9.55268 2.16996 9.64645 2.0762L10.8262 0.896447C10.92 0.802678 11.0471 0.75 11.1798 0.75C11.3124 0.75 11.4395 0.802678 11.5333 0.896447L12.3595 1.72264L13.1857 0.896447C13.381 0.701184 13.6975 0.701184 13.8928 0.896447L15.3047 2.30839L16.1309 1.4822C16.3262 1.28693 16.6428 1.28693 16.8381 1.4822L18.0178 2.66195C18.2131 2.85721 18.2131 3.17379 18.0178 3.36905L17.1916 4.19525L18.6036 5.6072C18.7988 5.80246 18.7988 6.11904 18.6036 6.3143L17.7774 7.1405L18.6036 7.9667C18.6973 8.06046 18.75 8.18764 18.75 8.32025C18.75 8.45286 18.6973 8.58003 18.6036 8.6738L17.4238 9.85355C17.33 9.94732 17.2029 10 17.0702 10C16.9376 10 16.8105 9.94732 16.7167 9.85355L14.125 7.26186L7.76186 13.625L10.3536 16.2167C10.5488 16.412 10.5488 16.7285 10.3536 16.9238L9.1738 18.1036C9.08004 18.1973 8.95286 18.25 8.82025 18.25C8.68764 18.25 8.56046 18.1973 8.4667 18.1036L7.6405 17.2774L6.8143 18.1036C6.61904 18.2988 6.30246 18.2988 6.1072 18.1036L4.69525 16.6916L3.86905 17.5178C3.77529 17.6116 3.64811 17.6642 3.5155 17.6642C3.38289 17.6643 3.25571 17.6116 3.16195 17.5178L1.9822 16.3381C1.88843 16.2443 1.83575 16.1171 1.83575 15.9845C1.83575 15.8519 1.88843 15.7247 1.9822 15.6309L2.80839 14.8048L1.39645 13.3928C1.20119 13.1975 1.20119 12.881 1.39645 12.6857L2.22264 11.8595L1.39645 11.0333C1.30268 10.9395 1.25 10.8124 1.25 10.6798C1.25 10.5471 1.30268 10.42 1.39645 10.3262L2.5762 9.14645C2.77146 8.95118 3.08804 8.95118 3.2833 9.14645Z" fill="#BA5050" stroke="#BA5050" stroke-linejoin="round"/>
</svg>
