<?xml version="1.0" encoding="utf-8"?>
<!-- Generator: Adobe Illustrator 26.3.1, SVG Export Plug-In . SVG Version: 6.00 Build 0)  -->
<svg version="1.1" id="Layer_1" xmlns="http://www.w3.org/2000/svg" xmlns:xlink="http://www.w3.org/1999/xlink" x="0px" y="0px"
	 viewBox="0 0 384 384" style="enable-background:new 0 0 384 384;" xml:space="preserve">
<path d="M376,168H216V8c0-4.4-3.6-8-8-8h-32c-4.4,0-8,3.6-8,8v160H8c-4.4,0-8,3.6-8,8v32c0,4.4,3.6,8,8,8h160v160c0,4.4,3.6,8,8,8
	h32c4.4,0,8-3.6,8-8V216h160c4.4,0,8-3.6,8-8v-32C384,171.6,380.4,168,376,168z"/>
</svg>
