<svg width="24" height="24" viewBox="0 0 24 24" fill="current" xmlns="http://www.w3.org/2000/svg">
<style type="text/css">
	.icon_search-st0{fill:current;}
</style>
<path class="icon_search-st0" d="M23.6623 22.0396L17.4587 15.836C19.0034 13.8776 19.7415 11.403 19.5218 8.91856C19.3022 6.43411 18.1415 4.12737 16.2771 2.47015C14.4128 0.813146 11.986 -0.0690657 9.49254 0.00422669C6.99933 0.0775445 4.62827 1.1006 2.86461 2.86441C1.1008 4.62802 0.0777165 6.99908 0.00442418 9.49235C-0.0688937 11.9856 0.813292 14.4124 2.47035 16.2769C4.12736 18.1413 6.43411 19.302 8.91875 19.5216C11.4034 19.7413 13.878 19.0032 15.8364 17.4585L22.04 23.6621C22.2545 23.8785 22.5464 24 22.851 24C23.1557 24 23.4475 23.8785 23.6621 23.6621C23.8785 23.4475 24 23.1556 24 22.851C24 22.5464 23.8787 22.2541 23.6623 22.0396ZM2.28664 9.78083C2.28524 7.29659 3.51511 4.97291 5.57041 3.57725C7.6255 2.18143 10.2388 1.89474 12.5477 2.81178C14.8567 3.72883 16.5611 5.73037 17.0984 8.15595C17.636 10.5814 16.9364 13.1157 15.2308 14.9221C15.1133 15.0465 15.0203 15.1382 14.9224 15.2305C13.4949 16.5764 11.5968 17.3087 9.63536 17.2705C7.67391 17.2324 5.8057 16.4265 4.43145 15.0263C3.05751 13.6259 2.28745 11.7425 2.28664 9.78083Z"/>
</svg>
