<?xml version="1.0" encoding="utf-8"?>
<!-- Generator: Adobe Illustrator 26.3.1, SVG Export Plug-In . SVG Version: 6.00 Build 0)  -->
<svg version="1.1" id="Layer_1" xmlns="http://www.w3.org/2000/svg" xmlns:xlink="http://www.w3.org/1999/xlink" x="0px" y="0px"
	 viewBox="0 0 24 25" style="enable-background:new 0 0 24 25;" xml:space="preserve">
<style type="text/css">
	.icon_stats_completion-st0{clip-path:url(#SVGID_00000011011772616776271080000009137201237830578108_);}
	.icon_stats_completion-st1{fill-rule:evenodd;clip-rule:evenodd;fill:current;}
</style>
<g>
	<defs>
		<rect id="SVGID_1_" y="0" width="24" height="24"/>
	</defs>
	<clipPath id="SVGID_00000127761920740613174680000016782110622762006186_">
		<use xlink:href="#SVGID_1_"  style="overflow:visible;"/>
	</clipPath>
	<g style="clip-path:url(#SVGID_00000127761920740613174680000016782110622762006186_);">
		<path class="icon_stats_completion-st1" d="M12,24c6.6,0,12-5.4,12-12c0-6.6-5.4-12-12-12C5.4,0,0,5.4,0,12C0,18.6,5.4,24,12,24z M7.1,11.7
			c0.4-0.4,1-0.4,1.4,0l2.1,2.1l4.9-4.9c0.4-0.4,1-0.4,1.4,0c0.4,0.4,0.4,1,0,1.4L11.3,16c-0.4,0.4-1,0.4-1.4,0l-2.8-2.8
			C6.7,12.7,6.7,12.1,7.1,11.7z"/>
	</g>
</g>
</svg>
