<svg width="22" height="17" viewBox="0 0 22 17" fill="none" xmlns="http://www.w3.org/2000/svg">
<path d="M6.8 7.85C8.83109 7.85 10.475 6.20609 10.475 4.175C10.475 2.14391 8.83109 0.5 6.8 0.5C4.76891 0.5 3.125 2.14391 3.125 4.175C3.125 6.20609 4.76891 7.85 6.8 7.85ZM9.32 8.9H9.04766C8.36516 9.22813 7.60719 9.425 6.8 9.425C5.99281 9.425 5.23812 9.22813 4.55234 8.9H4.28C2.19312 8.9 0.5 11.5931 0.5 13.68V14.625C0.5 15.4945 1.20547 16.2 2.075 16.2H11.525C12.3945 16.2 13.1 15.4945 13.1 14.625V13.68C13.1 11.5931 11.4069 8.9 9.32 8.9ZM16.25 7.85C17.9891 7.85 19.4 6.43906 19.4 4.7C19.4 2.96094 17.9891 1.55 16.25 1.55C14.5109 1.55 13.1 2.96094 13.1 4.7C13.1 6.43906 14.5109 7.85 16.25 7.85ZM17.825 8.9H17.7003C17.2442 9.0575 16.7619 9.1625 16.25 9.1625C15.7381 9.1625 15.2558 9.0575 14.7997 8.9H14.675C14.0056 8.9 13.2914 9.18828 12.75 9.5C13.5506 10.363 14.15 12.4134 14.15 13.68V14.94C14.15 15.0122 14.1336 15.0811 14.1303 15.15H19.925C20.7945 15.15 21.5 14.4445 21.5 13.575C21.5 11.5439 19.8561 8.9 17.825 8.9Z" fill="#D98355"/>
</svg>
