
<svg width="16" height="16" viewBox="0 0 16 16" fill="current" xmlns="http://www.w3.org/2000/svg">
<path fill-rule="evenodd" clip-rule="evenodd" d="M0.99987 7H1.7079C2.09368 6.11705 2.97472 5.5 3.99988 5.5C5.02504 5.5 5.90608 6.11705 6.29186 7H15C15.5523 7 16 7.44772 16 8C16 8.55228 15.5523 9 15 9H6.29186C5.90608 9.88295 5.02504 10.5 3.99988 10.5C2.97472 10.5 2.09368 9.88295 1.7079 9H0.99987C0.447585 9 -0.0001297 8.55228 -0.0001297 8C-0.0001297 7.44772 0.447586 7 0.99987 7ZM4 9C3.44772 9 3 8.55228 3 8C3 7.44772 3.44772 7 4 7C4.55229 7 5 7.44772 5 8C5 8.55228 4.55229 9 4 9Z" fill="current"/>
<path fill-rule="evenodd" clip-rule="evenodd" d="M0.99987 12H6.7079C7.09368 11.117 7.97472 10.5 8.99988 10.5C10.025 10.5 10.9061 11.117 11.2919 12H15C15.5523 12 16 12.4477 16 13C16 13.5523 15.5523 14 15 14H11.2919C10.9061 14.883 10.025 15.5 8.99988 15.5C7.97472 15.5 7.09368 14.883 6.7079 14H0.99987C0.447585 14 -0.0001297 13.5523 -0.0001297 13C-0.0001297 12.4477 0.447586 12 0.99987 12ZM9 14C8.44772 14 8 13.5523 8 13C8 12.4477 8.44772 12 9 12C9.55228 12 10 12.4477 10 13C10 13.5523 9.55228 14 9 14Z" fill="current"/>
<path fill-rule="evenodd" clip-rule="evenodd" d="M15.0001 2H14.2921C13.9063 1.11705 13.0253 0.5 12.0001 0.5C10.975 0.5 10.0939 1.11705 9.70814 2H1C0.447715 2 0 2.44772 0 3C0 3.55228 0.447716 4 1 4H9.70814C10.0939 4.88295 10.975 5.5 12.0001 5.5C13.0253 5.5 13.9063 4.88295 14.2921 4H15.0001C15.5524 4 16.0001 3.55228 16.0001 3C16.0001 2.44772 15.5524 2 15.0001 2ZM12 4C12.5523 4 13 3.55228 13 3C13 2.44772 12.5523 2 12 2C11.4477 2 11 2.44772 11 3C11 3.55228 11.4477 4 12 4Z" fill="current"/>
</svg>
