<?xml version="1.0" encoding="utf-8"?>
<!-- Generator: Adobe Illustrator 26.3.1, SVG Export Plug-In . SVG Version: 6.00 Build 0)  -->
<svg version="1.1" id="Layer_1" xmlns="http://www.w3.org/2000/svg" xmlns:xlink="http://www.w3.org/1999/xlink" x="0px" y="0px"
	 viewBox="0 0 24 24" style="enable-background:new 0 0 24 24;" xml:space="preserve">
<style type="text/css">
	.icon_toast_error-st0{fill-rule:evenodd;clip-rule:evenodd;fill:#BA5050;}
</style>
<path class="icon_toast_error-st0" d="M24,12c0,6.6-5.4,12-12,12C5.4,24,0,18.6,0,12C0,5.4,5.4,0,12,0C18.6,0,24,5.4,24,12z M11,7c0-0.6,0.4-1,1-1
	s1,0.4,1,1v6c0,0.6-0.4,1-1,1s-1-0.4-1-1V7z M12,18c0.6,0,1-0.4,1-1s-0.4-1-1-1s-1,0.4-1,1S11.4,18,12,18z"/>
</svg>
