<svg width="16" height="16" viewBox="0 0 16 16" fill="current" xmlns="http://www.w3.org/2000/svg">
<path fill-rule="evenodd" clip-rule="evenodd" d="M3 3C1.89543 3 1 3.89543 1 5V11C1 12.1046 1.89543 13 3 13H13C14.1046 13 15 12.1046 15 11V5C15 3.89543 14.1046 3 13 3H3ZM4.44721 5.10557C3.95324 4.85858 3.35256 5.05881 3.10557 5.55279C2.85858 6.04676 3.05881 6.64744 3.55279 6.89443L6.65836 8.44721C7.50294 8.8695 8.49706 8.8695 9.34164 8.44721L12.4472 6.89443C12.9412 6.64744 13.1414 6.04676 12.8944 5.55279C12.6474 5.05881 12.0468 4.85858 11.5528 5.10557L8.44721 6.65836C8.16569 6.79912 7.83431 6.79912 7.55279 6.65836L4.44721 5.10557Z" fill="current"/>
</svg>
