<?xml version="1.0" encoding="utf-8"?>
<!-- Generator: Adobe Illustrator 26.3.1, SVG Export Plug-In . SVG Version: 6.00 Build 0)  -->
<svg version="1.1" id="Layer_1" xmlns="http://www.w3.org/2000/svg" xmlns:xlink="http://www.w3.org/1999/xlink" x="0px" y="0px"
	 width="33" height="34" viewBox="0 0 33 34"  style="enable-background:new 0 0 33 34;" xml:space="preserve">
<style type="text/css">
	.loadingSpinner-st0{fill:current;}
</style>
<path class="loadingSpinner-st0" d="M32.6,9.8C30.2,3.7,24.4,0,17,0C7.6,0,0,7.6,0,17s7.6,17,17,17c1.6,0,3.1-0.2,4.6-0.6c0.8-0.2,1.4-1,1.4-1.9
	c0-0.6-0.3-1.2-0.8-1.6c-0.5-0.4-1.2-0.5-1.8-0.4C19.3,29.8,18.2,30,17,30C9.8,30,4,24.2,4,17C4,9.8,9.8,4,17,4
	c5,0,9.5,2.8,11.7,7.3c0.3,0.6,0.8,1,1.3,1.2c0.6,0.2,1.2,0.1,1.7-0.1C32.6,11.8,33,10.8,32.6,9.8z"/>
</svg>
