<svg width="241" height="131" viewBox="0 0 241 131" fill="none" xmlns="http://www.w3.org/2000/svg">
<path d="M50.9326 71.7847C49.6523 71.8403 48.7246 71.9888 48.1494 72.23C47.5742 72.4712 47.1753 72.9165 46.9526 73.5659C46.7485 74.2153 46.6465 75.2544 46.6465 76.6831V104.96C46.6465 106.389 46.7485 107.428 46.9526 108.078C47.1753 108.727 47.5742 109.172 48.1494 109.414C48.7246 109.655 49.6523 109.803 50.9326 109.859V111C48.8174 110.889 45.8301 110.833 41.9707 110.833C37.9072 110.833 34.9014 110.889 32.9531 111V109.859C34.3262 109.803 35.3188 109.655 35.9312 109.414C36.562 109.172 36.9888 108.727 37.2114 108.078C37.4526 107.428 37.5732 106.389 37.5732 104.96V75.2915L23.8521 111.083H22.9336L7.54248 74.3174V101.648C7.54248 103.912 7.65381 105.563 7.87646 106.603C8.11768 107.642 8.61865 108.402 9.37939 108.885C10.1401 109.367 11.374 109.692 13.0811 109.859V111C11.6152 110.889 9.55566 110.833 6.90234 110.833C4.80566 110.833 3.1543 110.889 1.94824 111V109.859C3.19141 109.692 4.10986 109.376 4.70361 108.913C5.29736 108.43 5.69629 107.697 5.90039 106.714C6.12305 105.73 6.23438 104.274 6.23438 102.344V76.6831C6.23438 75.2544 6.12305 74.2153 5.90039 73.5659C5.69629 72.9165 5.30664 72.4712 4.73145 72.23C4.15625 71.9888 3.22852 71.8403 1.94824 71.7847V70.6436C3.1543 70.7549 4.80566 70.8105 6.90234 70.8105C10.4277 70.8105 13.4336 70.7549 15.9199 70.6436L27.4146 98.3643L37.9351 70.8105H41.9707C45.8301 70.8105 48.8174 70.7549 50.9326 70.6436V71.7847ZM67.4927 80.7188C69.4224 80.7188 71.0737 80.9229 72.4468 81.3311C73.8198 81.7207 74.9517 82.3701 75.8423 83.2793C76.6401 84.0957 77.1782 85.1069 77.4565 86.313C77.7349 87.5005 77.874 89.1519 77.874 91.2671V106.77C77.874 107.697 77.9575 108.356 78.1245 108.746C78.3101 109.117 78.6348 109.302 79.0986 109.302C79.4512 109.302 79.7852 109.219 80.1006 109.052C80.416 108.885 80.7778 108.644 81.186 108.328L81.7705 109.302C80.8799 110.026 79.9243 110.555 78.9038 110.889C77.8833 111.223 76.668 111.39 75.2578 111.39C73.3096 111.39 71.9087 110.963 71.0552 110.109C70.2202 109.256 69.7935 108.143 69.7749 106.77C68.8472 108.31 67.6318 109.469 66.1289 110.249C64.6445 111.009 63.0581 111.39 61.3696 111.39C59.1987 111.39 57.4546 110.824 56.1372 109.692C54.8198 108.542 54.1611 106.946 54.1611 104.905C54.1611 102.919 54.8105 101.287 56.1094 100.006C57.4082 98.7075 59.4307 97.5479 62.1768 96.5273C62.4551 96.4346 62.687 96.3418 62.8726 96.249C64.5239 95.6367 65.7856 95.1265 66.6577 94.7183C67.5483 94.3101 68.272 93.8369 68.8286 93.2988C69.3853 92.7607 69.6636 92.1299 69.6636 91.4062V86.9531C69.6636 85.376 69.2925 84.1328 68.5503 83.2236C67.8081 82.3145 66.6299 81.8599 65.0156 81.8599C64.2734 81.8599 63.5312 81.9805 62.7891 82.2217C62.0469 82.4443 61.4346 82.7876 60.9521 83.2515C62.0098 83.604 62.8354 84.1606 63.4292 84.9214C64.0229 85.6821 64.3198 86.6191 64.3198 87.7324C64.3198 88.9199 63.8931 89.9033 63.0396 90.6826C62.186 91.4434 61.0635 91.8237 59.6719 91.8237C58.4473 91.8237 57.4639 91.4155 56.7217 90.5991C55.998 89.7642 55.6362 88.7065 55.6362 87.4263C55.6362 85.4966 56.7031 83.9102 58.8369 82.667C61.1562 81.3682 64.0415 80.7188 67.4927 80.7188ZM69.6636 93.7441C69.4224 94.1523 69.0327 94.5605 68.4946 94.9688C67.9751 95.377 67.1865 95.9058 66.1289 96.5552C64.9229 97.4458 63.9766 98.4106 63.29 99.4497C62.6035 100.47 62.2603 101.76 62.2603 103.318C62.2603 104.821 62.585 105.935 63.2344 106.658C63.8838 107.382 64.7466 107.744 65.8228 107.744C67.2886 107.744 68.5688 106.974 69.6636 105.434V93.7441ZM101.726 81.5537V82.6948H94.9907V105.684C94.9907 106.816 95.1948 107.632 95.603 108.133C96.0112 108.616 96.6421 108.857 97.4956 108.857C99.0913 108.857 100.39 107.716 101.392 105.434L102.338 105.962C100.91 109.859 98.312 111.807 94.5454 111.807C92.022 111.807 90.1201 111.167 88.8398 109.887C88.042 109.089 87.4946 108.087 87.1978 106.881C86.9194 105.656 86.7803 104.005 86.7803 101.927V82.6948H81.9932V81.5537H86.7803V74.0112C90.0459 73.9741 92.7827 73.3618 94.9907 72.1743V81.5537H101.726ZM120.151 81.5537V82.6948H113.416V105.684C113.416 106.816 113.62 107.632 114.028 108.133C114.436 108.616 115.067 108.857 115.92 108.857C117.516 108.857 118.815 107.716 119.817 105.434L120.763 105.962C119.334 109.859 116.737 111.807 112.97 111.807C110.447 111.807 108.545 111.167 107.265 109.887C106.467 109.089 105.919 108.087 105.623 106.881C105.344 105.656 105.205 104.005 105.205 101.927V82.6948H100.418V81.5537H105.205V74.0112C108.471 73.9741 111.208 73.3618 113.416 72.1743V81.5537H120.151ZM138.409 107.104C141.544 107.104 144.04 105.582 145.896 102.539L146.925 102.929C146.443 104.469 145.691 105.916 144.671 107.271C143.669 108.606 142.389 109.701 140.83 110.555C139.271 111.39 137.5 111.807 135.514 111.807C132.898 111.807 130.606 111.25 128.64 110.137C126.673 109.024 125.133 107.326 124.02 105.044C122.925 102.762 122.377 99.9321 122.377 96.5552C122.377 93.1226 122.962 90.2188 124.131 87.8438C125.318 85.4688 126.96 83.6875 129.057 82.5C131.154 81.3125 133.575 80.7188 136.321 80.7188C143.465 80.7188 147.037 84.9399 147.037 93.3823H131.089C131.015 94.1245 130.978 95.0244 130.978 96.082C130.978 98.5869 131.33 100.665 132.035 102.316C132.74 103.968 133.659 105.183 134.791 105.962C135.922 106.723 137.128 107.104 138.409 107.104ZM135.987 81.9434C134.633 81.9434 133.501 82.7876 132.592 84.4761C131.701 86.1646 131.145 88.7715 130.922 92.2969H139.856C139.912 89.3281 139.605 86.8604 138.938 84.8936C138.288 82.9268 137.305 81.9434 135.987 81.9434ZM169.664 80.7188C170.833 80.7188 171.807 80.9692 172.586 81.4702C173.366 81.9712 173.941 82.6206 174.312 83.4185C174.683 84.2163 174.869 85.0698 174.869 85.979C174.869 87.3892 174.46 88.5396 173.644 89.4302C172.846 90.3208 171.779 90.7661 170.443 90.7661C169.126 90.7661 168.087 90.4414 167.326 89.792C166.565 89.124 166.185 88.2241 166.185 87.0923C166.185 85.2739 167.02 83.8081 168.69 82.6948C168.449 82.6021 168.198 82.5557 167.938 82.5557C167.716 82.5557 167.447 82.6021 167.131 82.6948C166.167 82.8618 165.285 83.335 164.487 84.1143C163.689 84.875 163.068 85.7935 162.623 86.8696C162.177 87.9458 161.955 89.0034 161.955 90.0425V105.127C161.955 106.333 162.149 107.28 162.539 107.966C162.929 108.634 163.504 109.107 164.265 109.386C165.025 109.664 166.037 109.803 167.298 109.803V111C167.094 111 166.677 110.981 166.046 110.944C162.094 110.833 159.496 110.777 158.253 110.777C156.286 110.777 153.92 110.842 151.156 110.972L150.098 111V109.803C151.007 109.803 151.722 109.683 152.241 109.441C152.761 109.2 153.141 108.783 153.382 108.189C153.624 107.595 153.744 106.77 153.744 105.712V87.7324C153.744 85.9697 153.466 84.6895 152.909 83.8916C152.371 83.0938 151.434 82.6948 150.098 82.6948V81.498C151.49 81.6279 152.668 81.6929 153.633 81.6929C156.861 81.6929 159.635 81.4238 161.955 80.8857V86.2017C162.678 84.5874 163.708 83.27 165.044 82.2495C166.398 81.229 167.938 80.7188 169.664 80.7188Z" fill="#E6DAE4"/>
<path d="M134.6 45.8364C138.626 45.8364 142.151 46.6528 145.176 48.2856C148.2 49.9185 150.547 52.2935 152.217 55.4106C153.887 58.5093 154.722 62.2017 154.722 66.4878C154.722 70.6812 153.859 74.3921 152.134 77.6206C150.427 80.8491 148.042 83.354 144.981 85.1353C141.938 86.9165 138.459 87.8071 134.544 87.8071C130.518 87.8071 126.983 86.9907 123.94 85.3579C120.916 83.7251 118.568 81.3594 116.898 78.2607C115.247 75.1436 114.421 71.4419 114.421 67.1558C114.421 62.9624 115.275 59.2515 116.982 56.0229C118.689 52.7944 121.073 50.2896 124.135 48.5083C127.196 46.7271 130.685 45.8364 134.6 45.8364ZM134.349 46.8662C132.252 46.8662 130.416 47.7197 128.838 49.4268C127.261 51.1152 126.037 53.481 125.165 56.5239C124.311 59.5483 123.884 63.0181 123.884 66.9331C123.884 70.8667 124.367 74.3457 125.332 77.3701C126.296 80.376 127.604 82.6953 129.256 84.3281C130.926 85.9609 132.763 86.7773 134.767 86.7773C136.863 86.7773 138.7 85.9331 140.277 84.2446C141.873 82.5376 143.098 80.1719 143.951 77.1475C144.823 74.1045 145.259 70.6255 145.259 66.7104C145.259 62.7583 144.777 59.2793 143.812 56.2734C142.847 53.2676 141.53 50.9482 139.86 49.3154C138.208 47.6826 136.372 46.8662 134.349 46.8662ZM181.441 57.7207C183.482 57.7207 184.938 57.6465 185.811 57.498V58.6948C185.031 58.8989 184.326 59.3721 183.695 60.1143C183.064 60.8379 182.471 61.9976 181.914 63.5933L173.564 87.1113C172.952 87.0557 172.331 87.0278 171.7 87.0278C171.106 87.0278 170.484 87.0557 169.835 87.1113L159.704 61.8955C158.832 59.7617 157.728 58.6948 156.392 58.6948V57.498C158.934 57.7021 161.634 57.8042 164.491 57.8042C167.033 57.8042 169.501 57.7021 171.895 57.498V58.6948C171.041 58.6948 170.382 58.7227 169.918 58.7783C169.473 58.8154 169.093 58.9546 168.777 59.1958C168.48 59.437 168.332 59.8174 168.332 60.3369C168.332 60.7451 168.425 61.2275 168.61 61.7842L175.151 79.0957L179.242 67.7681C179.836 66.0054 180.133 64.4932 180.133 63.2314C180.133 61.8027 179.762 60.7173 179.02 59.9751C178.296 59.2144 177.275 58.7876 175.958 58.6948V57.498C177.517 57.6465 179.344 57.7207 181.441 57.7207ZM203.094 83.1035C206.23 83.1035 208.726 81.582 210.581 78.5391L211.611 78.9287C211.128 80.4688 210.377 81.916 209.356 83.2705C208.354 84.6064 207.074 85.7012 205.516 86.5547C203.957 87.3896 202.185 87.8071 200.2 87.8071C197.583 87.8071 195.292 87.2505 193.325 86.1372C191.358 85.0239 189.818 83.3262 188.705 81.0439C187.61 78.7617 187.063 75.9321 187.063 72.5552C187.063 69.1226 187.647 66.2188 188.816 63.8438C190.004 61.4688 191.646 59.6875 193.743 58.5C195.839 57.3125 198.261 56.7188 201.007 56.7188C208.15 56.7188 211.722 60.9399 211.722 69.3823H195.774C195.7 70.1245 195.663 71.0244 195.663 72.082C195.663 74.5869 196.016 76.665 196.721 78.3164C197.426 79.9678 198.344 81.1831 199.476 81.9624C200.608 82.7231 201.814 83.1035 203.094 83.1035ZM200.673 57.9434C199.318 57.9434 198.187 58.7876 197.277 60.4761C196.387 62.1646 195.83 64.7715 195.607 68.2969H204.542C204.597 65.3281 204.291 62.8604 203.623 60.8936C202.974 58.9268 201.99 57.9434 200.673 57.9434ZM234.35 56.7188C235.519 56.7188 236.493 56.9692 237.272 57.4702C238.051 57.9712 238.626 58.6206 238.998 59.4185C239.369 60.2163 239.554 61.0698 239.554 61.979C239.554 63.3892 239.146 64.5396 238.33 65.4302C237.532 66.3208 236.465 66.7661 235.129 66.7661C233.812 66.7661 232.772 66.4414 232.012 65.792C231.251 65.124 230.871 64.2241 230.871 63.0923C230.871 61.2739 231.706 59.8081 233.375 58.6948C233.134 58.6021 232.884 58.5557 232.624 58.5557C232.401 58.5557 232.132 58.6021 231.817 58.6948C230.852 58.8618 229.971 59.335 229.173 60.1143C228.375 60.875 227.753 61.7935 227.308 62.8696C226.863 63.9458 226.64 65.0034 226.64 66.0425V81.1274C226.64 82.3335 226.835 83.2798 227.225 83.9663C227.614 84.6343 228.189 85.1074 228.95 85.3857C229.711 85.6641 230.722 85.8032 231.984 85.8032V87C231.78 87 231.362 86.9814 230.731 86.9443C226.779 86.833 224.182 86.7773 222.938 86.7773C220.972 86.7773 218.606 86.8423 215.841 86.9722L214.784 87V85.8032C215.693 85.8032 216.407 85.6826 216.927 85.4414C217.446 85.2002 217.827 84.7827 218.068 84.189C218.309 83.5952 218.43 82.7695 218.43 81.7119V63.7324C218.43 61.9697 218.151 60.6895 217.595 59.8916C217.057 59.0938 216.12 58.6948 214.784 58.6948V57.498C216.175 57.6279 217.354 57.6929 218.318 57.6929C221.547 57.6929 224.321 57.4238 226.64 56.8857V62.2017C227.364 60.5874 228.394 59.27 229.729 58.2495C231.084 57.229 232.624 56.7188 234.35 56.7188Z" fill="#C2A5C3"/>
<path d="M50.9326 22.7847C49.6523 22.8403 48.7246 22.9888 48.1494 23.23C47.5742 23.4712 47.1753 23.9165 46.9526 24.5659C46.7485 25.2153 46.6465 26.2544 46.6465 27.6831V55.9604C46.6465 57.3892 46.7485 58.4282 46.9526 59.0776C47.1753 59.7271 47.5742 60.1724 48.1494 60.4136C48.7246 60.6548 49.6523 60.8032 50.9326 60.8589V62C48.8174 61.8887 45.8301 61.833 41.9707 61.833C37.9072 61.833 34.9014 61.8887 32.9531 62V60.8589C34.3262 60.8032 35.3188 60.6548 35.9312 60.4136C36.562 60.1724 36.9888 59.7271 37.2114 59.0776C37.4526 58.4282 37.5732 57.3892 37.5732 55.9604V26.2915L23.8521 62.0835H22.9336L7.54248 25.3174V52.6484C7.54248 54.9121 7.65381 56.5635 7.87646 57.6025C8.11768 58.6416 8.61865 59.4023 9.37939 59.8848C10.1401 60.3672 11.374 60.6919 13.0811 60.8589V62C11.6152 61.8887 9.55566 61.833 6.90234 61.833C4.80566 61.833 3.1543 61.8887 1.94824 62V60.8589C3.19141 60.6919 4.10986 60.3765 4.70361 59.9126C5.29736 59.4302 5.69629 58.6973 5.90039 57.7139C6.12305 56.7305 6.23438 55.2739 6.23438 53.3442V27.6831C6.23438 26.2544 6.12305 25.2153 5.90039 24.5659C5.69629 23.9165 5.30664 23.4712 4.73145 23.23C4.15625 22.9888 3.22852 22.8403 1.94824 22.7847V21.6436C3.1543 21.7549 4.80566 21.8105 6.90234 21.8105C10.4277 21.8105 13.4336 21.7549 15.9199 21.6436L27.4146 49.3643L37.9351 21.8105H41.9707C45.8301 21.8105 48.8174 21.7549 50.9326 21.6436V22.7847ZM61.6201 17.8027C63.1973 17.8027 64.4497 18.2017 65.3774 18.9995C66.3237 19.7788 66.7969 20.8457 66.7969 22.2002C66.7969 23.5732 66.3237 24.6587 65.3774 25.4565C64.4497 26.2358 63.1973 26.6255 61.6201 26.6255C60.0059 26.6255 58.7349 26.2358 57.8071 25.4565C56.8794 24.6587 56.4155 23.5732 56.4155 22.2002C56.4155 20.8457 56.8794 19.7788 57.8071 18.9995C58.7534 18.2017 60.0244 17.8027 61.6201 17.8027ZM66.1011 56.7119C66.1011 57.7695 66.2124 58.5952 66.4351 59.189C66.6763 59.7827 67.0566 60.2002 67.5762 60.4414C68.1143 60.6826 68.8379 60.8032 69.7471 60.8032V62L68.7729 61.9722C66.2124 61.8423 63.9951 61.7773 62.1211 61.7773C60.2285 61.7773 57.937 61.8423 55.2466 61.9722L54.2446 62V60.8032C55.1538 60.8032 55.8682 60.6826 56.3877 60.4414C56.9072 60.2002 57.2876 59.7827 57.5288 59.189C57.77 58.5952 57.8906 57.7695 57.8906 56.7119V38.7324C57.8906 36.9697 57.6123 35.6895 57.0557 34.8916C56.5176 34.0938 55.5806 33.6948 54.2446 33.6948V32.498C55.6362 32.6279 56.8145 32.6929 57.7793 32.6929C61.0078 32.6929 63.7817 32.4238 66.1011 31.8857V56.7119ZM93.3765 31.7188C96.271 31.7188 98.3677 32.4609 99.6665 33.9453C100.297 34.6689 100.752 35.606 101.03 36.7563C101.309 37.9067 101.448 39.4375 101.448 41.3486V56.7119C101.448 57.7695 101.568 58.5952 101.81 59.189C102.051 59.7827 102.431 60.2002 102.951 60.4414C103.47 60.6826 104.185 60.8032 105.094 60.8032V62L104.12 61.9722C101.522 61.8423 99.3418 61.7773 97.5791 61.7773C95.7236 61.7773 93.562 61.8423 91.0942 61.9722L90.1758 62V60.8032C90.9551 60.8032 91.5581 60.6826 91.9849 60.4414C92.4302 60.2002 92.7456 59.7827 92.9312 59.189C93.1353 58.5952 93.2373 57.7695 93.2373 56.7119V38.9829C93.2373 37.4243 92.9868 36.2461 92.4858 35.4482C91.9849 34.6318 91.0664 34.2236 89.7305 34.2236C88.6729 34.2236 87.708 34.5112 86.8359 35.0864C85.9824 35.6616 85.3052 36.4595 84.8042 37.48C84.3218 38.4819 84.0806 39.5952 84.0806 40.8198V56.7119C84.0806 57.7695 84.1733 58.5952 84.3589 59.189C84.563 59.7827 84.8784 60.2002 85.3052 60.4414C85.7505 60.6826 86.3628 60.8032 87.1421 60.8032V62L86.2515 61.9722C83.8765 61.8423 81.8169 61.7773 80.0728 61.7773C78.1987 61.7773 75.9165 61.8423 73.2261 61.9722L72.2241 62V60.8032C73.1333 60.8032 73.8477 60.6826 74.3672 60.4414C74.8867 60.2002 75.2671 59.7827 75.5083 59.189C75.7495 58.5952 75.8701 57.7695 75.8701 56.7119V38.7324C75.8701 36.9697 75.5918 35.6895 75.0352 34.8916C74.4971 34.0938 73.5601 33.6948 72.2241 33.6948V32.498C73.6157 32.6279 74.7939 32.6929 75.7588 32.6929C78.9873 32.6929 81.7612 32.4238 84.0806 31.8857V37.0347C85.8062 33.4907 88.9048 31.7188 93.3765 31.7188ZM135.236 55.7656C135.236 57.5098 135.505 58.7808 136.043 59.5786C136.6 60.3765 137.546 60.7754 138.882 60.7754V61.9722C137.694 61.8608 136.516 61.8052 135.347 61.8052C132.026 61.8052 129.252 62.0649 127.025 62.5845V57.7695C125.689 61.1279 123.222 62.8071 119.622 62.8071C117.303 62.8071 115.271 62.2505 113.527 61.1372C111.783 60.0054 110.419 58.2705 109.436 55.9326C108.471 53.5947 107.988 50.6631 107.988 47.1377C107.988 43.7979 108.526 40.9683 109.603 38.6489C110.697 36.3296 112.2 34.5947 114.111 33.4443C116.041 32.2939 118.249 31.7188 120.735 31.7188C123.5 31.7188 125.597 32.4331 127.025 33.8618V24.2319C127.025 22.4692 126.747 21.189 126.19 20.3911C125.652 19.5933 124.715 19.1943 123.379 19.1943V17.9976C124.585 18.1089 125.764 18.1646 126.914 18.1646C130.254 18.1646 133.028 17.9048 135.236 17.3853V55.7656ZM121.988 60.3301C123.194 60.3301 124.27 59.9033 125.216 59.0498C126.163 58.1777 126.766 57.0088 127.025 55.543V35.2812C126.042 34.001 124.66 33.3608 122.878 33.3608C120.875 33.3608 119.325 34.5205 118.23 36.8398C117.136 39.1592 116.598 42.6289 116.616 47.249C116.598 51.9062 117.052 55.2554 117.98 57.2964C118.908 59.3188 120.244 60.3301 121.988 60.3301Z" fill="white"/>
<path d="M170.656 106.742C171.06 106.742 171.432 106.842 171.773 107.043C172.115 107.243 172.385 107.516 172.586 107.859C172.786 108.201 172.887 108.573 172.887 108.977C172.887 109.38 172.786 109.753 172.586 110.094C172.385 110.435 172.115 110.706 171.773 110.906C171.432 111.107 171.06 111.207 170.656 111.207C170.253 111.207 169.879 111.107 169.535 110.906C169.194 110.706 168.923 110.435 168.723 110.094C168.522 109.753 168.422 109.38 168.422 108.977C168.422 108.573 168.522 108.201 168.723 107.859C168.923 107.516 169.194 107.243 169.535 107.043C169.879 106.842 170.253 106.742 170.656 106.742ZM170.656 110.953C171 110.953 171.316 110.865 171.605 110.688C171.897 110.508 172.128 110.267 172.297 109.965C172.466 109.66 172.551 109.331 172.551 108.977C172.551 108.62 172.466 108.29 172.297 107.988C172.128 107.686 171.898 107.447 171.609 107.27C171.32 107.09 171.003 107 170.656 107C170.31 107 169.991 107.09 169.699 107.27C169.41 107.447 169.181 107.686 169.012 107.988C168.842 108.29 168.758 108.62 168.758 108.977C168.758 109.331 168.842 109.66 169.012 109.965C169.181 110.267 169.41 110.508 169.699 110.688C169.991 110.865 170.31 110.953 170.656 110.953ZM172.004 110.086C171.921 110.185 171.781 110.234 171.586 110.234C171.417 110.234 171.288 110.207 171.199 110.152C171.113 110.095 171.059 110.007 171.035 109.887L170.918 109.305C170.9 109.211 170.876 109.142 170.848 109.098C170.822 109.051 170.776 109.016 170.711 108.992C170.646 108.966 170.547 108.949 170.414 108.941V109.77C170.414 109.853 170.419 109.914 170.43 109.953C170.44 109.992 170.457 110.02 170.48 110.035C170.507 110.048 170.546 110.057 170.598 110.062V110.184C170.509 110.184 170.439 110.182 170.387 110.18L170.094 110.176L169.758 110.18C169.706 110.182 169.641 110.184 169.562 110.184V110.062C169.617 110.057 169.656 110.048 169.68 110.035C169.706 110.02 169.724 109.992 169.734 109.953C169.745 109.914 169.75 109.853 169.75 109.77V108.016C169.75 107.93 169.745 107.867 169.734 107.828C169.724 107.786 169.706 107.758 169.68 107.742C169.656 107.727 169.617 107.716 169.562 107.711V107.594C169.641 107.599 169.807 107.602 170.062 107.602L170.562 107.598C170.617 107.595 170.68 107.594 170.75 107.594C171.401 107.594 171.727 107.803 171.727 108.223C171.727 108.368 171.664 108.503 171.539 108.625C171.417 108.745 171.204 108.828 170.902 108.875C171.069 108.891 171.201 108.918 171.297 108.957C171.396 108.993 171.469 109.043 171.516 109.105C171.562 109.165 171.595 109.245 171.613 109.344L171.73 109.867C171.743 109.932 171.758 109.98 171.773 110.012C171.792 110.04 171.818 110.055 171.852 110.055C171.888 110.055 171.918 110.039 171.941 110.008L172.004 110.086ZM170.625 107.711C170.539 107.711 170.482 107.727 170.453 107.758C170.427 107.789 170.414 107.849 170.414 107.938V108.809H170.512C170.874 108.809 171.055 108.629 171.055 108.27C171.055 107.897 170.911 107.711 170.625 107.711Z" fill="#E6DAE4"/>
<path d="M7.38875 130V120.585H5.7075V124.297H3.5555V120.585H1.87425V130H3.5555V125.938H5.7075V130H7.38875ZM14.4909 130V128.386H11.2225V125.777H13.3342V124.19H11.2225V122.199H14.3698V120.585H9.54128V130H14.4909ZM20.9682 130V128.359H18.0227V120.585H16.3414V130H20.9682ZM28.2091 123.584C28.2091 121.607 26.9986 120.585 25.2098 120.585H22.7081V130H24.3893V126.624H25.1425C26.7431 126.624 28.2091 125.615 28.2091 123.584ZM26.5279 123.611C26.5279 124.472 26.084 124.983 25.2232 124.983H24.3893V122.226H25.1963C26.1782 122.226 26.5279 122.831 26.5279 123.611ZM31.5588 130V120.585H29.8776V130H31.5588ZM39.3416 130V120.585H37.8083V124.485C37.8083 125.077 37.8487 126.099 37.8621 126.678C37.6873 126.153 37.351 125.279 37.1224 124.714L35.468 120.585H33.7733V130H35.3066V126.032C35.3066 125.44 35.2932 124.472 35.2797 123.894C35.4546 124.445 35.7505 125.212 35.9926 125.804L37.7276 130H39.3416ZM47.263 126.597V124.983H44.2905V126.557H45.6355C45.6355 127.956 45.3262 128.467 44.304 128.467C43.2952 128.467 42.8783 127.283 42.8783 125.279C42.8783 123.275 43.2683 122.118 44.2771 122.118C44.9227 122.118 45.3531 122.441 45.5952 123.329L47.1688 122.818C46.7653 121.19 45.7297 120.437 44.304 120.437C42.1116 120.437 41.1567 122.589 41.1567 125.306C41.1567 128.009 42.0847 130.148 44.2771 130.148C46.2408 130.148 47.263 128.857 47.263 126.597ZM58.5281 120.585H56.6989L55.9726 122.495C55.6767 123.275 55.3673 124.243 55.2732 124.687C55.1925 124.243 54.8831 123.315 54.5738 122.495L53.8475 120.585H51.9914L54.4124 126.476V130H56.0936V126.449L58.5281 120.585ZM65.342 125.279C65.342 122.576 64.4139 120.437 62.235 120.437C60.0427 120.437 59.0877 122.589 59.0877 125.306C59.0877 128.009 60.0158 130.148 62.2081 130.148C64.387 130.148 65.342 127.996 65.342 125.279ZM63.6204 125.306C63.6204 127.31 63.2303 128.467 62.235 128.467C61.2263 128.467 60.8093 127.283 60.8093 125.279C60.8093 123.275 61.1994 122.118 62.2081 122.118C63.2034 122.118 63.6204 123.302 63.6204 125.306ZM72.7115 126.234V120.585H71.0303V126.261C71.0303 127.888 70.7075 128.48 69.9274 128.48C69.1607 128.48 68.7976 127.888 68.7976 126.261V120.585H67.1163V126.261C67.1163 128.601 67.9099 130.148 69.9139 130.148C71.9852 130.148 72.7115 128.682 72.7115 126.234ZM83.828 123.584C83.828 121.607 82.6175 120.585 80.8287 120.585H78.327V130H80.0082V126.624H80.7614C82.362 126.624 83.828 125.615 83.828 123.584ZM82.1468 123.611C82.1468 124.472 81.7029 124.983 80.8421 124.983H80.0082V122.226H80.8152C81.7971 122.226 82.1468 122.831 82.1468 123.611ZM90.9572 130L89.3432 126.086C90.2578 125.656 90.9303 124.835 90.9303 123.517C90.9303 121.567 89.7601 120.585 87.9309 120.585H85.4292V130H87.1105V126.422H87.6619L89.128 130H90.9572ZM89.249 123.544C89.249 124.405 88.8052 124.849 87.9444 124.849H87.1105V122.226H87.8502C88.859 122.226 89.249 122.697 89.249 123.544ZM98.4495 125.279C98.4495 122.576 97.5214 120.437 95.3425 120.437C93.1502 120.437 92.1952 122.589 92.1952 125.306C92.1952 128.009 93.1233 130.148 95.3156 130.148C97.4945 130.148 98.4495 127.996 98.4495 125.279ZM96.7279 125.306C96.7279 127.31 96.3378 128.467 95.3425 128.467C94.3338 128.467 93.9168 127.283 93.9168 125.279C93.9168 123.275 94.3069 122.118 95.3156 122.118C96.3109 122.118 96.7279 123.302 96.7279 125.306ZM104.861 122.199V120.585H99.2796V122.199H101.23V130H102.911V122.199H104.861ZM111.423 130V128.386H108.154V125.777H110.266V124.19H108.154V122.199H111.302V120.585H106.473V130H111.423ZM118.365 127.74L116.913 127.122C116.563 128.144 116.267 128.467 115.689 128.467C114.774 128.467 114.33 127.283 114.33 125.279C114.33 123.275 114.761 122.118 115.662 122.118C116.281 122.118 116.536 122.468 116.778 123.329L118.352 122.818C117.989 121.459 117.289 120.437 115.689 120.437C113.604 120.437 112.609 122.589 112.609 125.306C112.609 128.009 113.577 130.148 115.662 130.148C117.101 130.148 117.921 129.287 118.365 127.74ZM125.052 122.199V120.585H119.47V122.199H121.42V130H123.101V122.199H125.052ZM136.058 120.585H134.229L133.502 122.495C133.206 123.275 132.897 124.243 132.803 124.687C132.722 124.243 132.413 123.315 132.104 122.495L131.377 120.585H129.521L131.942 126.476V130H133.623V126.449L136.058 120.585ZM142.872 125.279C142.872 122.576 141.944 120.437 139.765 120.437C137.572 120.437 136.617 122.589 136.617 125.306C136.617 128.009 137.546 130.148 139.738 130.148C141.917 130.148 142.872 127.996 142.872 125.279ZM141.15 125.306C141.15 127.31 140.76 128.467 139.765 128.467C138.756 128.467 138.339 127.283 138.339 125.279C138.339 123.275 138.729 122.118 139.738 122.118C140.733 122.118 141.15 123.302 141.15 125.306ZM150.241 126.234V120.585H148.56V126.261C148.56 127.888 148.237 128.48 147.457 128.48C146.691 128.48 146.327 127.888 146.327 126.261V120.585H144.646V126.261C144.646 128.601 145.44 130.148 147.444 130.148C149.515 130.148 150.241 128.682 150.241 126.234ZM157.881 130L156.267 126.086C157.182 125.656 157.855 124.835 157.855 123.517C157.855 121.567 156.684 120.585 154.855 120.585H152.353V130H154.035V126.422H154.586L156.052 130H157.881ZM156.173 123.544C156.173 124.405 155.729 124.849 154.869 124.849H154.035V122.226H154.774C155.783 122.226 156.173 122.697 156.173 123.544ZM168.685 127.081C168.685 125.925 168.053 125.239 167.3 124.943C168.053 124.62 168.456 123.894 168.456 123.1C168.456 121.54 167.38 120.585 165.659 120.585H163.117V130H165.565C167.582 130 168.685 129.018 168.685 127.081ZM166.788 123.167C166.788 123.705 166.533 124.19 165.712 124.19H164.758V122.132H165.672C166.493 122.132 166.788 122.522 166.788 123.167ZM167.017 127.122C167.017 127.902 166.614 128.453 165.659 128.453H164.758V125.696H165.605C166.587 125.696 167.017 126.14 167.017 127.122ZM175.944 130L174.33 126.086C175.244 125.656 175.917 124.835 175.917 123.517C175.917 121.567 174.747 120.585 172.918 120.585H170.416V130H172.097V126.422H172.649L174.115 130H175.944ZM174.236 123.544C174.236 124.405 173.792 124.849 172.931 124.849H172.097V122.226H172.837C173.846 122.226 174.236 122.697 174.236 123.544ZM183.49 130L181.082 120.585H179.441L177.034 130H178.755L179.199 128.036H181.311L181.755 130H183.49ZM180.948 126.463H179.562L179.818 125.319C179.993 124.553 180.181 123.544 180.248 123.06C180.315 123.531 180.531 124.62 180.692 125.346L180.948 126.463ZM186.894 130V120.585H185.213V130H186.894ZM194.677 130V120.585H193.144V124.485C193.144 125.077 193.184 126.099 193.198 126.678C193.023 126.153 192.686 125.279 192.458 124.714L190.803 120.585H189.109V130H190.642V126.032C190.642 125.44 190.629 124.472 190.615 123.894C190.79 124.445 191.086 125.212 191.328 125.804L193.063 130H194.677ZM205.846 130V120.585H204.165V124.297H202.013V120.585H200.332V130H202.013V125.938H204.165V130H205.846ZM212.948 130V128.386H209.68V125.777H211.792V124.19H209.68V122.199H212.827V120.585H207.999V130H212.948ZM220.757 130L218.35 120.585H216.709L214.301 130H216.023L216.467 128.036H218.578L219.022 130H220.757ZM218.215 126.463H216.83L217.085 125.319C217.26 124.553 217.448 123.544 217.516 123.06C217.583 123.531 217.798 124.62 217.96 125.346L218.215 126.463ZM227.04 130V128.359H224.095V120.585H222.413V130H227.04ZM232.589 122.199V120.585H227.007V122.199H228.958V130H230.639V122.199H232.589ZM239.715 130V120.585H238.034V124.297H235.882V120.585H234.201V130H235.882V125.938H238.034V130H239.715Z" fill="white"/>
</svg>
