<svg width="48" height="48" viewBox="0 0 48 48" fill="none" xmlns="http://www.w3.org/2000/svg">
<circle cx="24" cy="24" r="23" stroke="#46304B" stroke-width="2"/>
<mask id="path-2-inside-1_2111_73114" fill="white">
<path fill-rule="evenodd" clip-rule="evenodd" d="M16.0781 21.9217C16.0781 17.5467 19.6248 14 23.9999 14C28.3749 14 31.9216 17.5467 31.9216 21.9217V26.354L33.3223 27.8542C34.2748 28.8742 34.2098 30.476 33.1777 31.4155C32.7646 31.7916 32.2261 32 31.6674 32H23.9999H16.3323C15.7737 32 15.2351 31.7916 14.822 31.4155C13.7899 30.476 13.7249 28.8742 14.6774 27.8542L16.0781 26.354V21.9217Z"/>
</mask>
<path d="M31.9216 26.354H29.9216C29.9216 26.8608 30.1139 27.3486 30.4598 27.719L31.9216 26.354ZM33.3223 27.8542L31.8605 29.2191L31.8605 29.2191L33.3223 27.8542ZM33.1777 31.4155L31.8314 29.9365L31.8314 29.9365L33.1777 31.4155ZM14.822 31.4155L16.1683 29.9365L16.1683 29.9365L14.822 31.4155ZM14.6774 27.8542L16.1392 29.2191L14.6774 27.8542ZM16.0781 26.354L17.54 27.719C17.8858 27.3486 18.0781 26.8608 18.0781 26.354H16.0781ZM23.9999 12C18.5203 12 14.0781 16.4421 14.0781 21.9217H18.0781C18.0781 18.6512 20.7294 16 23.9999 16V12ZM23.9999 16C27.2703 16 29.9216 18.6512 29.9216 21.9217H33.9216C33.9216 16.4421 29.4795 12 23.9999 12V16ZM29.9216 21.9217V26.354H33.9216V21.9217H29.9216ZM30.4598 27.719L31.8605 29.2191L34.7841 26.4892L33.3834 24.9891L30.4598 27.719ZM31.8605 29.2191C32.0524 29.4246 32.0393 29.7473 31.8314 29.9365L34.5241 32.8945C36.3803 31.2048 36.4972 28.3238 34.7841 26.4892L31.8605 29.2191ZM31.8314 29.9365C31.7865 29.9774 31.7281 30 31.6674 30V34C32.724 34 33.7427 33.6058 34.5241 32.8945L31.8314 29.9365ZM31.6674 30H23.9999V34H31.6674V30ZM16.3323 34H23.9999V30H16.3323V34ZM13.4757 32.8945C14.257 33.6058 15.2757 34 16.3323 34V30C16.2717 30 16.2132 29.9774 16.1683 29.9365L13.4757 32.8945ZM13.2156 26.4892C11.5025 28.3238 11.6195 31.2048 13.4757 32.8945L16.1683 29.9365C15.9604 29.7473 15.9473 29.4246 16.1392 29.2191L13.2156 26.4892ZM14.6163 24.9891L13.2156 26.4892L16.1392 29.2191L17.54 27.719L14.6163 24.9891ZM14.0781 21.9217V26.354H18.0781V21.9217H14.0781Z" fill="#815889" mask="url(#path-2-inside-1_2111_73114)"/>
<path d="M21.5547 32.968C21.0952 32.6616 20.4743 32.7858 20.1679 33.2453C19.8616 33.7049 19.9858 34.3257 20.4453 34.6321L21.5547 32.968ZM27.5547 34.6321C28.0142 34.3257 28.1384 33.7049 27.8321 33.2453C27.5257 32.7858 26.9048 32.6616 26.4453 32.968L27.5547 34.6321ZM20.4453 34.6321L21.2265 35.1529L22.3359 33.4888L21.5547 32.968L20.4453 34.6321ZM26.7735 35.1529L27.5547 34.6321L26.4453 32.968L25.6641 33.4888L26.7735 35.1529ZM21.2265 35.1529C22.906 36.2726 25.094 36.2726 26.7735 35.1529L25.6641 33.4888C24.6564 34.1606 23.3436 34.1606 22.3359 33.4888L21.2265 35.1529Z" fill="#815889"/>
<rect x="23.4514" y="12.5" width="1" height="2" rx="0.5" fill="black" stroke="#815889"/>
</svg>
