<svg viewBox="0 0 24 24" fill="current" xmlns="http://www.w3.org/2000/svg">
<mask id="path-1-inside-1_312_23873" fill="white">
<path fill-rule="evenodd" clip-rule="evenodd" d="M4.07827 9.92171C4.07827 5.54667 7.62494 2 12 2C16.375 2 19.9217 5.54667 19.9217 9.92171V14.354L21.3225 15.8542C22.2749 16.8742 22.2099 18.476 21.1778 19.4155C20.7647 19.7916 20.2262 20 19.6675 20H12H4.33244C3.77379 20 3.23523 19.7916 2.82211 19.4155C1.79007 18.476 1.72503 16.8742 2.67751 15.8542L4.07827 14.354V9.92171Z"/>
</mask>
<path d="M19.9217 14.354H17.9217C17.9217 14.8608 18.114 15.3486 18.4599 15.719L19.9217 14.354ZM21.3225 15.8542L19.8606 17.2191L19.8607 17.2191L21.3225 15.8542ZM21.1778 19.4155L19.8315 17.9365L19.8315 17.9365L21.1778 19.4155ZM2.82211 19.4155L4.16844 17.9365L4.16844 17.9365L2.82211 19.4155ZM2.67751 15.8542L4.13931 17.2191L2.67751 15.8542ZM4.07827 14.354L5.54007 15.719C5.88592 15.3486 6.07827 14.8608 6.07827 14.354H4.07827ZM12 0C6.52037 0 2.07827 4.4421 2.07827 9.92171H6.07827C6.07827 6.65124 8.72951 4 12 4V0ZM12 4C15.2705 4 17.9217 6.65124 17.9217 9.92171H21.9217C21.9217 4.4421 17.4796 0 12 0V4ZM17.9217 9.92171V14.354H21.9217V9.92171H17.9217ZM18.4599 15.719L19.8606 17.2191L22.7843 14.4892L21.3835 12.9891L18.4599 15.719ZM19.8607 17.2191C20.0525 17.4246 20.0394 17.7473 19.8315 17.9365L22.5242 20.8945C24.3804 19.2048 24.4974 16.3238 22.7843 14.4892L19.8607 17.2191ZM19.8315 17.9365C19.7867 17.9774 19.7282 18 19.6675 18V22C20.7242 22 21.7428 21.6058 22.5242 20.8945L19.8315 17.9365ZM19.6675 18H12V22H19.6675V18ZM4.33244 22H12V18H4.33244V22ZM1.47578 20.8945C2.25717 21.6058 3.2758 22 4.33244 22V18C4.27178 18 4.2133 17.9774 4.16844 17.9365L1.47578 20.8945ZM1.2157 14.4892C-0.497389 16.3238 -0.380409 19.2048 1.47579 20.8945L4.16844 17.9365C3.96055 17.7473 3.94745 17.4246 4.13931 17.2191L1.2157 14.4892ZM2.61646 12.9891L1.2157 14.4892L4.13931 17.2191L5.54007 15.719L2.61646 12.9891ZM2.07827 9.92171V14.354H6.07827V9.92171H2.07827Z" fill="current" mask="url(#path-1-inside-1_312_23873)"/>
<path d="M9.5547 20.968C9.09517 20.6616 8.4743 20.7858 8.16795 21.2453C7.8616 21.7049 7.98577 22.3257 8.4453 22.6321L9.5547 20.968ZM15.5547 22.6321C16.0142 22.3257 16.1384 21.7049 15.8321 21.2453C15.5257 20.7858 14.9048 20.6616 14.4453 20.968L15.5547 22.6321ZM8.4453 22.6321L9.2265 23.1529L10.3359 21.4888L9.5547 20.968L8.4453 22.6321ZM14.7735 23.1529L15.5547 22.6321L14.4453 20.968L13.6641 21.4888L14.7735 23.1529ZM9.2265 23.1529C10.906 24.2726 13.094 24.2726 14.7735 23.1529L13.6641 21.4888C12.6564 22.1606 11.3436 22.1606 10.3359 21.4888L9.2265 23.1529Z" fill="current"/>
<rect x="10.95px" y="0px" width="2px" height="3px" rx="1px" fill="current" stroke="current"/>
</svg>
