<svg width="112" height="104" viewBox="0 0 112 104" fill="none" xmlns="http://www.w3.org/2000/svg">
<path d="M67.4619 98.7385C66.6826 98.6445 65.3316 97.8338 65.3316 97.8338C64.7184 97.3365 64.2545 96.6749 63.9921 95.9239C62.4332 91.5206 58.2445 81.3692 53.8539 76.8469C52.6578 75.6191 51.0475 74.8979 49.3481 74.8287C43.7734 74.5886 26.9725 73.0428 23.695 63.1529C23.5355 62.6576 23.2366 62.2206 22.8352 61.8959C22.4338 61.5712 21.9474 61.3731 21.4363 61.326C19.1295 61.1308 15.0197 60.436 11.1635 58.086C5.39665 54.5727 4.90454 36.7058 5.01219 35.2497C5.31591 31.1958 7.89563 25.3618 12.0151 20.8492C13.0843 19.6878 14.3273 18.705 15.6982 17.9371C17.1092 17.1446 19.2237 15.9306 21.321 14.5936C22.6747 13.7276 23.888 12.6537 24.9176 11.4102C25.8211 10.3367 27.5646 8.90406 30.7691 8.11942C36.1899 6.79024 53.7828 2.32643 65.0033 7.28014C65.7836 7.63239 66.5872 7.92913 67.4081 8.16822C69.3727 8.72839 73.0423 9.67112 76.712 10.0712C81.8714 10.6314 89.3242 16.3912 91.9674 21.8524C92.3711 22.6776 92.8513 23.4618 93.4014 24.1946C94.2719 25.4004 95.269 26.5064 96.3752 27.4932C96.8617 27.9058 97.2853 28.3892 97.6324 28.9278L102.892 37.1C103.037 37.3317 103.199 37.5521 103.376 37.7597C104.126 38.6172 104.673 39.6373 104.976 40.7421C106.944 47.9638 110.994 68.3877 96.1041 75.1429C95.7662 75.2991 95.4157 75.4258 95.0565 75.5216C95.0257 75.5216 94.993 75.5372 94.9604 75.5489C94.5386 75.6802 94.1648 75.9359 93.8865 76.2834C93.6082 76.631 93.438 77.0547 93.3975 77.5007C93.113 80.3582 93.9454 91.9188 73.9823 86.2976" stroke="url(#paint0_angular_73_3479)" stroke-width="10" stroke-miterlimit="10" stroke-linecap="round"/>
<defs>
<radialGradient id="paint0_angular_73_3479" cx="0" cy="0" r="1" gradientUnits="userSpaceOnUse" gradientTransform="translate(56 52) rotate(155.493) scale(37.3664 39.3251)">
<stop offset="0.762431" stop-color="#46304B"/>
<stop offset="0.763374" stop-color="#AB85B0"/>
</radialGradient>
</defs>
</svg>
