<svg width="42" height="84" viewBox="0 0 42 84" fill="current" xmlns="http://www.w3.org/2000/svg">
<path d="M38.8637 82.9791C39.4044 83.6067 40.3515 83.6771 40.9791 83.1364C41.6068 82.5957 41.6772 81.6486 41.1365 81.0209L38.8637 82.9791ZM31.8761 72.5705L33.0126 71.5914L31.8761 72.5705ZM13.0607 0.439339C12.4749 -0.146446 11.5251 -0.146446 10.9393 0.439339L1.3934 9.98528C0.807612 10.5711 0.807612 11.5208 1.3934 12.1066C1.97919 12.6924 2.92893 12.6924 3.51472 12.1066L12 3.62132L20.4853 12.1066C21.0711 12.6924 22.0208 12.6924 22.6066 12.1066C23.1924 11.5208 23.1924 10.5711 22.6066 9.98528L13.0607 0.439339ZM41.1365 81.0209L33.0126 71.5914L30.7397 73.5495L38.8637 82.9791L41.1365 81.0209ZM13.5 19.0483L13.5 1.5L10.5 1.5L10.5 19.0483L13.5 19.0483ZM33.0126 71.5914C20.4242 56.9799 13.5 38.3346 13.5 19.0483L10.5 19.0483C10.5 39.0533 17.6822 58.3935 30.7397 73.5495L33.0126 71.5914Z" fill="current"/>
</svg>
