<svg width="152" height="49" viewBox="0 0 152 49" fill="none" xmlns="http://www.w3.org/2000/svg">
<path fill-rule="evenodd" clip-rule="evenodd" d="M25.6758 45.3566C14.363 45.3566 4.66639 35.976 4.66639 24.5781C4.56538 12.3732 14.5651 3.29523 25.7768 3.19437C37.1906 3.19437 46.7863 12.3732 46.9883 23.872C47.0893 36.2786 36.8876 45.4575 25.6758 45.3566ZM18.2013 10.6585C19.4134 10.7594 20.9285 10.9611 22.0396 11.4654C23.6557 12.1715 24.3627 14.4914 23.5547 16.1053C22.9486 17.2148 22.0396 18.0218 21.0295 18.7278C20.5245 19.0304 20.1204 19.333 19.7164 19.7365C18.8074 20.6443 18.1003 21.7538 17.4943 22.9642C16.9892 23.872 16.5852 24.7798 16.5852 25.7885C16.4842 28.411 19.6154 30.5292 22.2416 29.218C22.5446 29.1171 22.4436 28.8145 22.3426 28.6128C22.2416 28.411 22.1406 28.3102 21.8376 28.411C21.4335 28.5119 21.0295 28.7136 20.6255 28.7136C20.0194 28.8145 19.4134 28.5119 18.9084 28.2093C17.7973 27.6041 16.8882 26.3937 17.4943 24.7798C17.7973 24.0738 18.1003 23.3677 18.5043 22.7625C19.1104 21.653 19.9184 20.6443 20.9285 19.8374C21.6355 19.333 22.2416 18.8287 22.9486 18.2235C24.5647 16.8114 25.1708 14.4914 24.3627 12.575C24.2617 12.2724 24.1607 12.0706 23.9587 11.768C24.1607 11.6672 24.2617 11.4654 24.3627 11.3646C24.6658 10.9611 24.9688 10.5576 25.1708 10.0533C25.9788 8.43943 25.0698 6.22037 23.7567 5.5143C22.7466 4.9091 21.6355 4.70737 20.5245 4.80823C18.6053 5.00997 17.0902 6.32123 16.7872 8.2377C16.5852 9.54897 16.5852 10.7594 16.6862 12.0706C16.7872 13.281 17.1912 14.3906 17.8983 15.2984C18.6053 16.2062 19.5144 16.9122 20.3225 17.7192L20.4235 17.82C20.7265 17.9209 20.9285 17.82 21.1305 17.6183C21.3325 17.4166 21.0295 17.3157 20.9285 17.2148C20.2214 16.6096 19.6154 16.0044 18.9084 15.2984C18.1003 14.4914 17.4943 13.5836 17.3933 12.3732C17.2922 11.3646 17.2922 10.255 17.2922 9.24637C17.2922 7.6325 18.2013 6.52297 19.6154 5.91777C20.9285 5.41343 22.0396 5.61517 23.1506 6.32123C24.7668 7.43077 24.9688 9.4481 23.4537 10.8602C23.3527 10.9611 23.1506 10.9611 23.0496 10.8602C21.6355 9.85157 19.8174 9.4481 18.1003 9.34723C17.9993 9.64983 17.9993 10.6585 18.2013 10.6585ZM27.696 11.9698C27.595 12.0706 27.595 12.0706 27.595 12.1715C26.8879 13.3819 26.7869 14.5923 27.0899 15.9036C27.4939 17.3157 28.403 18.4252 29.6151 19.2322C30.2211 19.6356 30.7262 20.0391 31.2312 20.5434C32.1403 21.3504 32.8473 22.359 33.3523 23.3677C33.7564 24.0738 34.0594 24.8807 34.3624 25.6876C34.5644 26.2928 34.3624 26.898 34.0594 27.4024C33.0493 28.5119 31.3322 29.218 29.8171 28.5119C29.7161 28.5119 29.5141 28.5119 29.4131 28.5119C29.1101 28.8145 29.2111 29.1171 29.6151 29.3188C30.8272 29.8232 31.9382 29.7223 33.1503 29.1171C34.9685 28.1084 35.6755 26.3937 34.8674 24.5781C33.8574 22.1573 32.6453 19.9382 30.3221 18.5261C29.2111 17.9209 28.403 17.0131 27.999 15.8027C27.2919 14.1888 28.1 11.8689 30.0191 11.2637C31.0292 10.8602 32.1403 10.7594 33.2513 10.5576C33.6554 10.5576 33.7564 10.3559 33.6554 10.0533C33.6554 9.7507 33.4534 9.7507 33.1503 9.7507C31.5342 9.85157 29.8171 10.0533 28.403 11.062C28.302 11.062 28.302 11.062 28.1 11.062C27.3929 10.4568 26.8879 9.7507 26.9889 8.74203C27.0899 7.22903 28.1 6.32123 29.4131 5.8169C30.4231 5.5143 31.4332 5.71603 32.3423 6.1195C33.3523 6.62383 33.9584 7.3299 34.0594 8.43943C34.1604 9.64983 34.1604 10.8602 34.1604 12.0706C34.1604 13.3819 33.5544 14.3906 32.6453 15.2984C31.9382 15.9036 31.3322 16.5088 30.6252 17.2148C30.5242 17.3157 30.4231 17.5174 30.4231 17.5174C30.5242 17.6183 30.7262 17.82 30.8272 17.82C31.0292 17.82 31.2312 17.7192 31.3322 17.6183C31.8372 17.2148 32.3423 16.7105 32.8473 16.307C33.8574 15.2984 34.6654 14.1888 34.8674 12.7767C35.0695 11.2637 35.0695 9.64983 34.8674 8.13683C34.7664 7.22903 34.2614 6.4221 33.5544 5.8169C32.4433 5.00997 31.2312 4.6065 29.9181 4.80823C27.797 5.00997 26.6859 6.22037 26.2819 8.03597C25.9788 9.34723 26.4839 10.3559 27.2919 11.3646C27.3929 11.6672 27.4939 11.8689 27.696 11.9698ZM23.2517 38.1951C23.5547 37.6908 23.7567 37.2873 23.8577 36.783C24.0597 35.7743 23.9587 34.7656 23.7567 33.757C23.6557 33.1518 23.5547 32.5466 23.3527 31.9414C23.2517 31.437 22.9486 30.9327 22.8476 30.4284C22.7466 30.1258 22.6456 30.0249 22.2416 30.1258C21.4335 30.4284 20.5245 30.6301 19.6154 30.4284C17.7973 30.1258 15.9792 28.5119 15.6761 26.5954C15.6761 26.2928 15.4741 26.192 15.2721 26.3937C14.8681 26.6963 14.363 26.9989 13.959 27.3015C13.656 27.5032 13.353 27.9067 13.05 28.1084C12.949 28.2093 12.8479 28.3102 12.8479 28.411C12.7469 28.6128 12.6459 28.8145 12.5449 29.0162C12.2419 29.3188 12.3429 29.6214 12.7469 29.8232C13.656 30.2266 14.5651 30.6301 15.4741 31.0336C17.6963 32.1431 19.8174 33.4544 21.4335 35.3708C21.9386 35.976 22.3426 36.783 22.8476 37.489C23.0496 37.5899 23.0496 37.7916 23.2517 38.1951ZM37.9987 27.705C37.4936 27.0998 36.8876 26.6963 36.2815 26.3937C36.0795 26.2928 35.8775 26.2928 35.8775 26.5954C35.6755 27.8058 35.0695 28.6128 34.1604 29.4197C33.2513 30.1258 32.3423 30.6301 31.1302 30.5292C30.5242 30.4284 29.9181 30.3275 29.3121 30.1258C29.1101 30.1258 28.908 30.0249 28.807 30.3275C28.706 30.731 28.403 31.1344 28.302 31.5379C28.1 32.1431 27.999 32.7483 27.898 33.4544C27.696 34.3622 27.595 35.27 27.696 36.2786C27.696 36.9847 27.898 37.6908 28.403 38.296C28.504 38.0942 28.504 37.9934 28.605 37.8925C29.009 36.8838 29.5141 36.0769 30.2211 35.27C32.0393 33.2526 34.1604 31.9414 36.5846 30.8318C37.2916 30.5292 38.0997 30.2266 38.8067 29.8232C38.9077 29.7223 39.1097 29.6214 39.1097 29.5206C39.0087 29.218 38.9077 28.8145 38.7057 28.6128L37.9987 27.705ZM11.3328 14.9958C11.3328 15.0966 11.3328 15.0966 11.3328 15.3992C11.3328 15.9036 11.3328 15.9036 11.4338 16.2062C11.5349 16.5088 11.7369 16.9122 11.9389 17.3157C12.2419 18.0218 12.5449 18.4252 13.05 18.8287C13.252 18.9296 13.252 18.9296 13.454 19.0304C14.363 19.2322 15.2721 19.333 16.0802 19.5348C16.7872 19.7365 17.3933 20.14 17.9993 20.3417C18.1003 20.4426 18.3023 20.4426 18.4033 20.3417C18.8074 20.0391 19.1104 19.6356 19.4134 19.333C19.8174 18.9296 19.8174 18.8287 19.4134 18.5261C18.8074 17.9209 18.1003 17.3157 17.4943 16.6096C16.5852 15.7018 16.1812 14.5923 15.8782 13.4828C15.7771 13.0793 15.7771 12.575 15.6761 12.0706C15.6761 11.8689 15.5751 11.6672 15.2721 11.6672C14.6661 11.768 14.161 11.8689 13.555 11.9698C12.949 12.1715 12.3429 12.3732 11.9389 12.8776C11.5349 13.3819 11.4338 13.7854 11.2318 14.4914C11.3328 14.794 11.3328 14.5923 11.3328 14.9958ZM37.7967 18.8287C37.8977 18.8287 37.9987 18.8287 38.0997 18.7278C38.3017 18.627 38.6047 18.4252 38.7057 18.2235C39.0087 17.9209 39.3118 17.5174 39.5138 17.114C39.7158 16.8114 39.8168 16.4079 39.8168 16.1053C39.9178 15.601 40.0188 15.0966 40.0188 14.6932C40.0188 14.1888 39.9178 13.5836 39.6148 13.1802C39.4128 12.7767 39.1097 12.4741 38.8067 12.2724C37.9987 11.768 36.9886 11.5663 36.0795 11.5663C35.8775 11.5663 35.7765 11.5663 35.7765 11.768C35.6755 12.2724 35.5745 12.6758 35.5745 13.1802C35.4735 13.9871 35.1705 14.794 34.6654 15.5001C33.9584 16.6096 32.9483 17.5174 31.9382 18.3244C31.6352 18.627 31.6352 19.0304 32.0393 19.2322C32.3423 19.4339 32.6453 19.7365 32.8473 20.0391C33.0493 20.2408 33.1503 20.3417 33.3523 20.2408C33.8574 20.0391 34.3624 19.7365 34.8674 19.5348C35.8775 19.1313 36.7866 18.9296 37.7967 18.8287ZM11.5349 20.9469C11.2318 20.9469 10.7268 20.9469 10.2218 21.2495C8.80767 21.8547 8.30263 22.2582 7.7976 23.3677C7.49458 23.9729 7.39357 24.679 7.49458 25.2842C7.59559 25.7885 7.89861 26.3937 8.30263 26.7972C8.80767 27.4024 9.41371 27.8058 10.0198 28.3102C10.2218 28.5119 10.3228 28.411 10.4238 28.2093C10.5248 28.1084 10.5248 28.0076 10.6258 27.9067C11.0298 26.898 11.8379 26.192 12.5449 25.4859C13.454 24.5781 14.5651 23.9729 15.7771 23.5694C16.2822 23.4686 16.5852 23.166 16.7872 22.7625C16.9892 22.2582 16.9892 22.2582 16.4842 21.9556C14.9691 21.2495 13.858 20.9469 11.5349 20.9469ZM44.1601 24.2755C43.9581 23.9729 43.9581 23.2668 43.554 22.8634C42.948 22.1573 42.1399 21.5521 41.2309 21.3504C39.2107 20.846 37.2916 21.1486 35.3725 21.9556C34.7664 22.2582 34.7664 22.2582 34.9685 22.8634V22.9642C35.0695 23.166 35.1705 23.3677 35.3725 23.3677C36.0795 23.6703 36.8876 23.9729 37.5946 24.2755C38.6047 24.7798 39.5138 25.5868 40.2208 26.4946C40.6248 26.9989 40.9279 27.6041 41.2309 28.1084C41.4329 28.411 41.5339 28.411 41.7359 28.2093C42.0389 28.0076 42.342 27.8058 42.544 27.6041C42.847 27.3015 43.251 26.9989 43.554 26.5954C43.8571 25.9902 44.1601 25.2842 44.1601 24.2755ZM35.8775 10.255C35.7765 11.062 37.7966 10.9611 38.5037 11.1628C39.9178 11.5663 40.7259 12.575 40.9279 13.9871C41.1299 15.5001 40.6248 16.9122 39.8168 18.1226C39.3118 18.9296 38.6047 19.4339 37.5946 19.4339C36.3826 19.6356 35.2715 19.9382 34.1604 20.5434C34.0594 20.6443 33.9584 20.7452 33.9584 20.846C33.9584 21.2495 34.3624 21.4512 34.7664 21.2495C34.8675 21.2495 34.8674 21.1486 34.9685 21.1486C36.3826 20.5434 37.7967 20.14 39.3118 20.14C41.1299 20.14 42.746 20.6443 44.0591 22.0564C44.8671 22.9642 45.2712 23.9729 44.9681 25.2842C44.6651 26.4946 43.9581 27.4024 43.049 28.2093C42.746 28.5119 42.342 28.7136 41.9379 29.0162C41.6349 29.218 41.6349 29.5206 41.8369 29.8232C42.0389 30.1258 42.1399 29.924 42.342 29.8232C43.251 29.3188 43.9581 28.6128 44.5641 27.8058C46.5842 25.1833 45.7762 22.4599 43.6551 20.7452C42.645 19.9382 41.5339 19.6356 40.3218 19.5348C40.2208 19.5348 40.1198 19.5348 39.9178 19.4339C39.9178 19.333 40.0188 19.333 40.0188 19.333C41.3319 17.7192 42.0389 15.8027 41.5339 13.6845C41.3319 12.4741 40.7259 11.4654 39.6148 10.8602C38.7057 10.3559 37.5946 10.1542 36.5846 9.95243C36.2815 9.85157 35.9785 9.7507 35.8775 10.255ZM20.5245 43.7428C20.6255 43.7428 20.6255 43.8436 20.5245 43.7428C23.9587 44.8523 27.4939 44.8523 30.9282 43.8436C30.9282 43.7428 30.9282 43.7428 30.8272 43.7428C30.7262 43.7428 30.6252 43.6419 30.5242 43.6419C29.7161 43.2384 29.009 42.7341 28.605 41.8263C28.504 41.6246 28.302 41.5237 28.1 41.322C27.595 40.9185 27.0899 40.6159 26.6859 40.2124C26.2819 39.809 25.9788 39.2038 25.5748 38.6994C25.4738 38.9012 25.2718 39.2038 25.1708 39.4055C24.6658 40.2124 23.9587 40.9185 23.0496 41.4228C22.9486 41.5237 22.8476 41.6246 22.7466 41.7254C22.2416 42.6332 21.6355 43.2384 20.7265 43.6419C20.8275 43.6419 20.7265 43.7428 20.5245 43.7428ZM11.5349 19.333C11.5349 19.333 11.5349 19.4339 11.5349 19.333C11.3328 19.4339 11.3328 19.4339 11.2318 19.4339C9.61572 19.6356 8.20163 20.14 7.09055 21.4512C5.87847 22.9642 5.47444 24.7798 6.2825 26.5954C6.88854 27.9067 7.89861 29.0162 9.11069 29.8232C9.51472 30.1258 9.81774 30.0249 9.81774 29.4197C9.81774 29.218 9.61572 29.0162 9.51472 28.9154C8.50465 28.2093 7.69659 27.4024 7.09055 26.3937C6.48451 25.1833 6.48451 24.0738 7.09055 22.8634C8.10062 21.1486 9.71673 20.3417 11.7369 20.2408C13.656 20.14 15.3731 20.4426 17.0902 21.4512C17.3933 21.653 17.5953 21.4512 17.6963 21.2495C17.8983 21.0478 17.6963 20.846 17.4943 20.7452C16.1812 20.0391 14.8681 19.6356 13.353 19.5348C12.949 19.5348 12.7469 19.333 12.5449 19.1313C12.4439 19.0304 12.3429 18.9296 12.2419 18.8287C11.2318 17.5174 10.5248 16.1053 10.7268 14.3906C10.8278 13.3819 11.1308 12.575 11.9389 11.9698C12.4439 11.6672 12.949 11.3646 13.555 11.1628C14.161 10.9611 14.8681 10.8602 15.5751 10.7594C15.8782 10.6585 15.9792 10.4568 15.9792 10.255C15.9792 9.95243 15.7771 9.85157 15.5751 9.95243C14.6661 10.1542 13.757 10.255 12.949 10.4568C11.6359 10.8602 10.8278 11.768 10.3228 13.0793C9.81774 14.5923 10.0198 16.0044 10.5248 17.4166C10.7268 18.0218 11.1308 18.7278 11.5349 19.333ZM39.8168 32.0422C39.7158 32.0422 39.7158 32.0422 39.7158 32.0422C38.0997 32.6474 36.5846 33.3535 35.1705 34.2613C34.9685 34.3622 34.9685 34.463 35.0695 34.7656C35.6755 35.7743 35.7765 36.8838 35.4735 38.0942C35.0695 39.6072 34.0594 40.6159 32.7463 41.322C32.6453 41.4228 32.5443 41.4228 32.3423 41.5237C32.2413 41.5237 32.0393 41.7254 32.3423 41.7254C32.7463 41.7254 33.0493 41.6246 33.3523 41.5237C33.9584 41.2211 34.6654 40.9185 35.2715 40.6159C36.2815 40.0107 37.1906 39.1029 38.0997 38.3968C38.9077 37.6908 39.5138 36.783 39.8168 35.7743C40.1198 34.7656 40.2208 33.757 40.0188 32.6474C39.9178 32.3448 39.8168 32.1431 39.8168 32.0422ZM19.3124 41.5237C19.3124 41.4228 19.3124 41.4228 19.3124 41.5237C19.2114 41.4228 19.1104 41.322 19.0094 41.2211C17.9993 40.7168 17.1912 40.0107 16.6862 39.1029C15.8782 37.6908 15.6761 36.1778 16.5852 34.6648C16.6862 34.463 16.6862 34.3622 16.4842 34.1604C15.6761 33.6561 14.7671 33.1518 13.858 32.7483C13.252 32.5466 12.6459 32.244 12.1409 32.0422C11.9389 31.9414 11.7369 32.0422 11.7369 32.244C11.5349 33.5552 11.6359 34.8665 12.2419 36.1778C12.6459 37.0856 13.252 37.7916 13.959 38.3968C15.0701 39.5064 16.3832 40.515 17.8983 41.2211C18.2013 41.4228 18.7063 41.6246 19.3124 41.5237ZM35.6755 25.2842C36.2815 25.4859 36.2815 25.4859 36.7866 25.6876C37.8977 26.2928 38.9077 27.2006 39.5138 28.3102C40.5238 30.1258 40.9279 32.1431 40.8269 34.2613C40.7259 35.3708 40.3218 36.3795 39.7158 37.2873C39.1097 38.1951 38.3017 39.1029 37.3926 39.809C36.3826 40.6159 35.3725 41.4228 34.1604 41.9272C32.9483 42.5324 31.8372 42.5324 30.7262 41.7254C30.4231 41.5237 29.9181 41.4228 29.5141 41.6246C30.0191 42.4315 30.6252 42.835 31.4332 43.0367C32.6453 43.3393 33.7564 43.1376 34.7664 42.6332C36.5846 41.7254 38.2007 40.4142 39.5138 38.8003C40.8269 37.1864 41.5339 35.3708 41.5339 33.3535C41.5339 31.1344 40.9279 29.0162 39.7158 27.2006C38.8067 25.7885 37.0896 24.7798 35.4735 24.2755L35.6755 25.2842ZM16.2822 24.1746C15.8782 24.2755 15.5751 24.3764 15.1711 24.5781C13.353 25.2842 12.0399 26.5954 11.1308 28.411C10.2218 30.3275 9.81774 32.3448 10.0198 34.3622C10.1208 35.6734 10.5248 36.8838 11.3328 37.9934C12.1409 39.2038 13.151 40.1116 14.161 41.0194C15.0701 41.7254 15.9792 42.3306 16.9892 42.835C18.3023 43.4402 19.6154 43.541 20.9285 42.835C21.4335 42.6332 21.7366 42.2298 22.0396 41.7254C21.5345 41.6246 21.1305 41.6246 20.8275 41.8263C19.7164 42.6332 18.6053 42.6332 17.3933 42.028C15.5751 41.0194 13.959 39.809 12.5449 38.1951C11.7369 37.2873 11.1308 36.1778 10.9288 34.8665C10.7268 33.757 10.7268 32.6474 11.0298 31.5379C11.3328 29.8232 11.9389 28.2093 13.252 26.9989C14.06 26.192 15.0701 25.4859 16.1812 25.0824L16.2822 24.1746ZM26.0798 35.5726C26.0798 36.9847 26.3829 38.3968 27.2919 39.5064C27.696 40.1116 28.201 40.6159 28.908 40.8176C30.9282 41.322 32.5443 40.7168 33.8574 39.2038C34.7664 38.1951 35.0695 36.9847 34.6654 35.5726C34.5644 35.27 34.5644 35.1691 34.2614 34.8665C34.0594 34.6648 33.7564 34.7656 33.5544 34.9674C33.3523 35.1691 33.5544 35.27 33.6554 35.4717C33.7564 35.5726 33.6554 35.4717 33.7564 35.6734C34.0594 36.2786 34.0594 36.9847 33.7564 37.5899C33.1503 39.002 32.0393 39.7081 30.6252 40.1116C29.9181 40.3133 29.2111 40.2124 28.605 39.809C27.4939 39.002 26.8879 37.8925 26.7869 36.5812C26.5849 35.1691 26.8879 33.8578 27.1909 32.4457C27.898 29.4197 29.2111 26.6963 31.1302 24.3764C31.4332 24.0738 31.7362 23.7712 31.9382 23.3677C32.1403 23.0651 31.9382 22.8634 31.8372 22.6616C31.6352 22.4599 31.5342 22.6616 31.4332 22.7625C31.1302 23.0651 30.9282 23.3677 30.6252 23.6703C29.3121 25.385 28.201 27.2006 27.3929 29.218C26.6859 31.2353 26.1809 33.3535 26.0798 35.5726ZM25.4738 35.27C25.3728 33.5552 24.8678 31.6388 24.1607 29.7223C23.5547 28.1084 22.8476 26.4946 21.7366 25.0824C21.1305 24.2755 20.5245 23.5694 19.9184 22.8634C19.7164 22.5608 19.4134 22.6616 19.3124 23.0651C19.3124 23.166 19.4134 23.3677 19.4134 23.4686C20.0194 24.2755 20.6255 24.9816 21.1305 25.6876C22.9486 28.5119 24.2617 31.6388 24.5647 35.0682C24.6658 36.3795 24.5647 37.6908 23.7567 38.8003C22.9486 39.9098 21.8376 40.515 20.5245 40.2124C19.3124 39.9098 18.5043 39.2038 17.7973 38.1951C17.4943 37.6908 17.2922 37.1864 17.3933 36.6821C17.4943 36.0769 17.4943 36.2786 17.7973 35.6734C17.7973 35.5726 17.8983 35.4717 17.7973 35.3708C17.5953 34.9674 17.0902 34.9674 16.8882 35.27C16.1812 36.2786 16.3832 37.0856 16.8882 38.1951C17.6963 40.2124 19.8174 41.5237 22.1406 41.1202C22.7466 41.0194 23.2517 40.7168 23.6557 40.3133C24.9688 38.9012 25.4738 37.3882 25.4738 35.27ZM32.9483 11.3646C32.1403 11.5663 31.2312 11.6672 30.4231 11.8689C29.9181 11.9698 29.4131 12.2724 29.009 12.6758C28.706 13.1802 28.403 13.5836 28.302 14.2897C28.201 15.2984 28.605 16.1053 29.2111 16.9122C29.3121 17.114 29.5141 17.114 29.7161 16.9122C30.4231 16.2062 31.2312 15.601 31.9382 14.8949C32.8473 14.088 33.2513 13.0793 33.2513 11.8689C33.4534 11.4654 33.4534 11.4654 32.9483 11.3646ZM23.1506 14.5923C23.1506 13.5836 22.7466 12.6758 21.8376 12.2724C20.8275 11.768 19.7164 11.6672 18.6053 11.5663C18.3023 11.5663 18.2013 11.6672 18.2013 11.9698C18.3023 12.7767 18.4033 13.6845 18.9084 14.3906C19.7164 15.5001 20.8275 16.307 21.8376 17.2148C22.0396 17.3157 22.1406 17.2148 22.2416 17.114C22.7466 16.307 23.1506 15.5001 23.1506 14.5923ZM5.77746 21.9556C5.77746 21.8547 5.87847 21.8547 5.87847 21.7538C6.3835 21.0478 6.98954 20.3417 7.7976 19.9382C8.50465 19.5348 9.2117 19.2322 9.91874 19.0304C10.2218 18.9296 10.3228 18.8287 10.1208 18.5261C10.0198 18.3244 9.91874 18.0218 9.81774 17.82C9.11069 16.307 8.90868 14.6932 9.41371 12.9784C9.41371 12.8776 9.51472 12.7767 9.51472 12.6758C7.19156 15.3992 6.08048 18.4252 5.77746 21.9556ZM42.241 12.575C42.1399 12.6758 42.241 12.7767 42.241 12.8776C42.544 13.8862 42.544 14.8949 42.342 15.9036C42.1399 16.7105 41.9379 17.5174 41.5339 18.3244C41.3319 18.7278 41.3319 18.8287 41.6349 18.9296C43.251 19.4339 44.5641 20.2408 45.5742 21.653C45.5742 21.7538 45.6752 21.8547 45.6752 21.8547L45.7762 21.7538C45.5742 18.4252 44.2611 15.3992 42.241 12.575ZM25.7768 10.8602C25.5748 11.1628 25.2718 11.5663 25.0698 11.8689C24.8678 12.0706 24.8678 12.2724 24.9688 12.4741C25.5748 13.8862 25.6758 15.2984 25.0698 16.6096C24.7668 17.2148 24.3627 17.82 23.9587 18.4252C23.6557 18.8287 23.6557 18.8287 23.9587 19.2322C24.1607 19.4339 24.2617 19.5348 24.4637 19.7365C24.8678 20.2408 25.2718 20.7452 25.6758 21.3504C25.6758 21.2495 25.7768 21.2495 25.7768 21.1486C26.2819 20.4426 26.7869 19.8374 27.3929 19.1313C27.595 18.9296 27.595 18.7278 27.3929 18.5261C25.8778 16.7105 25.3728 14.6932 26.3829 12.4741C26.3829 12.3732 26.4839 12.1715 26.3829 12.0706C26.3829 11.6672 26.0798 11.2637 25.7768 10.8602ZM33.0493 9.04463C33.3523 9.04463 33.4534 8.94377 33.3523 8.64117C33.2513 8.33857 33.1503 7.9351 32.9483 7.73337C32.1403 6.7247 30.5242 6.32123 29.3121 6.92643C28.302 7.3299 27.797 8.03597 27.696 9.1455C27.696 9.34723 27.595 9.7507 28.201 10.1542C28.302 10.255 28.403 10.255 28.504 10.1542L33.0493 9.04463ZM21.1305 6.62383C20.8275 6.62383 20.5245 6.62383 20.3225 6.7247C19.3124 7.0273 18.6053 7.53163 18.3023 8.64117C18.2013 8.94377 18.3023 9.04463 18.6053 9.04463C20.1204 9.1455 21.7366 9.4481 23.0496 10.1542C23.1506 10.1542 23.3527 10.1542 23.3527 10.0533C23.8577 9.54897 23.8577 8.5403 23.5547 7.9351C22.9486 7.12817 22.1406 6.62383 21.1305 6.62383ZM39.7158 31.1344C39.7158 30.5292 39.4128 30.3275 39.0087 30.5292C37.6956 31.1344 36.2815 31.7396 34.9685 32.3448C32.7463 33.4544 30.9282 34.9674 29.7161 37.1864C29.4131 37.6908 29.2111 38.3968 29.009 39.002C28.908 39.3046 29.1101 39.5064 29.4131 39.5064C29.7161 39.6072 29.7161 39.3046 29.7161 39.1029C29.9181 37.9934 30.4231 37.1864 31.1302 36.3795C32.5443 34.7656 34.2614 33.5552 36.1805 32.6474C37.1906 32.1431 38.0997 31.7396 39.1097 31.3362C39.4128 31.2353 39.6148 31.2353 39.7158 31.1344ZM22.5446 38.6994C22.3426 38.1951 22.2416 37.9934 21.9386 37.489C21.2315 35.976 20.1204 34.8665 18.8074 33.8578C17.6963 33.0509 16.3832 32.3448 15.1711 31.6388C14.363 31.1344 13.454 30.8318 12.5449 30.4284C12.2419 30.3275 12.0399 30.3275 12.0399 30.731C11.9389 31.0336 12.1409 31.2353 12.3429 31.3362C13.252 31.7396 14.262 32.0422 15.0701 32.5466C16.7872 33.4544 18.4033 34.463 19.8174 35.8752C20.7265 36.783 21.5345 37.489 21.7366 38.9012C21.7366 39.1029 21.8376 39.3046 22.0396 39.2038C22.3426 39.1029 22.6456 39.002 22.5446 38.6994ZM42.342 34.463C42.241 35.0682 42.1399 35.6734 42.0389 36.3795C44.0591 33.757 45.2712 30.9327 45.6752 27.705C44.7661 29.0162 43.554 29.924 42.241 30.731L42.342 34.463ZM5.77746 27.705C6.2825 30.9327 7.49458 33.757 9.51472 36.3795C9.51472 36.2786 9.51472 36.1778 9.51472 35.976C9.51472 35.8752 9.41371 35.6734 9.41371 35.5726C9.11069 34.1604 9.11069 32.7483 9.41371 31.3362C9.51472 31.0336 9.41371 30.8318 9.11069 30.5292C8.50465 30.1258 7.89861 29.7223 7.39357 29.218C6.78753 28.8145 6.3835 28.2093 5.77746 27.705ZM28.302 25.8894C28.302 25.7885 28.403 25.7885 28.403 25.6876C29.3121 24.3764 30.2211 23.166 31.2312 21.9556C31.3322 21.8547 31.4332 21.653 31.2312 21.5521C30.8272 21.1486 30.4231 20.7452 30.0191 20.3417C29.8171 20.2408 29.7161 20.2408 29.6151 20.3417C29.3121 20.6443 28.908 21.0478 28.605 21.3504C27.3929 22.7625 27.4939 24.5781 28.302 25.8894ZM23.3527 25.8894C23.4537 25.7885 23.4537 25.7885 23.4537 25.6876C23.7567 24.8807 23.9587 23.9729 23.8577 23.166C23.6557 21.9556 22.8476 21.2495 21.9386 20.4426C21.8376 20.3417 21.6355 20.4426 21.5345 20.4426C21.2315 20.7452 20.9285 20.9469 20.6255 21.2495C20.1204 21.653 20.2214 21.7538 20.5245 22.1573C21.3325 23.166 22.1406 24.1746 22.8476 25.1833C23.0496 25.4859 23.1506 25.5868 23.3527 25.8894ZM18.8074 23.9729C18.6053 24.1746 18.5043 24.3764 18.5043 24.4772C18.1003 25.2842 17.6963 26.192 18.5043 26.9989C19.2114 27.8058 20.1204 28.3102 21.2315 27.9067C21.5345 27.8058 21.5345 27.705 21.4335 27.4024C20.9285 26.6963 20.5245 25.9902 20.0194 25.2842C19.7164 24.8807 19.3124 24.4772 18.8074 23.9729ZM32.7463 23.9729C32.6453 23.9729 32.6453 24.0738 32.5443 24.0738C31.6352 25.0824 30.8272 26.192 30.1201 27.4024C30.0191 27.705 30.1201 27.8058 30.3221 27.9067C31.5342 28.3102 32.4433 27.9067 33.1503 26.898C33.7564 26.192 33.4534 24.679 32.7463 23.9729ZM25.7768 7.0273C26.4839 5.71603 27.4939 4.80823 28.908 4.3039C26.8879 3.90043 24.7668 3.90043 22.7466 4.3039C24.0597 4.9091 24.9688 5.8169 25.7768 7.0273ZM27.3929 27.6041C27.797 27.2006 27.898 26.898 27.595 26.4946C26.8879 25.2842 26.6859 23.9729 27.0899 22.5608C27.3929 21.5521 28.1 20.7452 28.807 20.0391C28.908 19.9382 29.1101 19.8374 28.908 19.6356C28.706 19.4339 28.403 19.333 28.201 19.4339C27.3929 20.2408 26.6859 21.0478 26.3829 22.1573C25.8778 23.7712 26.1809 25.385 26.9889 26.7972C27.0899 27.0998 27.1909 27.3015 27.3929 27.6041ZM24.1607 27.6041C24.2617 27.5032 24.2617 27.5032 24.3627 27.4024C25.5748 25.2842 25.8778 23.166 24.5647 20.9469C24.2617 20.4426 23.7567 20.0391 23.3527 19.5348C23.1506 19.2322 22.9486 19.5348 22.7466 19.6356C22.5446 19.8374 22.6456 19.9382 22.8476 20.0391C23.1506 20.3417 23.3527 20.6443 23.6557 20.9469C24.1607 21.5521 24.5647 22.1573 24.6658 22.9642C24.8678 24.1746 24.6658 25.385 23.9587 26.4946C23.7567 26.898 23.7567 27.3015 24.1607 27.6041ZM16.5852 6.32123C15.5751 6.62383 12.2419 9.04463 11.5349 10.0533C12.6459 9.4481 13.757 9.24637 14.9691 9.1455C15.7771 9.04463 15.6761 9.04463 15.8782 8.33857C16.0802 7.6325 16.3832 7.0273 16.5852 6.32123ZM34.8674 6.32123C35.3725 7.12817 35.6755 7.9351 35.7765 8.8429C35.7765 8.94377 35.9785 9.04463 36.0795 9.04463C36.7866 9.1455 37.4936 9.24637 38.2007 9.4481C38.8067 9.54897 39.4128 9.85157 40.0188 10.0533C39.1097 8.8429 35.9785 6.62383 34.8674 6.32123ZM25.7768 26.5954C25.4738 27.0998 25.1708 27.6041 24.7668 28.1084C24.6658 28.3102 24.5647 28.5119 24.6658 28.7136C24.9688 29.5206 25.2718 30.4284 25.5748 31.2353C25.5748 31.3362 25.6758 31.437 25.6758 31.6388C26.0798 30.5292 26.4839 29.5206 26.7869 28.5119C26.7869 28.411 26.7869 28.3102 26.7869 28.2093C26.4839 27.705 26.1809 27.2006 25.7768 26.5954ZM30.6252 39.3046C31.7362 39.1029 32.4433 38.4977 32.9483 37.6908C33.1503 37.1864 33.2513 36.6821 33.0493 36.1778C32.9483 35.976 32.8473 35.8752 32.6453 36.0769C31.8372 36.783 31.1302 37.5899 30.7262 38.5986C30.7262 38.6994 30.7262 39.002 30.6252 39.3046ZM20.9285 39.2038C20.8275 39.002 20.8275 38.8003 20.7265 38.4977C20.3225 37.489 19.6154 36.6821 18.8074 35.976C18.6053 35.7743 18.5043 35.8752 18.4033 36.0769C18.4033 36.1778 18.3023 36.2786 18.3023 36.3795C18.1003 37.8925 19.7164 39.002 20.7265 39.2038C20.8275 39.2038 20.9285 39.3046 20.9285 39.2038Z" fill="white"/>
<path d="M47.6953 24.2755C47.6953 36.2786 37.8976 45.9618 25.6758 45.9618C13.555 45.9618 3.65631 36.2786 3.65631 24.2755C3.65631 12.2724 13.656 2.58917 25.7768 2.58917C37.8976 2.58917 47.6953 12.2724 47.6953 24.2755Z" stroke="white" stroke-width="0.5" stroke-miterlimit="10"/>
<path d="M50.4225 5.41342H51.1296L52.8467 20.0391L54.8668 5.41342H55.5739L57.594 20.0391L59.3111 5.41342H60.0182L57.998 21.8547H57.291L55.1698 7.22902L53.1497 21.8547H52.3416L50.4225 5.41342Z" fill="white"/>
<path d="M67.6947 15.601C67.6947 19.6356 66.4826 21.9556 64.5635 21.9556C62.6443 21.9556 61.5333 19.6356 61.5333 15.601C61.5333 11.5663 62.7454 9.14551 64.6645 9.14551C66.4826 9.24637 67.6947 11.5663 67.6947 15.601ZM66.8866 15.7018C66.8866 12.3732 66.0786 10.1542 64.5635 10.1542C62.9474 10.1542 62.2403 12.2724 62.2403 15.7018C62.2403 19.0304 63.0484 21.2495 64.5635 21.2495C66.0786 21.1486 66.8866 19.0304 66.8866 15.7018Z" fill="white"/>
<path d="M75.2702 13.0793V21.7538H74.5632V13.1802C74.5632 11.062 74.1591 10.1542 72.947 10.1542C72.139 10.1542 71.3309 10.7594 70.8259 11.9698V21.8547H70.1189V9.4481H70.8259V10.7594C71.0279 10.3559 71.735 9.24637 73.0481 9.24637C74.2601 9.24637 74.8662 9.95244 75.0682 10.9611C75.5732 10.1542 76.2803 9.24637 77.4924 9.24637C79.2095 9.24637 79.7145 10.6585 79.7145 13.0793V21.7538H79.0075V13.1802C79.0075 11.062 78.6034 10.1542 77.3914 10.1542C76.4823 10.1542 75.7752 10.9611 75.2702 11.9698C75.2702 12.2724 75.2702 12.6758 75.2702 13.0793Z" fill="white"/>
<path d="M82.1387 15.7018C82.1387 11.768 83.3508 9.34723 85.0679 9.34723C86.886 9.34723 87.8961 11.768 87.8961 15.601V16.0044H82.8457V16.1053C82.9467 19.2322 83.6538 21.2495 85.0679 21.2495C86.179 21.2495 86.886 20.0391 87.189 19.5348L87.6941 20.14C87.391 20.7452 86.482 22.0564 85.0679 22.0564C83.3508 22.0564 82.1387 19.8374 82.1387 15.7018ZM87.189 15.0966V14.9958C87.088 12.1715 86.482 10.1542 85.0679 10.1542C83.8558 10.1542 82.9467 11.9698 82.8457 15.0966H87.189V15.0966Z" fill="white"/>
<path d="M90.0172 9.4481H90.7243V10.7594C90.9263 10.3559 91.7343 9.24637 93.0474 9.24637C94.7645 9.24637 95.4716 10.6585 95.4716 13.0793V21.7538H94.7645V13.1802C94.7645 11.062 94.2595 10.1542 93.0474 10.1542C92.2394 10.1542 91.3303 10.7594 90.8253 11.9698V21.8547H90.1182V9.4481H90.0172Z" fill="white"/>
<path d="M97.0877 5.41342H97.9968L97.2897 9.44809H96.7847L97.0877 5.41342Z" fill="white"/>
<path d="M98.8048 20.0391L99.3099 19.4339C99.6129 19.9382 100.219 21.1486 101.33 21.1486C102.441 21.1486 103.047 20.2408 103.047 19.0304C103.047 17.7192 102.643 16.9122 101.128 15.7018C99.7139 14.4914 99.0068 13.6845 99.0068 11.9698C99.0068 10.3559 99.8149 9.14551 101.229 9.14551C102.643 9.14551 103.35 10.4568 103.653 10.8602L103.148 11.4654C102.845 10.9611 102.239 10.0533 101.229 10.0533C100.32 10.0533 99.7139 10.8602 99.7139 11.9698C99.7139 13.1802 100.118 13.7854 101.532 14.9958C103.047 16.2062 103.754 17.114 103.754 18.9296C103.754 20.846 102.744 21.9556 101.33 21.9556C99.8149 22.0564 99.0068 20.5434 98.8048 20.0391Z" fill="white"/>
<path d="M109.916 5.41342H112.441C114.259 5.41342 115.37 6.72469 115.37 9.34722C115.37 11.4654 114.461 12.6758 113.451 12.9784C114.36 13.1802 115.774 13.9871 115.774 17.114C115.774 20.3417 114.461 21.7538 112.441 21.7538H109.916V5.41342ZM112.34 12.575C113.855 12.575 114.562 11.2637 114.562 9.34722C114.562 7.22902 113.754 6.32122 112.34 6.32122H110.623V12.575H112.34ZM112.542 20.846C114.158 20.846 115.067 19.6356 115.067 17.114C115.067 14.3906 113.956 13.3819 112.34 13.3819H110.724V20.7452H112.542V20.846Z" fill="white"/>
<path d="M117.794 9.4481H118.501V10.7594C118.905 9.85157 119.511 9.24637 120.521 9.24637C121.026 9.24637 121.329 9.34724 121.632 9.4481L121.43 10.4568C121.228 10.3559 120.723 10.1542 120.42 10.1542C119.713 10.1542 118.905 10.5576 118.501 11.9698V21.7538H117.794V9.4481V9.4481Z" fill="white"/>
<path d="M122.137 18.0218C122.137 15.2984 123.248 14.088 124.764 14.088C125.673 14.088 126.38 14.3906 126.784 14.794V12.575C126.784 10.6585 126.279 10.0533 125.168 10.0533C124.158 10.0533 123.349 10.7594 122.945 11.062L122.642 10.3559C122.945 10.0533 123.956 9.14551 125.168 9.14551C126.784 9.14551 127.592 9.95244 127.592 12.4741V21.653H126.885V20.4426C126.481 21.0478 125.673 21.8547 124.663 21.8547C123.147 22.0564 122.137 20.9469 122.137 18.0218ZM126.784 19.6356V15.7018C126.279 15.1975 125.572 14.9958 124.764 14.9958C123.552 14.9958 122.844 16.0044 122.844 18.1226C122.844 20.2408 123.552 21.2495 124.764 21.2495C125.572 21.1486 126.38 20.4426 126.784 19.6356Z" fill="white"/>
<path d="M131.43 6.01864C131.43 6.52297 131.127 6.92644 130.723 6.92644C130.319 6.92644 130.016 6.52297 130.016 6.01864C130.016 5.51431 130.319 5.11084 130.723 5.11084C131.127 5.21171 131.43 5.51431 131.43 6.01864ZM130.42 9.44811H131.127V21.7538H130.42V9.44811Z" fill="white"/>
<path d="M134.056 9.4481H134.763V10.7594C134.965 10.3559 135.773 9.24637 137.086 9.24637C138.804 9.24637 139.511 10.6585 139.511 13.0793V21.7538H138.804V13.1802C138.804 11.062 138.299 10.1542 137.086 10.1542C136.278 10.1542 135.369 10.7594 134.864 11.9698V21.8547H134.157V9.4481H134.056Z" fill="white"/>
<path d="M52.0386 25.4859H52.7457V32.7483H57.493V25.4859H58.3011V41.8263H57.493V33.6561H52.7457V41.8263H52.0386V25.4859Z" fill="white"/>
<path d="M60.4222 35.6734C60.4222 31.7396 61.6343 29.3188 63.3514 29.3188C65.1695 29.3188 66.1796 31.7396 66.1796 35.5726V35.976H61.1292V36.0769C61.2302 39.2038 61.9373 41.2211 63.3514 41.2211C64.4625 41.2211 65.1695 40.0107 65.4725 39.6072L65.9776 40.2124C65.6746 40.8176 64.7655 42.1289 63.3514 42.1289C61.6343 42.1289 60.4222 39.9098 60.4222 35.6734ZM65.4725 35.1691V35.0682C65.3715 32.244 64.7655 30.2266 63.3514 30.2266C62.1393 30.2266 61.2302 32.0422 61.1292 35.1691H65.4725Z" fill="white"/>
<path d="M67.6947 38.0942C67.6947 35.3708 68.8058 34.1604 70.3209 34.1604C71.2299 34.1604 71.937 34.463 72.341 34.8665V32.6474C72.341 30.731 71.836 30.1258 70.7249 30.1258C69.7148 30.1258 68.9068 30.8318 68.5027 31.1344L68.3007 30.5292C68.6037 30.2266 69.6138 29.3188 70.8259 29.3188C72.442 29.3188 73.2501 30.1257 73.2501 32.6474V41.8263H72.543V40.6159C72.139 41.2211 71.3309 42.028 70.3209 42.028C68.8058 42.1289 67.6947 41.0194 67.6947 38.0942ZM72.442 39.7081V35.7743C71.937 35.27 71.2299 35.0682 70.4219 35.0682C69.2098 35.0682 68.5027 36.0769 68.5027 38.1951C68.5027 40.3133 69.2098 41.322 70.4219 41.322C71.2299 41.2211 72.038 40.515 72.442 39.7081Z" fill="white"/>
<path d="M76.0783 25.385L76.7853 24.7798V41.8263H76.0783V25.385Z" fill="white"/>
<path d="M79.9165 39.809V30.3275H78.9065V29.5206H79.9165V25.4859L80.6236 24.9816V29.5206H82.5427V30.3275H80.6236V39.7081C80.6236 40.7168 80.9266 41.1202 81.5326 41.1202C81.9367 41.1202 82.2397 41.0194 82.6437 40.8176L82.5427 41.7254C82.1387 41.9272 81.8357 42.028 81.3306 42.028C80.4216 42.028 79.9165 41.322 79.9165 39.809Z" fill="white"/>
<path d="M84.4618 25.385L85.1689 24.7798V30.8318C85.3709 30.4284 86.179 29.3188 87.492 29.3188C89.2092 29.3188 89.9162 30.731 89.9162 33.1518V41.8263H89.2092V33.2526C89.2092 31.1344 88.7041 30.2266 87.492 30.2266C86.684 30.2266 85.7749 30.8318 85.2699 32.0422V41.9272H84.5628V25.385H84.4618Z" fill="white"/>
<path d="M96.9867 25.4859H96.1786V41.9272H96.9867V25.4859Z" fill="white"/>
<path d="M100.017 29.5206H100.724V30.8318C100.926 30.4284 101.734 29.3188 103.047 29.3188C104.764 29.3188 105.471 30.7309 105.471 33.1518V41.8263H104.764V33.2526C104.764 31.1344 104.259 30.2266 103.047 30.2266C102.239 30.2266 101.33 30.8318 100.825 32.0422V41.9272H100.017V29.5206Z" fill="white"/>
<path d="M109.31 26.0911C109.31 26.5954 109.007 26.9989 108.602 26.9989C108.198 26.9989 107.895 26.5954 107.895 26.0911C107.895 25.5868 108.198 25.1833 108.602 25.1833C109.007 25.1833 109.31 25.5868 109.31 26.0911ZM108.299 29.5206H109.007V41.8263H108.299V29.5206Z" fill="white"/>
<path d="M112.138 39.809V30.3275H111.128V29.5206H112.138V25.4859L112.845 24.9816V29.5206H114.764V30.3275H112.845V39.7081C112.845 40.7168 113.148 41.1202 113.754 41.1202C114.158 41.1202 114.461 41.0194 114.865 40.8176L114.764 41.7254C114.36 41.9272 114.057 42.028 113.552 42.028C112.643 42.028 112.138 41.322 112.138 39.809Z" fill="white"/>
<path d="M117.895 26.0911C117.895 26.5954 117.592 26.9989 117.188 26.9989C116.784 26.9989 116.481 26.5954 116.481 26.0911C116.481 25.5868 116.784 25.1833 117.188 25.1833C117.592 25.1833 117.895 25.5868 117.895 26.0911ZM116.784 29.5206H117.491V41.8263H116.784V29.5206Z" fill="white"/>
<path d="M119.612 38.0942C119.612 35.3708 120.723 34.1604 122.238 34.1604C123.147 34.1604 123.855 34.463 124.259 34.8665V32.6474C124.259 30.731 123.754 30.1258 122.642 30.1258C121.632 30.1258 120.824 30.8318 120.42 31.1344L120.218 30.5292C120.521 30.2266 121.531 29.3188 122.743 29.3188C124.36 29.3188 125.168 30.1257 125.168 32.6474V41.8263H124.461V40.6159C124.057 41.2211 123.248 42.028 122.238 42.028C120.723 42.1289 119.612 41.0194 119.612 38.0942ZM124.36 39.7081V35.7743C123.855 35.27 123.147 35.0682 122.339 35.0682C121.127 35.0682 120.42 36.0769 120.42 38.1951C120.42 40.3133 121.127 41.322 122.339 41.322C123.147 41.2211 123.855 40.515 124.36 39.7081Z" fill="white"/>
<path d="M128.097 39.809V30.3275H127.087V29.5206H128.097V25.4859L128.804 24.9816V29.5206H130.723V30.3275H128.804V39.7081C128.804 40.7168 129.107 41.1202 129.713 41.1202C130.117 41.1202 130.42 41.0194 130.824 40.8176L130.723 41.7254C130.319 41.9272 130.016 42.028 129.511 42.028C128.501 42.028 128.097 41.322 128.097 39.809Z" fill="white"/>
<path d="M134.157 26.0911C134.157 26.5954 133.854 26.9989 133.45 26.9989C133.046 26.9989 132.743 26.5954 132.743 26.0911C132.743 25.5868 133.046 25.1833 133.45 25.1833C133.854 25.1833 134.157 25.5868 134.157 26.0911ZM133.147 29.5206H133.854V41.8263H133.147V29.5206Z" fill="white"/>
<path d="M135.773 29.5206H136.48L138.703 40.8176L140.925 29.5206H141.632L139.107 41.9272H138.299L135.773 29.5206Z" fill="white"/>
<path d="M142.44 35.6734C142.44 31.7396 143.652 29.3188 145.369 29.3188C147.187 29.3188 148.197 31.7396 148.197 35.5726V35.976H143.147V36.0769C143.248 39.2038 143.955 41.2211 145.369 41.2211C146.48 41.2211 147.187 40.0107 147.49 39.6072L147.995 40.2124C147.692 40.8176 146.783 42.1289 145.369 42.1289C143.652 42.1289 142.44 39.9098 142.44 35.6734ZM147.49 35.1691V35.0682C147.389 32.244 146.783 30.2266 145.369 30.2266C144.157 30.2266 143.248 32.0422 143.147 35.1691H147.49Z" fill="white"/>
</svg>
