<?xml version="1.0" standalone="no"?>
<!DOCTYPE svg PUBLIC "-//W3C//DTD SVG 20010904//EN"
 "http://www.w3.org/TR/2001/REC-SVG-20010904/DTD/svg10.dtd">
<svg version="1.0" xmlns="http://www.w3.org/2000/svg"
 width="260.000000pt" height="260.000000pt" viewBox="0 0 260.000000 260.000000"
 preserveAspectRatio="xMidYMid meet">
<metadata>
Created by potrace 1.14, written by Peter Selinger 2001-2017
</metadata>
<g transform="translate(0.000000,260.000000) scale(0.100000,-0.100000)"
fill="#000000" stroke="none">
<path d="M1165 2594 c-193 -30 -303 -63 -445 -134 -346 -174 -585 -478 -681
-865 -30 -119 -37 -370 -14 -506 90 -539 516 -971 1050 -1063 118 -21 335 -21
455 0 461 79 857 420 1004 864 48 147 61 233 61 415 -1 188 -14 275 -67 425
-152 431 -527 759 -970 845 -81 16 -333 28 -393 19z m707 -694 c0 -16 1 -36 2
-42 1 -10 -60 -14 -259 -18 l-260 -5 -3 -117 -3 -117 230 -3 c227 -3 230 -3
255 -27 20 -19 26 -34 26 -68 l0 -43 -45 0 c-38 0 -45 3 -45 20 0 19 -7 20
-210 20 l-211 0 3 -77 3 -78 232 -3 232 -2 20 -27 c19 -23 21 -40 21 -164 0
-131 -1 -139 -24 -166 l-24 -28 -231 -3 -231 -3 0 -90 0 -89 260 0 260 0 6
-25 c3 -14 3 -36 0 -50 l-6 -25 -568 2 -567 3 0 45 0 45 263 3 263 2 -3 93 -3
92 -233 5 c-216 5 -235 6 -248 24 -18 25 -28 79 -20 111 6 24 11 26 49 23 39
-3 42 -5 45 -36 l3 -32 202 2 202 3 3 98 3 97 -225 0 c-222 0 -225 0 -253 24
-26 22 -27 29 -31 124 -3 63 0 114 8 137 20 59 45 65 290 65 l211 0 -3 118 -3
117 -262 3 -263 2 0 45 0 45 570 0 570 0 2 -30z"/>
<path d="M852 1423 l3 -78 200 0 200 0 3 78 3 77 -206 0 -206 0 3 -77z"/>
<path d="M1350 1150 l0 -100 208 2 207 3 3 98 3 97 -211 0 -210 0 0 -100z"/>
</g>
</svg>
